STARTFONT 2.1
FONT -DIGITAL-VT220-medium-I-Normal-80col-80-800-150-75-c-800-iso10646-1
SIZE 80 75 75
FONTBOUNDINGBOX 106 80 -13 -16
STARTPROPERTIES 21
FOUNDRY "DIGITAL"
FAMILY_NAME "vt220"
WEIGHT_NAME "medium"
RELATIVE_SETWIDTH 50
SLANT "I"
SETWIDTH_NAME "Normal"
ADD_STYLE_NAME "80col"
PIXEL_SIZE 80
POINT_SIZE 800
RESOLUTION_X 75
RESOLUTION_Y 75
SPACING "c"
CHARSET_REGISTRY "ISO10646"
CHARSET_ENCODING "1"
CAP_HEIGHT 56
X_HEIGHT 40
WEIGHT 10
QUAD_WIDTH 80
FONT_ASCENT 64
FONT_DESCENT 16
AVERAGE_WIDTH 800
ENDPROPERTIES
CHARS 237
STARTCHAR U+00FD
ENCODING 253
SWIDTH 1000 0
DWIDTH 80 0
BBX 106 80 -13 -16
BITMAP
0000000000000000000000000000
0000000000000000000000000000
0000000000000000000000000000
0000000000000000000000000000
0000000000000000000000000000
0000000000000000000000000000
0000000000000000000000000000
0000000000000000000000000000
0000000000000000000000000000
0000000000000000000000000000
0000000000000000000000000000
0000000000000000000000000000
0000000000000000000000000000
0000000000000000000000000000
0000000000000000000000000000
0000000000000000000000000000
0000000000000000000000000000
0000000000000000000000000000
0000000000000000000000000000
0000000000000000000000000000
0000000000000000000000000000
0000000000000000000000000000
0000000000000000000000000000
0000000000000000000000000000
0000000000000000000000000000
0000000000000000000000000000
0000000000000000000000000000
0000000000000000000000000000
0000000000000000000000000000
0000000000000000000000000000
0000000000000000000000000000
0000000000000000000000000000
0000000000000000000000000000
0000000000000000000000000000
0000000000000000000000000000
0000000000000000000000000000
0000000000000000000000000000
0000000000000000000000000000
0000000000000000000000000000
0000000000000000000000000000
0000000000000000000000000000
0000000000000000000000000000
0000000000000000000000000000
0000000000000000000000000000
0000000000000000000000000000
0000000000000000000000000000
0000000000000000000000000000
0000000000000000000000000000
0000000000000000000000000000
0000000000000000000000000000
0000000000000000000000000000
0000000000000000000000000000
0000000000000000000000000000
0000000000000000000000000000
0000000000000000000000000000
0000000000000000000000000000
0000000000000000000000000000
0000000000000000000000000000
0000000000000000000000000000
0000000000000000000000000000
0000000000000000000000000000
0000000000000000000000000000
0000000000000000000000000000
0000000000000000000000000000
0000000000000000000000000000
0000000000000000000000000000
0000000000000000000000000000
0000000000000000000000000000
0000000000000000000000000000
0000000000000000000000000000
0000000000000000000000000000
0000000000000000000000000000
0000000000000000000000000000
0000000000000000000000000000
0000000000000000000000000000
0000000000000000000000000000
0000000000000000000000000000
0000000000000000000000000000
0000000000000000000000000000
0000000000000000000000000000
ENDCHAR
STARTCHAR U+25A1
ENCODING 9633
SWIDTH 1000 0
DWIDTH 80 0
BBX 106 80 -13 -16
BITMAP
0000000000000000000000000000
0000000000000000000000000000
0000000000000000000000000000
0000000000000000000000000000
0000000000000000000000000000
0000000000000000000000000000
0000000000000000000000000000
0000000000000000000000000000
000000FFFFFFFFFFFFFFF0000000
000001FFFFFFFFFFFFFFE0000000
000001FFFFFFFFFFFFFFE0000000
000001FFFFFFFFFFFFFFE0000000
000003FFFFFFFFFFFFFFC0000000
000003FFFFFFFFFFFFFFC0000000
000003FFFFFFFFFFFFFFC0000000
000007FFFFFFFFFFFFFF80000000
000007FF8000000007FF80000000
000007FF8000000007FF80000000
00000FFF000000000FFF00000000
00000FFF000000000FFF00000000
00000FFF000000000FFF00000000
00001FFE000000001FFE00000000
00001FFE000000001FFE00000000
00001FFE000000001FFE00000000
00003FFC000000003FFC00000000
00003FFC000000003FFC00000000
00003FFC000000003FFC00000000
00007FF8000000007FF800000000
00007FF8000000007FF800000000
00007FF8000000007FF800000000
0000FFF000000000FFF000000000
0000FFF000000000FFF000000000
0000FFF000000000FFF000000000
0001FFE000000001FFE000000000
0001FFE000000001FFE000000000
0001FFE000000001FFE000000000
0003FFC000000003FFC000000000
0003FFC000000003FFC000000000
0003FFC000000003FFC000000000
0007FF8000000007FF8000000000
0007FF8000000007FF8000000000
0007FF8000000007FF8000000000
000FFF000000000FFF0000000000
000FFF000000000FFF0000000000
000FFF000000000FFF0000000000
001FFE000000001FFE0000000000
001FFE000000001FFE0000000000
001FFE000000001FFE0000000000
003FFC000000003FFC0000000000
003FFC000000003FFC0000000000
003FFC000000003FFC0000000000
007FF8000000007FF80000000000
007FF8000000007FF80000000000
007FF8000000007FF80000000000
00FFF000000000FFF00000000000
00FFF000000000FFF00000000000
00FFFFFFFFFFFFFFF00000000000
01FFFFFFFFFFFFFFE00000000000
01FFFFFFFFFFFFFFE00000000000
01FFFFFFFFFFFFFFE00000000000
03FFFFFFFFFFFFFFC00000000000
03FFFFFFFFFFFFFFC00000000000
03FFFFFFFFFFFFFFC00000000000
07FFFFFFFFFFFFFF800000000000
0000000000000000000000000000
0000000000000000000000000000
0000000000000000000000000000
0000000000000000000000000000
0000000000000000000000000000
0000000000000000000000000000
0000000000000000000000000000
0000000000000000000000000000
0000000000000000000000000000
0000000000000000000000000000
0000000000000000000000000000
0000000000000000000000000000
0000000000000000000000000000
0000000000000000000000000000
0000000000000000000000000000
0000000000000000000000000000
ENDCHAR
STARTCHAR U+00FE
ENCODING 254
SWIDTH 1000 0
DWIDTH 80 0
BBX 106 80 -13 -16
BITMAP
0000000000000000000000000000
0000000000000000000000000000
0000000000000000000000000000
0000000000000000000000000000
0000000000000000000000000000
0000000000000000000000000000
0000000000000000000000000000
0000000000000000000000000000
000000FFF0000000000000000000
000001FFE0000000000000000000
000001FFE0000000000000000000
000001FFE0000000000000000000
000003FFC0000000000000000000
000003FFC0000000000000000000
000003FFC0000000000000000000
000007FF80000000000000000000
000007FF80000000000000000000
000007FF80000000000000000000
00000FFF00000000000000000000
00000FFF00000000000000000000
00000FFF00000000000000000000
00001FFE00000000000000000000
00001FFE00000000000000000000
00001FFE00000000000000000000
00003FFC3FFFFFFFFC0000000000
00003FFC3FFFFFFFFC0000000000
00003FFC3FFFFFFFFC0000000000
00007FF87FFFFFFFF80000000000
00007FF87FFFFFFFF80000000000
00007FF87FFFFFFFF80000000000
0000FFF0FFFFFFFFF00000000000
0000FFF0FFFFFFFFF00000000000
0000FFFFF0000000FFF000000000
0001FFFFE0000001FFE000000000
0001FFFFE0000001FFE000000000
0001FFFFE0000001FFE000000000
0003FFFFC0000003FFC000000000
0003FFFFC0000003FFC000000000
0003FFFFC0000003FFC000000000
0007FFFF80000007FF8000000000
0007FFFF80000007FF8000000000
0007FFFF80000007FF8000000000
000FFFFF0000000FFF0000000000
000FFFFF0000000FFF0000000000
000FFFFF0000000FFF0000000000
001FFFFE0000001FFE0000000000
001FFFFE0000001FFE0000000000
001FFFFE0000001FFE0000000000
003FFC3FFFFFFFFC000000000000
003FFC3FFFFFFFFC000000000000
003FFC3FFFFFFFFC000000000000
007FF87FFFFFFFF8000000000000
007FF87FFFFFFFF8000000000000
007FF87FFFFFFFF8000000000000
00FFF0FFFFFFFFF0000000000000
00FFF0FFFFFFFFF0000000000000
00FFF00000000000000000000000
01FFE00000000000000000000000
01FFE00000000000000000000000
01FFE00000000000000000000000
03FFC00000000000000000000000
03FFC00000000000000000000000
03FFC00000000000000000000000
07FF800000000000000000000000
07FF800000000000000000000000
07FF800000000000000000000000
0FFF000000000000000000000000
0FFF000000000000000000000000
0FFF000000000000000000000000
1FFE000000000000000000000000
1FFE000000000000000000000000
1FFE000000000000000000000000
3FFC000000000000000000000000
3FFC000000000000000000000000
3FFC000000000000000000000000
7FF8000000000000000000000000
7FF8000000000000000000000000
7FF8000000000000000000000000
FFF0000000000000000000000000
FFF0000000000000000000000000
ENDCHAR
STARTCHAR U+00FF
ENCODING 255
SWIDTH 1000 0
DWIDTH 80 0
BBX 106 80 -13 -16
BITMAP
0000000000000000000000000000
0000000000000000000000000000
0000000000000000000000000000
0000000000000000000000000000
0000000000000000000000000000
0000000000000000000000000000
0000000000000000000000000000
0000000000000000000000000000
00000000FFF00000FFF000000000
00000001FFE00001FFE000000000
00000001FFE00001FFE000000000
00000001FFE00001FFE000000000
00000003FFC00003FFC000000000
00000003FFC00003FFC000000000
00000003FFC00003FFC000000000
00000007FF800007FF8000000000
0000000000000000000000000000
0000000000000000000000000000
0000000000000000000000000000
0000000000000000000000000000
0000000000000000000000000000
0000000000000000000000000000
0000000000000000000000000000
0000000000000000000000000000
00003FFC0000003FFC0000000000
00003FFC0000003FFC0000000000
00003FFC0000003FFC0000000000
00007FF80000007FF80000000000
00007FF80000007FF80000000000
00007FF80000007FF80000000000
0000FFF0000000FFF00000000000
0000FFF0000000FFF00000000000
0000FFF0000000FFF00000000000
0001FFE0000001FFE00000000000
0001FFE0000001FFE00000000000
0001FFE0000001FFE00000000000
0003FFC0000003FFC00000000000
0003FFC0000003FFC00000000000
0003FFC0000003FFC00000000000
0007FF80000007FF800000000000
0007FF800007FFFF800000000000
0007FF800007FFFF800000000000
000FFF00000FFFFF000000000000
000FFF00000FFFFF000000000000
000FFF00000FFFFF000000000000
001FFE00001FFFFE000000000000
001FFE00001FFFFE000000000000
001FFE00001FFFFE000000000000
00003FFFFFFC3FFC000000000000
00003FFFFFFC3FFC000000000000
00003FFFFFFC3FFC000000000000
00007FFFFFF87FF8000000000000
00007FFFFFF87FF8000000000000
00007FFFFFF87FF8000000000000
0000FFFFFFF0FFF0000000000000
0000FFFFFFF0FFF0000000000000
000000000000FFF0000000000000
000000000001FFE0000000000000
000000000001FFE0000000000000
000000000001FFE0000000000000
000000000003FFC0000000000000
000000000003FFC0000000000000
000000000003FFC0000000000000
000000000007FF80000000000000
07FF80000007FF80000000000000
07FF80000007FF80000000000000
0FFF0000000FFF00000000000000
0FFF0000000FFF00000000000000
0FFF0000000FFF00000000000000
1FFE0000001FFE00000000000000
1FFE0000001FFE00000000000000
1FFE0000001FFE00000000000000
003FFFFFFFFC0000000000000000
003FFFFFFFFC0000000000000000
003FFFFFFFFC0000000000000000
007FFFFFFFF80000000000000000
007FFFFFFFF80000000000000000
007FFFFFFFF80000000000000000
00FFFFFFFFF00000000000000000
00FFFFFFFFF00000000000000000
ENDCHAR
STARTCHAR U+00FC
ENCODING 252
SWIDTH 1000 0
DWIDTH 80 0
BBX 106 80 -13 -16
BITMAP
0000000000000000000000000000
0000000000000000000000000000
0000000000000000000000000000
0000000000000000000000000000
0000000000000000000000000000
0000000000000000000000000000
0000000000000000000000000000
0000000000000000000000000000
00000000FFF00000FFF000000000
00000001FFE00001FFE000000000
00000001FFE00001FFE000000000
00000001FFE00001FFE000000000
00000003FFC00003FFC000000000
00000003FFC00003FFC000000000
00000003FFC00003FFC000000000
00000007FF800007FF8000000000
0000000000000000000000000000
0000000000000000000000000000
0000000000000000000000000000
0000000000000000000000000000
0000000000000000000000000000
0000000000000000000000000000
0000000000000000000000000000
0000000000000000000000000000
00003FFC0000003FFC0000000000
00003FFC0000003FFC0000000000
00003FFC0000003FFC0000000000
00007FF80000007FF80000000000
00007FF80000007FF80000000000
00007FF80000007FF80000000000
0000FFF0000000FFF00000000000
0000FFF0000000FFF00000000000
0000FFF0000000FFF00000000000
0001FFE0000001FFE00000000000
0001FFE0000001FFE00000000000
0001FFE0000001FFE00000000000
0003FFC0000003FFC00000000000
0003FFC0000003FFC00000000000
0003FFC0000003FFC00000000000
0007FF80000007FF800000000000
0007FF80000007FF800000000000
0007FF80000007FF800000000000
000FFF0000000FFF000000000000
000FFF0000000FFF000000000000
000FFF0000000FFF000000000000
001FFE0000001FFE000000000000
001FFE0000001FFE000000000000
001FFE0000001FFE000000000000
003FFC0000003FFC000000000000
003FFC0000003FFC000000000000
003FFC0000003FFC000000000000
007FF80000007FF8000000000000
007FF80000007FF8000000000000
007FF80000007FF8000000000000
00FFF0000000FFF0000000000000
00FFF0000000FFF0000000000000
0000FFFFFFFFF0FFF00000000000
0001FFFFFFFFE1FFE00000000000
0001FFFFFFFFE1FFE00000000000
0001FFFFFFFFE1FFE00000000000
0003FFFFFFFFC3FFC00000000000
0003FFFFFFFFC3FFC00000000000
0003FFFFFFFFC3FFC00000000000
0007FFFFFFFF87FF800000000000
0000000000000000000000000000
0000000000000000000000000000
0000000000000000000000000000
0000000000000000000000000000
0000000000000000000000000000
0000000000000000000000000000
0000000000000000000000000000
0000000000000000000000000000
0000000000000000000000000000
0000000000000000000000000000
0000000000000000000000000000
0000000000000000000000000000
0000000000000000000000000000
0000000000000000000000000000
0000000000000000000000000000
0000000000000000000000000000
ENDCHAR
STARTCHAR U+00FB
ENCODING 251
SWIDTH 1000 0
DWIDTH 80 0
BBX 106 80 -13 -16
BITMAP
00000000003FFFFFFC0000000000
00000000003FFFFFFC0000000000
00000000003FFFFFFC0000000000
00000000007FFFFFF80000000000
00000000007FFFFFF80000000000
00000000007FFFFFF80000000000
0000000000FFFFFFF00000000000
0000000000FFFFFFF00000000000
00000000FFF00000FFF000000000
00000001FFE00001FFE000000000
00000001FFE00001FFE000000000
00000001FFE00001FFE000000000
00000003FFC00003FFC000000000
00000003FFC00003FFC000000000
00000003FFC00003FFC000000000
00000007FF800007FF8000000000
0000000000000000000000000000
0000000000000000000000000000
0000000000000000000000000000
0000000000000000000000000000
0000000000000000000000000000
0000000000000000000000000000
0000000000000000000000000000
0000000000000000000000000000
00003FFC0000003FFC0000000000
00003FFC0000003FFC0000000000
00003FFC0000003FFC0000000000
00007FF80000007FF80000000000
00007FF80000007FF80000000000
00007FF80000007FF80000000000
0000FFF0000000FFF00000000000
0000FFF0000000FFF00000000000
0000FFF0000000FFF00000000000
0001FFE0000001FFE00000000000
0001FFE0000001FFE00000000000
0001FFE0000001FFE00000000000
0003FFC0000003FFC00000000000
0003FFC0000003FFC00000000000
0003FFC0000003FFC00000000000
0007FF80000007FF800000000000
0007FF80000007FF800000000000
0007FF80000007FF800000000000
000FFF0000000FFF000000000000
000FFF0000000FFF000000000000
000FFF0000000FFF000000000000
001FFE0000001FFE000000000000
001FFE0000001FFE000000000000
001FFE0000001FFE000000000000
003FFC0000003FFC000000000000
003FFC0000003FFC000000000000
003FFC0000003FFC000000000000
007FF80000007FF8000000000000
007FF80000007FF8000000000000
007FF80000007FF8000000000000
00FFF0000000FFF0000000000000
00FFF0000000FFF0000000000000
0000FFFFFFFFF0FFF00000000000
0001FFFFFFFFE1FFE00000000000
0001FFFFFFFFE1FFE00000000000
0001FFFFFFFFE1FFE00000000000
0003FFFFFFFFC3FFC00000000000
0003FFFFFFFFC3FFC00000000000
0003FFFFFFFFC3FFC00000000000
0007FFFFFFFF87FF800000000000
0000000000000000000000000000
0000000000000000000000000000
0000000000000000000000000000
0000000000000000000000000000
0000000000000000000000000000
0000000000000000000000000000
0000000000000000000000000000
0000000000000000000000000000
0000000000000000000000000000
0000000000000000000000000000
0000000000000000000000000000
0000000000000000000000000000
0000000000000000000000000000
0000000000000000000000000000
0000000000000000000000000000
0000000000000000000000000000
ENDCHAR
STARTCHAR U+00FA
ENCODING 250
SWIDTH 1000 0
DWIDTH 80 0
BBX 106 80 -13 -16
BITMAP
0000000000000000000000000000
0000000000000000000000000000
0000000000000000000000000000
0000000000000000000000000000
0000000000000000000000000000
0000000000000000000000000000
0000000000000000000000000000
0000000000000000000000000000
000000000000FFFFF00000000000
000000000001FFFFE00000000000
000000000001FFFFE00000000000
000000000001FFFFE00000000000
000000000003FFFFC00000000000
000000000003FFFFC00000000000
000000000003FFFFC00000000000
000000000007FFFF800000000000
00000007FFFF8000000000000000
00000007FFFF8000000000000000
0000000FFFFF0000000000000000
0000000FFFFF0000000000000000
0000000FFFFF0000000000000000
0000001FFFFE0000000000000000
0000001FFFFE0000000000000000
0000001FFFFE0000000000000000
00003FFC0000003FFC0000000000
00003FFC0000003FFC0000000000
00003FFC0000003FFC0000000000
00007FF80000007FF80000000000
00007FF80000007FF80000000000
00007FF80000007FF80000000000
0000FFF0000000FFF00000000000
0000FFF0000000FFF00000000000
0000FFF0000000FFF00000000000
0001FFE0000001FFE00000000000
0001FFE0000001FFE00000000000
0001FFE0000001FFE00000000000
0003FFC0000003FFC00000000000
0003FFC0000003FFC00000000000
0003FFC0000003FFC00000000000
0007FF80000007FF800000000000
0007FF80000007FF800000000000
0007FF80000007FF800000000000
000FFF0000000FFF000000000000
000FFF0000000FFF000000000000
000FFF0000000FFF000000000000
001FFE0000001FFE000000000000
001FFE0000001FFE000000000000
001FFE0000001FFE000000000000
003FFC0000003FFC000000000000
003FFC0000003FFC000000000000
003FFC0000003FFC000000000000
007FF80000007FF8000000000000
007FF80000007FF8000000000000
007FF80000007FF8000000000000
00FFF0000000FFF0000000000000
00FFF0000000FFF0000000000000
0000FFFFFFFFF0FFF00000000000
0001FFFFFFFFE1FFE00000000000
0001FFFFFFFFE1FFE00000000000
0001FFFFFFFFE1FFE00000000000
0003FFFFFFFFC3FFC00000000000
0003FFFFFFFFC3FFC00000000000
0003FFFFFFFFC3FFC00000000000
0007FFFFFFFF87FF800000000000
0000000000000000000000000000
0000000000000000000000000000
0000000000000000000000000000
0000000000000000000000000000
0000000000000000000000000000
0000000000000000000000000000
0000000000000000000000000000
0000000000000000000000000000
0000000000000000000000000000
0000000000000000000000000000
0000000000000000000000000000
0000000000000000000000000000
0000000000000000000000000000
0000000000000000000000000000
0000000000000000000000000000
0000000000000000000000000000
ENDCHAR
STARTCHAR U+00F9
ENCODING 249
SWIDTH 1000 0
DWIDTH 80 0
BBX 106 80 -13 -16
BITMAP
0000000000000000000000000000
0000000000000000000000000000
0000000000000000000000000000
0000000000000000000000000000
0000000000000000000000000000
0000000000000000000000000000
0000000000000000000000000000
0000000000000000000000000000
00000000FFFFF000000000000000
00000001FFFFE000000000000000
00000001FFFFE000000000000000
00000001FFFFE000000000000000
00000003FFFFC000000000000000
00000003FFFFC000000000000000
00000003FFFFC000000000000000
00000007FFFF8000000000000000
000000000007FFFF800000000000
000000000007FFFF800000000000
00000000000FFFFF000000000000
00000000000FFFFF000000000000
00000000000FFFFF000000000000
00000000001FFFFE000000000000
00000000001FFFFE000000000000
00000000001FFFFE000000000000
00003FFC0000003FFC0000000000
00003FFC0000003FFC0000000000
00003FFC0000003FFC0000000000
00007FF80000007FF80000000000
00007FF80000007FF80000000000
00007FF80000007FF80000000000
0000FFF0000000FFF00000000000
0000FFF0000000FFF00000000000
0000FFF0000000FFF00000000000
0001FFE0000001FFE00000000000
0001FFE0000001FFE00000000000
0001FFE0000001FFE00000000000
0003FFC0000003FFC00000000000
0003FFC0000003FFC00000000000
0003FFC0000003FFC00000000000
0007FF80000007FF800000000000
0007FF80000007FF800000000000
0007FF80000007FF800000000000
000FFF0000000FFF000000000000
000FFF0000000FFF000000000000
000FFF0000000FFF000000000000
001FFE0000001FFE000000000000
001FFE0000001FFE000000000000
001FFE0000001FFE000000000000
003FFC0000003FFC000000000000
003FFC0000003FFC000000000000
003FFC0000003FFC000000000000
007FF80000007FF8000000000000
007FF80000007FF8000000000000
007FF80000007FF8000000000000
00FFF0000000FFF0000000000000
00FFF0000000FFF0000000000000
0000FFFFFFFFF0FFF00000000000
0001FFFFFFFFE1FFE00000000000
0001FFFFFFFFE1FFE00000000000
0001FFFFFFFFE1FFE00000000000
0003FFFFFFFFC3FFC00000000000
0003FFFFFFFFC3FFC00000000000
0003FFFFFFFFC3FFC00000000000
0007FFFFFFFF87FF800000000000
0000000000000000000000000000
0000000000000000000000000000
0000000000000000000000000000
0000000000000000000000000000
0000000000000000000000000000
0000000000000000000000000000
0000000000000000000000000000
0000000000000000000000000000
0000000000000000000000000000
0000000000000000000000000000
0000000000000000000000000000
0000000000000000000000000000
0000000000000000000000000000
0000000000000000000000000000
0000000000000000000000000000
0000000000000000000000000000
ENDCHAR
STARTCHAR U+00F8
ENCODING 248
SWIDTH 1000 0
DWIDTH 80 0
BBX 106 80 -13 -16
BITMAP
0000000000000000000000000000
0000000000000000000000000000
0000000000000000000000000000
0000000000000000000000000000
0000000000000000000000000000
0000000000000000000000000000
0000000000000000000000000000
0000000000000000000000000000
0000000000000000000000000000
0000000000000000000000000000
0000000000000000000000000000
0000000000000000000000000000
0000000000000000000000000000
0000000000000000000000000000
0000000000000000000000000000
0000000000000000000000000000
000000000000000007FF80000000
000000000000000007FF80000000
00000000000000000FFF00000000
00000000000000000FFF00000000
00000000000000000FFF00000000
00000000000000001FFE00000000
00000000000000001FFE00000000
00000000000000001FFE00000000
0000003FFFFFFFFFFC0000000000
0000003FFFFFFFFFFC0000000000
0000003FFFFFFFFFFC0000000000
0000007FFFFFFFFFF80000000000
0000007FFFFFFFFFF80000000000
0000007FFFFFFFFFF80000000000
000000FFFFFFFFFFF00000000000
000000FFFFFFFFFFF00000000000
0000FFF00000FFF0FFF000000000
0001FFE00001FFE1FFE000000000
0001FFE00001FFE1FFE000000000
0001FFE00001FFE1FFE000000000
0003FFC00003FFC3FFC000000000
0003FFC00003FFC3FFC000000000
0003FFC00003FFC3FFC000000000
0007FF800007FF87FF8000000000
0007FF8007FF8007FF8000000000
0007FF8007FF8007FF8000000000
000FFF000FFF000FFF0000000000
000FFF000FFF000FFF0000000000
000FFF000FFF000FFF0000000000
001FFE001FFE001FFE0000000000
001FFE001FFE001FFE0000000000
001FFE001FFE001FFE0000000000
003FFC3FFC00003FFC0000000000
003FFC3FFC00003FFC0000000000
003FFC3FFC00003FFC0000000000
007FF87FF800007FF80000000000
007FF87FF800007FF80000000000
007FF87FF800007FF80000000000
00FFF0FFF00000FFF00000000000
00FFF0FFF00000FFF00000000000
0000FFFFFFFFFFF0000000000000
0001FFFFFFFFFFE0000000000000
0001FFFFFFFFFFE0000000000000
0001FFFFFFFFFFE0000000000000
0003FFFFFFFFFFC0000000000000
0003FFFFFFFFFFC0000000000000
0003FFFFFFFFFFC0000000000000
0007FFFFFFFFFF80000000000000
07FF800000000000000000000000
07FF800000000000000000000000
0FFF000000000000000000000000
0FFF000000000000000000000000
0FFF000000000000000000000000
1FFE000000000000000000000000
1FFE000000000000000000000000
1FFE000000000000000000000000
0000000000000000000000000000
0000000000000000000000000000
0000000000000000000000000000
0000000000000000000000000000
0000000000000000000000000000
0000000000000000000000000000
0000000000000000000000000000
0000000000000000000000000000
ENDCHAR
STARTCHAR U+0153
ENCODING 339
SWIDTH 1000 0
DWIDTH 80 0
BBX 106 80 -13 -16
BITMAP
0000000000000000000000000000
0000000000000000000000000000
0000000000000000000000000000
0000000000000000000000000000
0000000000000000000000000000
0000000000000000000000000000
0000000000000000000000000000
0000000000000000000000000000
0000000000000000000000000000
0000000000000000000000000000
0000000000000000000000000000
0000000000000000000000000000
0000000000000000000000000000
0000000000000000000000000000
0000000000000000000000000000
0000000000000000000000000000
0000000000000000000000000000
0000000000000000000000000000
0000000000000000000000000000
0000000000000000000000000000
0000000000000000000000000000
0000000000000000000000000000
0000000000000000000000000000
0000000000000000000000000000
0000003FFFFC3FFFFC0000000000
0000003FFFFC3FFFFC0000000000
0000003FFFFC3FFFFC0000000000
0000007FFFF87FFFF80000000000
0000007FFFF87FFFF80000000000
0000007FFFF87FFFF80000000000
000000FFFFF0FFFFF00000000000
000000FFFFF0FFFFF00000000000
0000FFF000FFF000FFF000000000
0001FFE001FFE001FFE000000000
0001FFE001FFE001FFE000000000
0001FFE001FFE001FFE000000000
0003FFC003FFC003FFC000000000
0003FFC003FFC003FFC000000000
0003FFC003FFC003FFC000000000
0007FF8007FF8007FF8000000000
0007FF8007FFFFFFFF8000000000
0007FF8007FFFFFFFF8000000000
000FFF000FFFFFFFFF0000000000
000FFF000FFFFFFFFF0000000000
000FFF000FFFFFFFFF0000000000
001FFE001FFFFFFFFE0000000000
001FFE001FFFFFFFFE0000000000
001FFE001FFFFFFFFE0000000000
003FFC003FFC0000000000000000
003FFC003FFC0000000000000000
003FFC003FFC0000000000000000
007FF8007FF80000000000000000
007FF8007FF80000000000000000
007FF8007FF80000000000000000
00FFF000FFF00000000000000000
00FFF000FFF00000000000000000
0000FFFFF0FFFFFFF00000000000
0001FFFFE1FFFFFFE00000000000
0001FFFFE1FFFFFFE00000000000
0001FFFFE1FFFFFFE00000000000
0003FFFFC3FFFFFFC00000000000
0003FFFFC3FFFFFFC00000000000
0003FFFFC3FFFFFFC00000000000
0007FFFF87FFFFFF800000000000
0000000000000000000000000000
0000000000000000000000000000
0000000000000000000000000000
0000000000000000000000000000
0000000000000000000000000000
0000000000000000000000000000
0000000000000000000000000000
0000000000000000000000000000
0000000000000000000000000000
0000000000000000000000000000
0000000000000000000000000000
0000000000000000000000000000
0000000000000000000000000000
0000000000000000000000000000
0000000000000000000000000000
0000000000000000000000000000
ENDCHAR
STARTCHAR U+00F6
ENCODING 246
SWIDTH 1000 0
DWIDTH 80 0
BBX 106 80 -13 -16
BITMAP
0000000000000000000000000000
0000000000000000000000000000
0000000000000000000000000000
0000000000000000000000000000
0000000000000000000000000000
0000000000000000000000000000
0000000000000000000000000000
0000000000000000000000000000
00000000FFF00000FFF000000000
00000001FFE00001FFE000000000
00000001FFE00001FFE000000000
00000001FFE00001FFE000000000
00000003FFC00003FFC000000000
00000003FFC00003FFC000000000
00000003FFC00003FFC000000000
00000007FF800007FF8000000000
0000000000000000000000000000
0000000000000000000000000000
0000000000000000000000000000
0000000000000000000000000000
0000000000000000000000000000
0000000000000000000000000000
0000000000000000000000000000
0000000000000000000000000000
0000003FFFFFFFFFFC0000000000
0000003FFFFFFFFFFC0000000000
0000003FFFFFFFFFFC0000000000
0000007FFFFFFFFFF80000000000
0000007FFFFFFFFFF80000000000
0000007FFFFFFFFFF80000000000
000000FFFFFFFFFFF00000000000
000000FFFFFFFFFFF00000000000
0000FFF000000000FFF000000000
0001FFE000000001FFE000000000
0001FFE000000001FFE000000000
0001FFE000000001FFE000000000
0003FFC000000003FFC000000000
0003FFC000000003FFC000000000
0003FFC000000003FFC000000000
0007FF8000000007FF8000000000
0007FF8000000007FF8000000000
0007FF8000000007FF8000000000
000FFF000000000FFF0000000000
000FFF000000000FFF0000000000
000FFF000000000FFF0000000000
001FFE000000001FFE0000000000
001FFE000000001FFE0000000000
001FFE000000001FFE0000000000
003FFC000000003FFC0000000000
003FFC000000003FFC0000000000
003FFC000000003FFC0000000000
007FF8000000007FF80000000000
007FF8000000007FF80000000000
007FF8000000007FF80000000000
00FFF000000000FFF00000000000
00FFF000000000FFF00000000000
0000FFFFFFFFFFF0000000000000
0001FFFFFFFFFFE0000000000000
0001FFFFFFFFFFE0000000000000
0001FFFFFFFFFFE0000000000000
0003FFFFFFFFFFC0000000000000
0003FFFFFFFFFFC0000000000000
0003FFFFFFFFFFC0000000000000
0007FFFFFFFFFF80000000000000
0000000000000000000000000000
0000000000000000000000000000
0000000000000000000000000000
0000000000000000000000000000
0000000000000000000000000000
0000000000000000000000000000
0000000000000000000000000000
0000000000000000000000000000
0000000000000000000000000000
0000000000000000000000000000
0000000000000000000000000000
0000000000000000000000000000
0000000000000000000000000000
0000000000000000000000000000
0000000000000000000000000000
0000000000000000000000000000
ENDCHAR
STARTCHAR U+00F5
ENCODING 245
SWIDTH 1000 0
DWIDTH 80 0
BBX 106 80 -13 -16
BITMAP
000000003FFFFC003FFC00000000
000000003FFFFC003FFC00000000
000000003FFFFC003FFC00000000
000000007FFFF8007FF800000000
000000007FFFF8007FF800000000
000000007FFFF8007FF800000000
00000000FFFFF000FFF000000000
00000000FFFFF000FFF000000000
000000FFF000FFFFF00000000000
000001FFE001FFFFE00000000000
000001FFE001FFFFE00000000000
000001FFE001FFFFE00000000000
000003FFC003FFFFC00000000000
000003FFC003FFFFC00000000000
000003FFC003FFFFC00000000000
000007FF8007FFFF800000000000
0000000000000000000000000000
0000000000000000000000000000
0000000000000000000000000000
0000000000000000000000000000
0000000000000000000000000000
0000000000000000000000000000
0000000000000000000000000000
0000000000000000000000000000
0000003FFFFFFFFFFC0000000000
0000003FFFFFFFFFFC0000000000
0000003FFFFFFFFFFC0000000000
0000007FFFFFFFFFF80000000000
0000007FFFFFFFFFF80000000000
0000007FFFFFFFFFF80000000000
000000FFFFFFFFFFF00000000000
000000FFFFFFFFFFF00000000000
0000FFF000000000FFF000000000
0001FFE000000001FFE000000000
0001FFE000000001FFE000000000
0001FFE000000001FFE000000000
0003FFC000000003FFC000000000
0003FFC000000003FFC000000000
0003FFC000000003FFC000000000
0007FF8000000007FF8000000000
0007FF8000000007FF8000000000
0007FF8000000007FF8000000000
000FFF000000000FFF0000000000
000FFF000000000FFF0000000000
000FFF000000000FFF0000000000
001FFE000000001FFE0000000000
001FFE000000001FFE0000000000
001FFE000000001FFE0000000000
003FFC000000003FFC0000000000
003FFC000000003FFC0000000000
003FFC000000003FFC0000000000
007FF8000000007FF80000000000
007FF8000000007FF80000000000
007FF8000000007FF80000000000
00FFF000000000FFF00000000000
00FFF000000000FFF00000000000
0000FFFFFFFFFFF0000000000000
0001FFFFFFFFFFE0000000000000
0001FFFFFFFFFFE0000000000000
0001FFFFFFFFFFE0000000000000
0003FFFFFFFFFFC0000000000000
0003FFFFFFFFFFC0000000000000
0003FFFFFFFFFFC0000000000000
0007FFFFFFFFFF80000000000000
0000000000000000000000000000
0000000000000000000000000000
0000000000000000000000000000
0000000000000000000000000000
0000000000000000000000000000
0000000000000000000000000000
0000000000000000000000000000
0000000000000000000000000000
0000000000000000000000000000
0000000000000000000000000000
0000000000000000000000000000
0000000000000000000000000000
0000000000000000000000000000
0000000000000000000000000000
0000000000000000000000000000
0000000000000000000000000000
ENDCHAR
STARTCHAR U+00F4
ENCODING 244
SWIDTH 1000 0
DWIDTH 80 0
BBX 106 80 -13 -16
BITMAP
00000000003FFFFFFC0000000000
00000000003FFFFFFC0000000000
00000000003FFFFFFC0000000000
00000000007FFFFFF80000000000
00000000007FFFFFF80000000000
00000000007FFFFFF80000000000
0000000000FFFFFFF00000000000
0000000000FFFFFFF00000000000
00000000FFF00000FFF000000000
00000001FFE00001FFE000000000
00000001FFE00001FFE000000000
00000001FFE00001FFE000000000
00000003FFC00003FFC000000000
00000003FFC00003FFC000000000
00000003FFC00003FFC000000000
00000007FF800007FF8000000000
0000000000000000000000000000
0000000000000000000000000000
0000000000000000000000000000
0000000000000000000000000000
0000000000000000000000000000
0000000000000000000000000000
0000000000000000000000000000
0000000000000000000000000000
0000003FFFFFFFFFFC0000000000
0000003FFFFFFFFFFC0000000000
0000003FFFFFFFFFFC0000000000
0000007FFFFFFFFFF80000000000
0000007FFFFFFFFFF80000000000
0000007FFFFFFFFFF80000000000
000000FFFFFFFFFFF00000000000
000000FFFFFFFFFFF00000000000
0000FFF000000000FFF000000000
0001FFE000000001FFE000000000
0001FFE000000001FFE000000000
0001FFE000000001FFE000000000
0003FFC000000003FFC000000000
0003FFC000000003FFC000000000
0003FFC000000003FFC000000000
0007FF8000000007FF8000000000
0007FF8000000007FF8000000000
0007FF8000000007FF8000000000
000FFF000000000FFF0000000000
000FFF000000000FFF0000000000
000FFF000000000FFF0000000000
001FFE000000001FFE0000000000
001FFE000000001FFE0000000000
001FFE000000001FFE0000000000
003FFC000000003FFC0000000000
003FFC000000003FFC0000000000
003FFC000000003FFC0000000000
007FF8000000007FF80000000000
007FF8000000007FF80000000000
007FF8000000007FF80000000000
00FFF000000000FFF00000000000
00FFF000000000FFF00000000000
0000FFFFFFFFFFF0000000000000
0001FFFFFFFFFFE0000000000000
0001FFFFFFFFFFE0000000000000
0001FFFFFFFFFFE0000000000000
0003FFFFFFFFFFC0000000000000
0003FFFFFFFFFFC0000000000000
0003FFFFFFFFFFC0000000000000
0007FFFFFFFFFF80000000000000
0000000000000000000000000000
0000000000000000000000000000
0000000000000000000000000000
0000000000000000000000000000
0000000000000000000000000000
0000000000000000000000000000
0000000000000000000000000000
0000000000000000000000000000
0000000000000000000000000000
0000000000000000000000000000
0000000000000000000000000000
0000000000000000000000000000
0000000000000000000000000000
0000000000000000000000000000
0000000000000000000000000000
0000000000000000000000000000
ENDCHAR
STARTCHAR U+00F3
ENCODING 243
SWIDTH 1000 0
DWIDTH 80 0
BBX 106 80 -13 -16
BITMAP
0000000000000000000000000000
0000000000000000000000000000
0000000000000000000000000000
0000000000000000000000000000
0000000000000000000000000000
0000000000000000000000000000
0000000000000000000000000000
0000000000000000000000000000
000000000000FFFFF00000000000
000000000001FFFFE00000000000
000000000001FFFFE00000000000
000000000001FFFFE00000000000
000000000003FFFFC00000000000
000000000003FFFFC00000000000
000000000003FFFFC00000000000
000000000007FFFF800000000000
00000007FFFF8000000000000000
00000007FFFF8000000000000000
0000000FFFFF0000000000000000
0000000FFFFF0000000000000000
0000000FFFFF0000000000000000
0000001FFFFE0000000000000000
0000001FFFFE0000000000000000
0000001FFFFE0000000000000000
0000003FFFFFFFFFFC0000000000
0000003FFFFFFFFFFC0000000000
0000003FFFFFFFFFFC0000000000
0000007FFFFFFFFFF80000000000
0000007FFFFFFFFFF80000000000
0000007FFFFFFFFFF80000000000
000000FFFFFFFFFFF00000000000
000000FFFFFFFFFFF00000000000
0000FFF000000000FFF000000000
0001FFE000000001FFE000000000
0001FFE000000001FFE000000000
0001FFE000000001FFE000000000
0003FFC000000003FFC000000000
0003FFC000000003FFC000000000
0003FFC000000003FFC000000000
0007FF8000000007FF8000000000
0007FF8000000007FF8000000000
0007FF8000000007FF8000000000
000FFF000000000FFF0000000000
000FFF000000000FFF0000000000
000FFF000000000FFF0000000000
001FFE000000001FFE0000000000
001FFE000000001FFE0000000000
001FFE000000001FFE0000000000
003FFC000000003FFC0000000000
003FFC000000003FFC0000000000
003FFC000000003FFC0000000000
007FF8000000007FF80000000000
007FF8000000007FF80000000000
007FF8000000007FF80000000000
00FFF000000000FFF00000000000
00FFF000000000FFF00000000000
0000FFFFFFFFFFF0000000000000
0001FFFFFFFFFFE0000000000000
0001FFFFFFFFFFE0000000000000
0001FFFFFFFFFFE0000000000000
0003FFFFFFFFFFC0000000000000
0003FFFFFFFFFFC0000000000000
0003FFFFFFFFFFC0000000000000
0007FFFFFFFFFF80000000000000
0000000000000000000000000000
0000000000000000000000000000
0000000000000000000000000000
0000000000000000000000000000
0000000000000000000000000000
0000000000000000000000000000
0000000000000000000000000000
0000000000000000000000000000
0000000000000000000000000000
0000000000000000000000000000
0000000000000000000000000000
0000000000000000000000000000
0000000000000000000000000000
0000000000000000000000000000
0000000000000000000000000000
0000000000000000000000000000
ENDCHAR
STARTCHAR U+00F2
ENCODING 242
SWIDTH 1000 0
DWIDTH 80 0
BBX 106 80 -13 -16
BITMAP
0000000000000000000000000000
0000000000000000000000000000
0000000000000000000000000000
0000000000000000000000000000
0000000000000000000000000000
0000000000000000000000000000
0000000000000000000000000000
0000000000000000000000000000
0000000000FFFFF0000000000000
0000000001FFFFE0000000000000
0000000001FFFFE0000000000000
0000000001FFFFE0000000000000
0000000003FFFFC0000000000000
0000000003FFFFC0000000000000
0000000003FFFFC0000000000000
0000000007FFFF80000000000000
00000000000007FFFF8000000000
00000000000007FFFF8000000000
0000000000000FFFFF0000000000
0000000000000FFFFF0000000000
0000000000000FFFFF0000000000
0000000000001FFFFE0000000000
0000000000001FFFFE0000000000
0000000000001FFFFE0000000000
0000003FFFFFFFFFFC0000000000
0000003FFFFFFFFFFC0000000000
0000003FFFFFFFFFFC0000000000
0000007FFFFFFFFFF80000000000
0000007FFFFFFFFFF80000000000
0000007FFFFFFFFFF80000000000
000000FFFFFFFFFFF00000000000
000000FFFFFFFFFFF00000000000
0000FFF000000000FFF000000000
0001FFE000000001FFE000000000
0001FFE000000001FFE000000000
0001FFE000000001FFE000000000
0003FFC000000003FFC000000000
0003FFC000000003FFC000000000
0003FFC000000003FFC000000000
0007FF8000000007FF8000000000
0007FF8000000007FF8000000000
0007FF8000000007FF8000000000
000FFF000000000FFF0000000000
000FFF000000000FFF0000000000
000FFF000000000FFF0000000000
001FFE000000001FFE0000000000
001FFE000000001FFE0000000000
001FFE000000001FFE0000000000
003FFC000000003FFC0000000000
003FFC000000003FFC0000000000
003FFC000000003FFC0000000000
007FF8000000007FF80000000000
007FF8000000007FF80000000000
007FF8000000007FF80000000000
00FFF000000000FFF00000000000
00FFF000000000FFF00000000000
0000FFFFFFFFFFF0000000000000
0001FFFFFFFFFFE0000000000000
0001FFFFFFFFFFE0000000000000
0001FFFFFFFFFFE0000000000000
0003FFFFFFFFFFC0000000000000
0003FFFFFFFFFFC0000000000000
0003FFFFFFFFFFC0000000000000
0007FFFFFFFFFF80000000000000
0000000000000000000000000000
0000000000000000000000000000
0000000000000000000000000000
0000000000000000000000000000
0000000000000000000000000000
0000000000000000000000000000
0000000000000000000000000000
0000000000000000000000000000
0000000000000000000000000000
0000000000000000000000000000
0000000000000000000000000000
0000000000000000000000000000
0000000000000000000000000000
0000000000000000000000000000
0000000000000000000000000000
0000000000000000000000000000
ENDCHAR
STARTCHAR U+00F1
ENCODING 241
SWIDTH 1000 0
DWIDTH 80 0
BBX 106 80 -13 -16
BITMAP
000000003FFFFC003FFC00000000
000000003FFFFC003FFC00000000
000000003FFFFC003FFC00000000
000000007FFFF8007FF800000000
000000007FFFF8007FF800000000
000000007FFFF8007FF800000000
00000000FFFFF000FFF000000000
00000000FFFFF000FFF000000000
000000FFF000FFFFF00000000000
000001FFE001FFFFE00000000000
000001FFE001FFFFE00000000000
000001FFE001FFFFE00000000000
000003FFC003FFFFC00000000000
000003FFC003FFFFC00000000000
000003FFC003FFFFC00000000000
000007FF8007FFFF800000000000
0000000000000000000000000000
0000000000000000000000000000
0000000000000000000000000000
0000000000000000000000000000
0000000000000000000000000000
0000000000000000000000000000
0000000000000000000000000000
0000000000000000000000000000
00003FFC3FFFFFFFFC0000000000
00003FFC3FFFFFFFFC0000000000
00003FFC3FFFFFFFFC0000000000
00007FF87FFFFFFFF80000000000
00007FF87FFFFFFFF80000000000
00007FF87FFFFFFFF80000000000
0000FFF0FFFFFFFFF00000000000
0000FFF0FFFFFFFFF00000000000
0000FFFFF0000000FFF000000000
0001FFFFE0000001FFE000000000
0001FFFFE0000001FFE000000000
0001FFFFE0000001FFE000000000
0003FFFFC0000003FFC000000000
0003FFFFC0000003FFC000000000
0003FFFFC0000003FFC000000000
0007FFFF80000007FF8000000000
0007FF8000000007FF8000000000
0007FF8000000007FF8000000000
000FFF000000000FFF0000000000
000FFF000000000FFF0000000000
000FFF000000000FFF0000000000
001FFE000000001FFE0000000000
001FFE000000001FFE0000000000
001FFE000000001FFE0000000000
003FFC000000003FFC0000000000
003FFC000000003FFC0000000000
003FFC000000003FFC0000000000
007FF8000000007FF80000000000
007FF8000000007FF80000000000
007FF8000000007FF80000000000
00FFF000000000FFF00000000000
00FFF000000000FFF00000000000
00FFF000000000FFF00000000000
01FFE000000001FFE00000000000
01FFE000000001FFE00000000000
01FFE000000001FFE00000000000
03FFC000000003FFC00000000000
03FFC000000003FFC00000000000
03FFC000000003FFC00000000000
07FF8000000007FF800000000000
0000000000000000000000000000
0000000000000000000000000000
0000000000000000000000000000
0000000000000000000000000000
0000000000000000000000000000
0000000000000000000000000000
0000000000000000000000000000
0000000000000000000000000000
0000000000000000000000000000
0000000000000000000000000000
0000000000000000000000000000
0000000000000000000000000000
0000000000000000000000000000
0000000000000000000000000000
0000000000000000000000000000
0000000000000000000000000000
ENDCHAR
STARTCHAR U+00F0
ENCODING 240
SWIDTH 1000 0
DWIDTH 80 0
BBX 106 80 -13 -16
BITMAP
0000000000003FFC003FFC000000
0000000000003FFC003FFC000000
0000000000003FFC003FFC000000
0000000000007FF8007FF8000000
0000000000007FF8007FF8000000
0000000000007FF8007FF8000000
000000000000FFF000FFF0000000
000000000000FFF000FFF0000000
00000000000000FFFFF000000000
00000000000001FFFFE000000000
00000000000001FFFFE000000000
00000000000001FFFFE000000000
00000000000003FFFFC000000000
00000000000003FFFFC000000000
00000000000003FFFFC000000000
00000000000007FFFF8000000000
000000000007FF8007FF80000000
000000000007FF8007FF80000000
00000000000FFF000FFF00000000
00000000000FFF000FFF00000000
00000000000FFF000FFF00000000
00000000001FFE001FFE00000000
00000000001FFE001FFE00000000
00000000001FFE001FFE00000000
0000003FFFFFFFFC3FFC00000000
0000003FFFFFFFFC3FFC00000000
0000003FFFFFFFFC3FFC00000000
0000007FFFFFFFF87FF800000000
0000007FFFFFFFF87FF800000000
0000007FFFFFFFF87FF800000000
000000FFFFFFFFF0FFF000000000
000000FFFFFFFFF0FFF000000000
0000FFF0000000FFFFF000000000
0001FFE0000001FFFFE000000000
0001FFE0000001FFFFE000000000
0001FFE0000001FFFFE000000000
0003FFC0000003FFFFC000000000
0003FFC0000003FFFFC000000000
0003FFC0000003FFFFC000000000
0007FF80000007FFFF8000000000
0007FF8000000007FF8000000000
0007FF8000000007FF8000000000
000FFF000000000FFF0000000000
000FFF000000000FFF0000000000
000FFF000000000FFF0000000000
001FFE000000001FFE0000000000
001FFE000000001FFE0000000000
001FFE000000001FFE0000000000
003FFC0000003FFC000000000000
003FFC0000003FFC000000000000
003FFC0000003FFC000000000000
007FF80000007FF8000000000000
007FF80000007FF8000000000000
007FF80000007FF8000000000000
00FFF0000000FFF0000000000000
00FFF0000000FFF0000000000000
0000FFFFFFFFF000000000000000
0001FFFFFFFFE000000000000000
0001FFFFFFFFE000000000000000
0001FFFFFFFFE000000000000000
0003FFFFFFFFC000000000000000
0003FFFFFFFFC000000000000000
0003FFFFFFFFC000000000000000
0007FFFFFFFF8000000000000000
0000000000000000000000000000
0000000000000000000000000000
0000000000000000000000000000
0000000000000000000000000000
0000000000000000000000000000
0000000000000000000000000000
0000000000000000000000000000
0000000000000000000000000000
0000000000000000000000000000
0000000000000000000000000000
0000000000000000000000000000
0000000000000000000000000000
0000000000000000000000000000
0000000000000000000000000000
0000000000000000000000000000
0000000000000000000000000000
ENDCHAR
STARTCHAR U+00EF
ENCODING 239
SWIDTH 1000 0
DWIDTH 80 0
BBX 106 80 -13 -16
BITMAP
0000000000000000000000000000
0000000000000000000000000000
0000000000000000000000000000
0000000000000000000000000000
0000000000000000000000000000
0000000000000000000000000000
0000000000000000000000000000
0000000000000000000000000000
00000000FFF00000FFF000000000
00000001FFE00001FFE000000000
00000001FFE00001FFE000000000
00000001FFE00001FFE000000000
00000003FFC00003FFC000000000
00000003FFC00003FFC000000000
00000003FFC00003FFC000000000
00000007FF800007FF8000000000
0000000000000000000000000000
0000000000000000000000000000
0000000000000000000000000000
0000000000000000000000000000
0000000000000000000000000000
0000000000000000000000000000
0000000000000000000000000000
0000000000000000000000000000
000000003FFFFC00000000000000
000000003FFFFC00000000000000
000000003FFFFC00000000000000
000000007FFFF800000000000000
000000007FFFF800000000000000
000000007FFFF800000000000000
00000000FFFFF000000000000000
00000000FFFFF000000000000000
0000000000FFF000000000000000
0000000001FFE000000000000000
0000000001FFE000000000000000
0000000001FFE000000000000000
0000000003FFC000000000000000
0000000003FFC000000000000000
0000000003FFC000000000000000
0000000007FF8000000000000000
0000000007FF8000000000000000
0000000007FF8000000000000000
000000000FFF0000000000000000
000000000FFF0000000000000000
000000000FFF0000000000000000
000000001FFE0000000000000000
000000001FFE0000000000000000
000000001FFE0000000000000000
000000003FFC0000000000000000
000000003FFC0000000000000000
000000003FFC0000000000000000
000000007FF80000000000000000
000000007FF80000000000000000
000000007FF80000000000000000
00000000FFF00000000000000000
00000000FFF00000000000000000
0000FFFFFFFFFFF0000000000000
0001FFFFFFFFFFE0000000000000
0001FFFFFFFFFFE0000000000000
0001FFFFFFFFFFE0000000000000
0003FFFFFFFFFFC0000000000000
0003FFFFFFFFFFC0000000000000
0003FFFFFFFFFFC0000000000000
0007FFFFFFFFFF80000000000000
0000000000000000000000000000
0000000000000000000000000000
0000000000000000000000000000
0000000000000000000000000000
0000000000000000000000000000
0000000000000000000000000000
0000000000000000000000000000
0000000000000000000000000000
0000000000000000000000000000
0000000000000000000000000000
0000000000000000000000000000
0000000000000000000000000000
0000000000000000000000000000
0000000000000000000000000000
0000000000000000000000000000
0000000000000000000000000000
ENDCHAR
STARTCHAR U+00EE
ENCODING 238
SWIDTH 1000 0
DWIDTH 80 0
BBX 106 80 -13 -16
BITMAP
00000000003FFFFFFC0000000000
00000000003FFFFFFC0000000000
00000000003FFFFFFC0000000000
00000000007FFFFFF80000000000
00000000007FFFFFF80000000000
00000000007FFFFFF80000000000
0000000000FFFFFFF00000000000
0000000000FFFFFFF00000000000
00000000FFF00000FFF000000000
00000001FFE00001FFE000000000
00000001FFE00001FFE000000000
00000001FFE00001FFE000000000
00000003FFC00003FFC000000000
00000003FFC00003FFC000000000
00000003FFC00003FFC000000000
00000007FF800007FF8000000000
0000000000000000000000000000
0000000000000000000000000000
0000000000000000000000000000
0000000000000000000000000000
0000000000000000000000000000
0000000000000000000000000000
0000000000000000000000000000
0000000000000000000000000000
000000003FFFFC00000000000000
000000003FFFFC00000000000000
000000003FFFFC00000000000000
000000007FFFF800000000000000
000000007FFFF800000000000000
000000007FFFF800000000000000
00000000FFFFF000000000000000
00000000FFFFF000000000000000
0000000000FFF000000000000000
0000000001FFE000000000000000
0000000001FFE000000000000000
0000000001FFE000000000000000
0000000003FFC000000000000000
0000000003FFC000000000000000
0000000003FFC000000000000000
0000000007FF8000000000000000
0000000007FF8000000000000000
0000000007FF8000000000000000
000000000FFF0000000000000000
000000000FFF0000000000000000
000000000FFF0000000000000000
000000001FFE0000000000000000
000000001FFE0000000000000000
000000001FFE0000000000000000
000000003FFC0000000000000000
000000003FFC0000000000000000
000000003FFC0000000000000000
000000007FF80000000000000000
000000007FF80000000000000000
000000007FF80000000000000000
00000000FFF00000000000000000
00000000FFF00000000000000000
0000FFFFFFFFFFF0000000000000
0001FFFFFFFFFFE0000000000000
0001FFFFFFFFFFE0000000000000
0001FFFFFFFFFFE0000000000000
0003FFFFFFFFFFC0000000000000
0003FFFFFFFFFFC0000000000000
0003FFFFFFFFFFC0000000000000
0007FFFFFFFFFF80000000000000
0000000000000000000000000000
0000000000000000000000000000
0000000000000000000000000000
0000000000000000000000000000
0000000000000000000000000000
0000000000000000000000000000
0000000000000000000000000000
0000000000000000000000000000
0000000000000000000000000000
0000000000000000000000000000
0000000000000000000000000000
0000000000000000000000000000
0000000000000000000000000000
0000000000000000000000000000
0000000000000000000000000000
0000000000000000000000000000
ENDCHAR
STARTCHAR U+00ED
ENCODING 237
SWIDTH 1000 0
DWIDTH 80 0
BBX 106 80 -13 -16
BITMAP
0000000000000000000000000000
0000000000000000000000000000
0000000000000000000000000000
0000000000000000000000000000
0000000000000000000000000000
0000000000000000000000000000
0000000000000000000000000000
0000000000000000000000000000
000000000000FFFFF00000000000
000000000001FFFFE00000000000
000000000001FFFFE00000000000
000000000001FFFFE00000000000
000000000003FFFFC00000000000
000000000003FFFFC00000000000
000000000003FFFFC00000000000
000000000007FFFF800000000000
00000007FFFF8000000000000000
00000007FFFF8000000000000000
0000000FFFFF0000000000000000
0000000FFFFF0000000000000000
0000000FFFFF0000000000000000
0000001FFFFE0000000000000000
0000001FFFFE0000000000000000
0000001FFFFE0000000000000000
000000003FFFFC00000000000000
000000003FFFFC00000000000000
000000003FFFFC00000000000000
000000007FFFF800000000000000
000000007FFFF800000000000000
000000007FFFF800000000000000
00000000FFFFF000000000000000
00000000FFFFF000000000000000
0000000000FFF000000000000000
0000000001FFE000000000000000
0000000001FFE000000000000000
0000000001FFE000000000000000
0000000003FFC000000000000000
0000000003FFC000000000000000
0000000003FFC000000000000000
0000000007FF8000000000000000
0000000007FF8000000000000000
0000000007FF8000000000000000
000000000FFF0000000000000000
000000000FFF0000000000000000
000000000FFF0000000000000000
000000001FFE0000000000000000
000000001FFE0000000000000000
000000001FFE0000000000000000
000000003FFC0000000000000000
000000003FFC0000000000000000
000000003FFC0000000000000000
000000007FF80000000000000000
000000007FF80000000000000000
000000007FF80000000000000000
00000000FFF00000000000000000
00000000FFF00000000000000000
0000FFFFFFFFFFF0000000000000
0001FFFFFFFFFFE0000000000000
0001FFFFFFFFFFE0000000000000
0001FFFFFFFFFFE0000000000000
0003FFFFFFFFFFC0000000000000
0003FFFFFFFFFFC0000000000000
0003FFFFFFFFFFC0000000000000
0007FFFFFFFFFF80000000000000
0000000000000000000000000000
0000000000000000000000000000
0000000000000000000000000000
0000000000000000000000000000
0000000000000000000000000000
0000000000000000000000000000
0000000000000000000000000000
0000000000000000000000000000
0000000000000000000000000000
0000000000000000000000000000
0000000000000000000000000000
0000000000000000000000000000
0000000000000000000000000000
0000000000000000000000000000
0000000000000000000000000000
0000000000000000000000000000
ENDCHAR
STARTCHAR U+00EC
ENCODING 236
SWIDTH 1000 0
DWIDTH 80 0
BBX 106 80 -13 -16
BITMAP
0000000000000000000000000000
0000000000000000000000000000
0000000000000000000000000000
0000000000000000000000000000
0000000000000000000000000000
0000000000000000000000000000
0000000000000000000000000000
0000000000000000000000000000
00000000FFFFF000000000000000
00000001FFFFE000000000000000
00000001FFFFE000000000000000
00000001FFFFE000000000000000
00000003FFFFC000000000000000
00000003FFFFC000000000000000
00000003FFFFC000000000000000
00000007FFFF8000000000000000
000000000007FFFF800000000000
000000000007FFFF800000000000
00000000000FFFFF000000000000
00000000000FFFFF000000000000
00000000000FFFFF000000000000
00000000001FFFFE000000000000
00000000001FFFFE000000000000
00000000001FFFFE000000000000
000000003FFFFC00000000000000
000000003FFFFC00000000000000
000000003FFFFC00000000000000
000000007FFFF800000000000000
000000007FFFF800000000000000
000000007FFFF800000000000000
00000000FFFFF000000000000000
00000000FFFFF000000000000000
0000000000FFF000000000000000
0000000001FFE000000000000000
0000000001FFE000000000000000
0000000001FFE000000000000000
0000000003FFC000000000000000
0000000003FFC000000000000000
0000000003FFC000000000000000
0000000007FF8000000000000000
0000000007FF8000000000000000
0000000007FF8000000000000000
000000000FFF0000000000000000
000000000FFF0000000000000000
000000000FFF0000000000000000
000000001FFE0000000000000000
000000001FFE0000000000000000
000000001FFE0000000000000000
000000003FFC0000000000000000
000000003FFC0000000000000000
000000003FFC0000000000000000
000000007FF80000000000000000
000000007FF80000000000000000
000000007FF80000000000000000
00000000FFF00000000000000000
00000000FFF00000000000000000
0000FFFFFFFFFFF0000000000000
0001FFFFFFFFFFE0000000000000
0001FFFFFFFFFFE0000000000000
0001FFFFFFFFFFE0000000000000
0003FFFFFFFFFFC0000000000000
0003FFFFFFFFFFC0000000000000
0003FFFFFFFFFFC0000000000000
0007FFFFFFFFFF80000000000000
0000000000000000000000000000
0000000000000000000000000000
0000000000000000000000000000
0000000000000000000000000000
0000000000000000000000000000
0000000000000000000000000000
0000000000000000000000000000
0000000000000000000000000000
0000000000000000000000000000
0000000000000000000000000000
0000000000000000000000000000
0000000000000000000000000000
0000000000000000000000000000
0000000000000000000000000000
0000000000000000000000000000
0000000000000000000000000000
ENDCHAR
STARTCHAR U+00EB
ENCODING 235
SWIDTH 1000 0
DWIDTH 80 0
BBX 106 80 -13 -16
BITMAP
0000000000000000000000000000
0000000000000000000000000000
0000000000000000000000000000
0000000000000000000000000000
0000000000000000000000000000
0000000000000000000000000000
0000000000000000000000000000
0000000000000000000000000000
00000000FFF00000FFF000000000
00000001FFE00001FFE000000000
00000001FFE00001FFE000000000
00000001FFE00001FFE000000000
00000003FFC00003FFC000000000
00000003FFC00003FFC000000000
00000003FFC00003FFC000000000
00000007FF800007FF8000000000
0000000000000000000000000000
0000000000000000000000000000
0000000000000000000000000000
0000000000000000000000000000
0000000000000000000000000000
0000000000000000000000000000
0000000000000000000000000000
0000000000000000000000000000
0000003FFFFFFFFFFC0000000000
0000003FFFFFFFFFFC0000000000
0000003FFFFFFFFFFC0000000000
0000007FFFFFFFFFF80000000000
0000007FFFFFFFFFF80000000000
0000007FFFFFFFFFF80000000000
000000FFFFFFFFFFF00000000000
000000FFFFFFFFFFF00000000000
0000FFF000000000FFF000000000
0001FFE000000001FFE000000000
0001FFE000000001FFE000000000
0001FFE000000001FFE000000000
0003FFC000000003FFC000000000
0003FFC000000003FFC000000000
0003FFC000000003FFC000000000
0007FF8000000007FF8000000000
0007FFFFFFFFFFFFFF8000000000
0007FFFFFFFFFFFFFF8000000000
000FFFFFFFFFFFFFFF0000000000
000FFFFFFFFFFFFFFF0000000000
000FFFFFFFFFFFFFFF0000000000
001FFFFFFFFFFFFFFE0000000000
001FFFFFFFFFFFFFFE0000000000
001FFFFFFFFFFFFFFE0000000000
003FFC0000000000000000000000
003FFC0000000000000000000000
003FFC0000000000000000000000
007FF80000000000000000000000
007FF80000000000000000000000
007FF80000000000000000000000
00FFF00000000000000000000000
00FFF00000000000000000000000
0000FFFFFFFFFFF0000000000000
0001FFFFFFFFFFE0000000000000
0001FFFFFFFFFFE0000000000000
0001FFFFFFFFFFE0000000000000
0003FFFFFFFFFFC0000000000000
0003FFFFFFFFFFC0000000000000
0003FFFFFFFFFFC0000000000000
0007FFFFFFFFFF80000000000000
0000000000000000000000000000
0000000000000000000000000000
0000000000000000000000000000
0000000000000000000000000000
0000000000000000000000000000
0000000000000000000000000000
0000000000000000000000000000
0000000000000000000000000000
0000000000000000000000000000
0000000000000000000000000000
0000000000000000000000000000
0000000000000000000000000000
0000000000000000000000000000
0000000000000000000000000000
0000000000000000000000000000
0000000000000000000000000000
ENDCHAR
STARTCHAR U+00EA
ENCODING 234
SWIDTH 1000 0
DWIDTH 80 0
BBX 106 80 -13 -16
BITMAP
00000000003FFFFFFC0000000000
00000000003FFFFFFC0000000000
00000000003FFFFFFC0000000000
00000000007FFFFFF80000000000
00000000007FFFFFF80000000000
00000000007FFFFFF80000000000
0000000000FFFFFFF00000000000
0000000000FFFFFFF00000000000
00000000FFF00000FFF000000000
00000001FFE00001FFE000000000
00000001FFE00001FFE000000000
00000001FFE00001FFE000000000
00000003FFC00003FFC000000000
00000003FFC00003FFC000000000
00000003FFC00003FFC000000000
00000007FF800007FF8000000000
0000000000000000000000000000
0000000000000000000000000000
0000000000000000000000000000
0000000000000000000000000000
0000000000000000000000000000
0000000000000000000000000000
0000000000000000000000000000
0000000000000000000000000000
0000003FFFFFFFFFFC0000000000
0000003FFFFFFFFFFC0000000000
0000003FFFFFFFFFFC0000000000
0000007FFFFFFFFFF80000000000
0000007FFFFFFFFFF80000000000
0000007FFFFFFFFFF80000000000
000000FFFFFFFFFFF00000000000
000000FFFFFFFFFFF00000000000
0000FFF000000000FFF000000000
0001FFE000000001FFE000000000
0001FFE000000001FFE000000000
0001FFE000000001FFE000000000
0003FFC000000003FFC000000000
0003FFC000000003FFC000000000
0003FFC000000003FFC000000000
0007FF8000000007FF8000000000
0007FFFFFFFFFFFFFF8000000000
0007FFFFFFFFFFFFFF8000000000
000FFFFFFFFFFFFFFF0000000000
000FFFFFFFFFFFFFFF0000000000
000FFFFFFFFFFFFFFF0000000000
001FFFFFFFFFFFFFFE0000000000
001FFFFFFFFFFFFFFE0000000000
001FFFFFFFFFFFFFFE0000000000
003FFC0000000000000000000000
003FFC0000000000000000000000
003FFC0000000000000000000000
007FF80000000000000000000000
007FF80000000000000000000000
007FF80000000000000000000000
00FFF00000000000000000000000
00FFF00000000000000000000000
0000FFFFFFFFFFF0000000000000
0001FFFFFFFFFFE0000000000000
0001FFFFFFFFFFE0000000000000
0001FFFFFFFFFFE0000000000000
0003FFFFFFFFFFC0000000000000
0003FFFFFFFFFFC0000000000000
0003FFFFFFFFFFC0000000000000
0007FFFFFFFFFF80000000000000
0000000000000000000000000000
0000000000000000000000000000
0000000000000000000000000000
0000000000000000000000000000
0000000000000000000000000000
0000000000000000000000000000
0000000000000000000000000000
0000000000000000000000000000
0000000000000000000000000000
0000000000000000000000000000
0000000000000000000000000000
0000000000000000000000000000
0000000000000000000000000000
0000000000000000000000000000
0000000000000000000000000000
0000000000000000000000000000
ENDCHAR
STARTCHAR U+00E9
ENCODING 233
SWIDTH 1000 0
DWIDTH 80 0
BBX 106 80 -13 -16
BITMAP
0000000000000000000000000000
0000000000000000000000000000
0000000000000000000000000000
0000000000000000000000000000
0000000000000000000000000000
0000000000000000000000000000
0000000000000000000000000000
0000000000000000000000000000
000000000000FFFFF00000000000
000000000001FFFFE00000000000
000000000001FFFFE00000000000
000000000001FFFFE00000000000
000000000003FFFFC00000000000
000000000003FFFFC00000000000
000000000003FFFFC00000000000
000000000007FFFF800000000000
00000007FFFF8000000000000000
00000007FFFF8000000000000000
0000000FFFFF0000000000000000
0000000FFFFF0000000000000000
0000000FFFFF0000000000000000
0000001FFFFE0000000000000000
0000001FFFFE0000000000000000
0000001FFFFE0000000000000000
0000003FFFFFFFFFFC0000000000
0000003FFFFFFFFFFC0000000000
0000003FFFFFFFFFFC0000000000
0000007FFFFFFFFFF80000000000
0000007FFFFFFFFFF80000000000
0000007FFFFFFFFFF80000000000
000000FFFFFFFFFFF00000000000
000000FFFFFFFFFFF00000000000
0000FFF000000000FFF000000000
0001FFE000000001FFE000000000
0001FFE000000001FFE000000000
0001FFE000000001FFE000000000
0003FFC000000003FFC000000000
0003FFC000000003FFC000000000
0003FFC000000003FFC000000000
0007FF8000000007FF8000000000
0007FFFFFFFFFFFFFF8000000000
0007FFFFFFFFFFFFFF8000000000
000FFFFFFFFFFFFFFF0000000000
000FFFFFFFFFFFFFFF0000000000
000FFFFFFFFFFFFFFF0000000000
001FFFFFFFFFFFFFFE0000000000
001FFFFFFFFFFFFFFE0000000000
001FFFFFFFFFFFFFFE0000000000
003FFC0000000000000000000000
003FFC0000000000000000000000
003FFC0000000000000000000000
007FF80000000000000000000000
007FF80000000000000000000000
007FF80000000000000000000000
00FFF00000000000000000000000
00FFF00000000000000000000000
0000FFFFFFFFFFF0000000000000
0001FFFFFFFFFFE0000000000000
0001FFFFFFFFFFE0000000000000
0001FFFFFFFFFFE0000000000000
0003FFFFFFFFFFC0000000000000
0003FFFFFFFFFFC0000000000000
0003FFFFFFFFFFC0000000000000
0007FFFFFFFFFF80000000000000
0000000000000000000000000000
0000000000000000000000000000
0000000000000000000000000000
0000000000000000000000000000
0000000000000000000000000000
0000000000000000000000000000
0000000000000000000000000000
0000000000000000000000000000
0000000000000000000000000000
0000000000000000000000000000
0000000000000000000000000000
0000000000000000000000000000
0000000000000000000000000000
0000000000000000000000000000
0000000000000000000000000000
0000000000000000000000000000
ENDCHAR
STARTCHAR U+00E8
ENCODING 232
SWIDTH 1000 0
DWIDTH 80 0
BBX 106 80 -13 -16
BITMAP
0000000000000000000000000000
0000000000000000000000000000
0000000000000000000000000000
0000000000000000000000000000
0000000000000000000000000000
0000000000000000000000000000
0000000000000000000000000000
0000000000000000000000000000
0000000000FFFFF0000000000000
0000000001FFFFE0000000000000
0000000001FFFFE0000000000000
0000000001FFFFE0000000000000
0000000003FFFFC0000000000000
0000000003FFFFC0000000000000
0000000003FFFFC0000000000000
0000000007FFFF80000000000000
00000000000007FFFF8000000000
00000000000007FFFF8000000000
0000000000000FFFFF0000000000
0000000000000FFFFF0000000000
0000000000000FFFFF0000000000
0000000000001FFFFE0000000000
0000000000001FFFFE0000000000
0000000000001FFFFE0000000000
0000003FFFFFFFFFFC0000000000
0000003FFFFFFFFFFC0000000000
0000003FFFFFFFFFFC0000000000
0000007FFFFFFFFFF80000000000
0000007FFFFFFFFFF80000000000
0000007FFFFFFFFFF80000000000
000000FFFFFFFFFFF00000000000
000000FFFFFFFFFFF00000000000
0000FFF000000000FFF000000000
0001FFE000000001FFE000000000
0001FFE000000001FFE000000000
0001FFE000000001FFE000000000
0003FFC000000003FFC000000000
0003FFC000000003FFC000000000
0003FFC000000003FFC000000000
0007FF8000000007FF8000000000
0007FFFFFFFFFFFFFF8000000000
0007FFFFFFFFFFFFFF8000000000
000FFFFFFFFFFFFFFF0000000000
000FFFFFFFFFFFFFFF0000000000
000FFFFFFFFFFFFFFF0000000000
001FFFFFFFFFFFFFFE0000000000
001FFFFFFFFFFFFFFE0000000000
001FFFFFFFFFFFFFFE0000000000
003FFC0000000000000000000000
003FFC0000000000000000000000
003FFC0000000000000000000000
007FF80000000000000000000000
007FF80000000000000000000000
007FF80000000000000000000000
00FFF00000000000000000000000
00FFF00000000000000000000000
0000FFFFFFFFFFF0000000000000
0001FFFFFFFFFFE0000000000000
0001FFFFFFFFFFE0000000000000
0001FFFFFFFFFFE0000000000000
0003FFFFFFFFFFC0000000000000
0003FFFFFFFFFFC0000000000000
0003FFFFFFFFFFC0000000000000
0007FFFFFFFFFF80000000000000
0000000000000000000000000000
0000000000000000000000000000
0000000000000000000000000000
0000000000000000000000000000
0000000000000000000000000000
0000000000000000000000000000
0000000000000000000000000000
0000000000000000000000000000
0000000000000000000000000000
0000000000000000000000000000
0000000000000000000000000000
0000000000000000000000000000
0000000000000000000000000000
0000000000000000000000000000
0000000000000000000000000000
0000000000000000000000000000
ENDCHAR
STARTCHAR U+00E7
ENCODING 231
SWIDTH 1000 0
DWIDTH 80 0
BBX 106 80 -13 -16
BITMAP
0000000000000000000000000000
0000000000000000000000000000
0000000000000000000000000000
0000000000000000000000000000
0000000000000000000000000000
0000000000000000000000000000
0000000000000000000000000000
0000000000000000000000000000
0000000000000000000000000000
0000000000000000000000000000
0000000000000000000000000000
0000000000000000000000000000
0000000000000000000000000000
0000000000000000000000000000
0000000000000000000000000000
0000000000000000000000000000
0000000000000000000000000000
0000000000000000000000000000
0000000000000000000000000000
0000000000000000000000000000
0000000000000000000000000000
0000000000000000000000000000
0000000000000000000000000000
0000000000000000000000000000
0000003FFFFFFFFFFC0000000000
0000003FFFFFFFFFFC0000000000
0000003FFFFFFFFFFC0000000000
0000007FFFFFFFFFF80000000000
0000007FFFFFFFFFF80000000000
0000007FFFFFFFFFF80000000000
000000FFFFFFFFFFF00000000000
000000FFFFFFFFFFF00000000000
0000FFF000000000FFF000000000
0001FFE000000001FFE000000000
0001FFE000000001FFE000000000
0001FFE000000001FFE000000000
0003FFC000000003FFC000000000
0003FFC000000003FFC000000000
0003FFC000000003FFC000000000
0007FF8000000007FF8000000000
0007FF8000000000000000000000
0007FF8000000000000000000000
000FFF0000000000000000000000
000FFF0000000000000000000000
000FFF0000000000000000000000
001FFE0000000000000000000000
001FFE0000000000000000000000
001FFE0000000000000000000000
003FFC000000003FFC0000000000
003FFC000000003FFC0000000000
003FFC000000003FFC0000000000
007FF8000000007FF80000000000
007FF8000000007FF80000000000
007FF8000000007FF80000000000
00FFF000000000FFF00000000000
00FFF000000000FFF00000000000
0000FFFFFFFFFFF0000000000000
0001FFFFFFFFFFE0000000000000
0001FFFFFFFFFFE0000000000000
0001FFFFFFFFFFE0000000000000
0003FFFFFFFFFFC0000000000000
0003FFFFFFFFFFC0000000000000
0003FFFFFFFFFFC0000000000000
0007FFFFFFFFFF80000000000000
0000000007FF8000000000000000
0000000007FF8000000000000000
000000000FFF0000000000000000
000000000FFF0000000000000000
000000000FFF0000000000000000
000000001FFE0000000000000000
000000001FFE0000000000000000
000000001FFE0000000000000000
00003FFFFFFC0000000000000000
00003FFFFFFC0000000000000000
00003FFFFFFC0000000000000000
00007FFFFFF80000000000000000
00007FFFFFF80000000000000000
00007FFFFFF80000000000000000
0000FFFFFFF00000000000000000
0000FFFFFFF00000000000000000
ENDCHAR
STARTCHAR U+00E6
ENCODING 230
SWIDTH 1000 0
DWIDTH 80 0
BBX 106 80 -13 -16
BITMAP
0000000000000000000000000000
0000000000000000000000000000
0000000000000000000000000000
0000000000000000000000000000
0000000000000000000000000000
0000000000000000000000000000
0000000000000000000000000000
0000000000000000000000000000
0000000000000000000000000000
0000000000000000000000000000
0000000000000000000000000000
0000000000000000000000000000
0000000000000000000000000000
0000000000000000000000000000
0000000000000000000000000000
0000000000000000000000000000
0000000000000000000000000000
0000000000000000000000000000
0000000000000000000000000000
0000000000000000000000000000
0000000000000000000000000000
0000000000000000000000000000
0000000000000000000000000000
0000000000000000000000000000
0000003FFFFC3FFFFC0000000000
0000003FFFFC3FFFFC0000000000
0000003FFFFC3FFFFC0000000000
0000007FFFF87FFFF80000000000
0000007FFFF87FFFF80000000000
0000007FFFF87FFFF80000000000
000000FFFFF0FFFFF00000000000
000000FFFFF0FFFFF00000000000
0000000000FFF000FFF000000000
0000000001FFE001FFE000000000
0000000001FFE001FFE000000000
0000000001FFE001FFE000000000
0000000003FFC003FFC000000000
0000000003FFC003FFC000000000
0000000003FFC003FFC000000000
0000000007FF8007FF8000000000
000007FFFFFFFFFFFF8000000000
000007FFFFFFFFFFFF8000000000
00000FFFFFFFFFFFFF0000000000
00000FFFFFFFFFFFFF0000000000
00000FFFFFFFFFFFFF0000000000
00001FFFFFFFFFFFFE0000000000
00001FFFFFFFFFFFFE0000000000
00001FFFFFFFFFFFFE0000000000
003FFC003FFC0000000000000000
003FFC003FFC0000000000000000
003FFC003FFC0000000000000000
007FF8007FF80000000000000000
007FF8007FF80000000000000000
007FF8007FF80000000000000000
00FFF000FFF00000000000000000
00FFF000FFF00000000000000000
0000FFFFFFFFFFFFF00000000000
0001FFFFFFFFFFFFE00000000000
0001FFFFFFFFFFFFE00000000000
0001FFFFFFFFFFFFE00000000000
0003FFFFFFFFFFFFC00000000000
0003FFFFFFFFFFFFC00000000000
0003FFFFFFFFFFFFC00000000000
0007FFFFFFFFFFFF800000000000
0000000000000000000000000000
0000000000000000000000000000
0000000000000000000000000000
0000000000000000000000000000
0000000000000000000000000000
0000000000000000000000000000
0000000000000000000000000000
0000000000000000000000000000
0000000000000000000000000000
0000000000000000000000000000
0000000000000000000000000000
0000000000000000000000000000
0000000000000000000000000000
0000000000000000000000000000
0000000000000000000000000000
0000000000000000000000000000
ENDCHAR
STARTCHAR U+00E5
ENCODING 229
SWIDTH 1000 0
DWIDTH 80 0
BBX 106 80 -13 -16
BITMAP
00000000003FFFFFFC0000000000
00000000003FFFFFFC0000000000
00000000003FFFFFFC0000000000
00000000007FFFFFF80000000000
00000000007FFFFFF80000000000
00000000007FFFFFF80000000000
0000000000FFFFFFF00000000000
0000000000FFFFFFF00000000000
00000000FFF00000FFF000000000
00000001FFE00001FFE000000000
00000001FFE00001FFE000000000
00000001FFE00001FFE000000000
00000003FFC00003FFC000000000
00000003FFC00003FFC000000000
00000003FFC00003FFC000000000
00000007FF800007FF8000000000
0000000007FFFFFF800000000000
0000000007FFFFFF800000000000
000000000FFFFFFF000000000000
000000000FFFFFFF000000000000
000000000FFFFFFF000000000000
000000001FFFFFFE000000000000
000000001FFFFFFE000000000000
000000001FFFFFFE000000000000
0000003FFFFFFFFFFC0000000000
0000003FFFFFFFFFFC0000000000
0000003FFFFFFFFFFC0000000000
0000007FFFFFFFFFF80000000000
0000007FFFFFFFFFF80000000000
0000007FFFFFFFFFF80000000000
000000FFFFFFFFFFF00000000000
000000FFFFFFFFFFF00000000000
0000000000000000FFF000000000
0000000000000001FFE000000000
0000000000000001FFE000000000
0000000000000001FFE000000000
0000000000000003FFC000000000
0000000000000003FFC000000000
0000000000000003FFC000000000
0000000000000007FF8000000000
000007FFFFFFFFFFFF8000000000
000007FFFFFFFFFFFF8000000000
00000FFFFFFFFFFFFF0000000000
00000FFFFFFFFFFFFF0000000000
00000FFFFFFFFFFFFF0000000000
00001FFFFFFFFFFFFE0000000000
00001FFFFFFFFFFFFE0000000000
00001FFFFFFFFFFFFE0000000000
003FFC0000003FFFFC0000000000
003FFC0000003FFFFC0000000000
003FFC0000003FFFFC0000000000
007FF80000007FFFF80000000000
007FF80000007FFFF80000000000
007FF80000007FFFF80000000000
00FFF0000000FFFFF00000000000
00FFF0000000FFFFF00000000000
0000FFFFFFFFF0FFF00000000000
0001FFFFFFFFE1FFE00000000000
0001FFFFFFFFE1FFE00000000000
0001FFFFFFFFE1FFE00000000000
0003FFFFFFFFC3FFC00000000000
0003FFFFFFFFC3FFC00000000000
0003FFFFFFFFC3FFC00000000000
0007FFFFFFFF87FF800000000000
0000000000000000000000000000
0000000000000000000000000000
0000000000000000000000000000
0000000000000000000000000000
0000000000000000000000000000
0000000000000000000000000000
0000000000000000000000000000
0000000000000000000000000000
0000000000000000000000000000
0000000000000000000000000000
0000000000000000000000000000
0000000000000000000000000000
0000000000000000000000000000
0000000000000000000000000000
0000000000000000000000000000
0000000000000000000000000000
ENDCHAR
STARTCHAR U+00E4
ENCODING 228
SWIDTH 1000 0
DWIDTH 80 0
BBX 106 80 -13 -16
BITMAP
0000000000000000000000000000
0000000000000000000000000000
0000000000000000000000000000
0000000000000000000000000000
0000000000000000000000000000
0000000000000000000000000000
0000000000000000000000000000
0000000000000000000000000000
00000000FFF00000FFF000000000
00000001FFE00001FFE000000000
00000001FFE00001FFE000000000
00000001FFE00001FFE000000000
00000003FFC00003FFC000000000
00000003FFC00003FFC000000000
00000003FFC00003FFC000000000
00000007FF800007FF8000000000
0000000000000000000000000000
0000000000000000000000000000
0000000000000000000000000000
0000000000000000000000000000
0000000000000000000000000000
0000000000000000000000000000
0000000000000000000000000000
0000000000000000000000000000
0000003FFFFFFFFFFC0000000000
0000003FFFFFFFFFFC0000000000
0000003FFFFFFFFFFC0000000000
0000007FFFFFFFFFF80000000000
0000007FFFFFFFFFF80000000000
0000007FFFFFFFFFF80000000000
000000FFFFFFFFFFF00000000000
000000FFFFFFFFFFF00000000000
0000000000000000FFF000000000
0000000000000001FFE000000000
0000000000000001FFE000000000
0000000000000001FFE000000000
0000000000000003FFC000000000
0000000000000003FFC000000000
0000000000000003FFC000000000
0000000000000007FF8000000000
000007FFFFFFFFFFFF8000000000
000007FFFFFFFFFFFF8000000000
00000FFFFFFFFFFFFF0000000000
00000FFFFFFFFFFFFF0000000000
00000FFFFFFFFFFFFF0000000000
00001FFFFFFFFFFFFE0000000000
00001FFFFFFFFFFFFE0000000000
00001FFFFFFFFFFFFE0000000000
003FFC0000003FFFFC0000000000
003FFC0000003FFFFC0000000000
003FFC0000003FFFFC0000000000
007FF80000007FFFF80000000000
007FF80000007FFFF80000000000
007FF80000007FFFF80000000000
00FFF0000000FFFFF00000000000
00FFF0000000FFFFF00000000000
0000FFFFFFFFF0FFF00000000000
0001FFFFFFFFE1FFE00000000000
0001FFFFFFFFE1FFE00000000000
0001FFFFFFFFE1FFE00000000000
0003FFFFFFFFC3FFC00000000000
0003FFFFFFFFC3FFC00000000000
0003FFFFFFFFC3FFC00000000000
0007FFFFFFFF87FF800000000000
0000000000000000000000000000
0000000000000000000000000000
0000000000000000000000000000
0000000000000000000000000000
0000000000000000000000000000
0000000000000000000000000000
0000000000000000000000000000
0000000000000000000000000000
0000000000000000000000000000
0000000000000000000000000000
0000000000000000000000000000
0000000000000000000000000000
0000000000000000000000000000
0000000000000000000000000000
0000000000000000000000000000
0000000000000000000000000000
ENDCHAR
STARTCHAR U+00E3
ENCODING 227
SWIDTH 1000 0
DWIDTH 80 0
BBX 106 80 -13 -16
BITMAP
00000000003FFFFC003FFC000000
00000000003FFFFC003FFC000000
00000000003FFFFC003FFC000000
00000000007FFFF8007FF8000000
00000000007FFFF8007FF8000000
00000000007FFFF8007FF8000000
0000000000FFFFF000FFF0000000
0000000000FFFFF000FFF0000000
00000000FFF000FFFFF000000000
00000001FFE001FFFFE000000000
00000001FFE001FFFFE000000000
00000001FFE001FFFFE000000000
00000003FFC003FFFFC000000000
00000003FFC003FFFFC000000000
00000003FFC003FFFFC000000000
00000007FF8007FFFF8000000000
0000000000000000000000000000
0000000000000000000000000000
0000000000000000000000000000
0000000000000000000000000000
0000000000000000000000000000
0000000000000000000000000000
0000000000000000000000000000
0000000000000000000000000000
0000003FFFFFFFFFFC0000000000
0000003FFFFFFFFFFC0000000000
0000003FFFFFFFFFFC0000000000
0000007FFFFFFFFFF80000000000
0000007FFFFFFFFFF80000000000
0000007FFFFFFFFFF80000000000
000000FFFFFFFFFFF00000000000
000000FFFFFFFFFFF00000000000
0000000000000000FFF000000000
0000000000000001FFE000000000
0000000000000001FFE000000000
0000000000000001FFE000000000
0000000000000003FFC000000000
0000000000000003FFC000000000
0000000000000003FFC000000000
0000000000000007FF8000000000
000007FFFFFFFFFFFF8000000000
000007FFFFFFFFFFFF8000000000
00000FFFFFFFFFFFFF0000000000
00000FFFFFFFFFFFFF0000000000
00000FFFFFFFFFFFFF0000000000
00001FFFFFFFFFFFFE0000000000
00001FFFFFFFFFFFFE0000000000
00001FFFFFFFFFFFFE0000000000
003FFC0000003FFFFC0000000000
003FFC0000003FFFFC0000000000
003FFC0000003FFFFC0000000000
007FF80000007FFFF80000000000
007FF80000007FFFF80000000000
007FF80000007FFFF80000000000
00FFF0000000FFFFF00000000000
00FFF0000000FFFFF00000000000
0000FFFFFFFFF0FFF00000000000
0001FFFFFFFFE1FFE00000000000
0001FFFFFFFFE1FFE00000000000
0001FFFFFFFFE1FFE00000000000
0003FFFFFFFFC3FFC00000000000
0003FFFFFFFFC3FFC00000000000
0003FFFFFFFFC3FFC00000000000
0007FFFFFFFF87FF800000000000
0000000000000000000000000000
0000000000000000000000000000
0000000000000000000000000000
0000000000000000000000000000
0000000000000000000000000000
0000000000000000000000000000
0000000000000000000000000000
0000000000000000000000000000
0000000000000000000000000000
0000000000000000000000000000
0000000000000000000000000000
0000000000000000000000000000
0000000000000000000000000000
0000000000000000000000000000
0000000000000000000000000000
0000000000000000000000000000
ENDCHAR
STARTCHAR U+00E2
ENCODING 226
SWIDTH 1000 0
DWIDTH 80 0
BBX 106 80 -13 -16
BITMAP
00000000003FFFFFFC0000000000
00000000003FFFFFFC0000000000
00000000003FFFFFFC0000000000
00000000007FFFFFF80000000000
00000000007FFFFFF80000000000
00000000007FFFFFF80000000000
0000000000FFFFFFF00000000000
0000000000FFFFFFF00000000000
00000000FFF00000FFF000000000
00000001FFE00001FFE000000000
00000001FFE00001FFE000000000
00000001FFE00001FFE000000000
00000003FFC00003FFC000000000
00000003FFC00003FFC000000000
00000003FFC00003FFC000000000
00000007FF800007FF8000000000
0000000000000000000000000000
0000000000000000000000000000
0000000000000000000000000000
0000000000000000000000000000
0000000000000000000000000000
0000000000000000000000000000
0000000000000000000000000000
0000000000000000000000000000
0000003FFFFFFFFFFC0000000000
0000003FFFFFFFFFFC0000000000
0000003FFFFFFFFFFC0000000000
0000007FFFFFFFFFF80000000000
0000007FFFFFFFFFF80000000000
0000007FFFFFFFFFF80000000000
000000FFFFFFFFFFF00000000000
000000FFFFFFFFFFF00000000000
0000000000000000FFF000000000
0000000000000001FFE000000000
0000000000000001FFE000000000
0000000000000001FFE000000000
0000000000000003FFC000000000
0000000000000003FFC000000000
0000000000000003FFC000000000
0000000000000007FF8000000000
000007FFFFFFFFFFFF8000000000
000007FFFFFFFFFFFF8000000000
00000FFFFFFFFFFFFF0000000000
00000FFFFFFFFFFFFF0000000000
00000FFFFFFFFFFFFF0000000000
00001FFFFFFFFFFFFE0000000000
00001FFFFFFFFFFFFE0000000000
00001FFFFFFFFFFFFE0000000000
003FFC0000003FFFFC0000000000
003FFC0000003FFFFC0000000000
003FFC0000003FFFFC0000000000
007FF80000007FFFF80000000000
007FF80000007FFFF80000000000
007FF80000007FFFF80000000000
00FFF0000000FFFFF00000000000
00FFF0000000FFFFF00000000000
0000FFFFFFFFF0FFF00000000000
0001FFFFFFFFE1FFE00000000000
0001FFFFFFFFE1FFE00000000000
0001FFFFFFFFE1FFE00000000000
0003FFFFFFFFC3FFC00000000000
0003FFFFFFFFC3FFC00000000000
0003FFFFFFFFC3FFC00000000000
0007FFFFFFFF87FF800000000000
0000000000000000000000000000
0000000000000000000000000000
0000000000000000000000000000
0000000000000000000000000000
0000000000000000000000000000
0000000000000000000000000000
0000000000000000000000000000
0000000000000000000000000000
0000000000000000000000000000
0000000000000000000000000000
0000000000000000000000000000
0000000000000000000000000000
0000000000000000000000000000
0000000000000000000000000000
0000000000000000000000000000
0000000000000000000000000000
ENDCHAR
STARTCHAR U+00E1
ENCODING 225
SWIDTH 1000 0
DWIDTH 80 0
BBX 106 80 -13 -16
BITMAP
0000000000000000000000000000
0000000000000000000000000000
0000000000000000000000000000
0000000000000000000000000000
0000000000000000000000000000
0000000000000000000000000000
0000000000000000000000000000
0000000000000000000000000000
000000000000FFFFF00000000000
000000000001FFFFE00000000000
000000000001FFFFE00000000000
000000000001FFFFE00000000000
000000000003FFFFC00000000000
000000000003FFFFC00000000000
000000000003FFFFC00000000000
000000000007FFFF800000000000
00000007FFFF8000000000000000
00000007FFFF8000000000000000
0000000FFFFF0000000000000000
0000000FFFFF0000000000000000
0000000FFFFF0000000000000000
0000001FFFFE0000000000000000
0000001FFFFE0000000000000000
0000001FFFFE0000000000000000
0000003FFFFFFFFFFC0000000000
0000003FFFFFFFFFFC0000000000
0000003FFFFFFFFFFC0000000000
0000007FFFFFFFFFF80000000000
0000007FFFFFFFFFF80000000000
0000007FFFFFFFFFF80000000000
000000FFFFFFFFFFF00000000000
000000FFFFFFFFFFF00000000000
0000000000000000FFF000000000
0000000000000001FFE000000000
0000000000000001FFE000000000
0000000000000001FFE000000000
0000000000000003FFC000000000
0000000000000003FFC000000000
0000000000000003FFC000000000
0000000000000007FF8000000000
000007FFFFFFFFFFFF8000000000
000007FFFFFFFFFFFF8000000000
00000FFFFFFFFFFFFF0000000000
00000FFFFFFFFFFFFF0000000000
00000FFFFFFFFFFFFF0000000000
00001FFFFFFFFFFFFE0000000000
00001FFFFFFFFFFFFE0000000000
00001FFFFFFFFFFFFE0000000000
003FFC0000003FFFFC0000000000
003FFC0000003FFFFC0000000000
003FFC0000003FFFFC0000000000
007FF80000007FFFF80000000000
007FF80000007FFFF80000000000
007FF80000007FFFF80000000000
00FFF0000000FFFFF00000000000
00FFF0000000FFFFF00000000000
0000FFFFFFFFF0FFF00000000000
0001FFFFFFFFE1FFE00000000000
0001FFFFFFFFE1FFE00000000000
0001FFFFFFFFE1FFE00000000000
0003FFFFFFFFC3FFC00000000000
0003FFFFFFFFC3FFC00000000000
0003FFFFFFFFC3FFC00000000000
0007FFFFFFFF87FF800000000000
0000000000000000000000000000
0000000000000000000000000000
0000000000000000000000000000
0000000000000000000000000000
0000000000000000000000000000
0000000000000000000000000000
0000000000000000000000000000
0000000000000000000000000000
0000000000000000000000000000
0000000000000000000000000000
0000000000000000000000000000
0000000000000000000000000000
0000000000000000000000000000
0000000000000000000000000000
0000000000000000000000000000
0000000000000000000000000000
ENDCHAR
STARTCHAR U+00E0
ENCODING 224
SWIDTH 1000 0
DWIDTH 80 0
BBX 106 80 -13 -16
BITMAP
0000000000000000000000000000
0000000000000000000000000000
0000000000000000000000000000
0000000000000000000000000000
0000000000000000000000000000
0000000000000000000000000000
0000000000000000000000000000
0000000000000000000000000000
0000000000FFFFF0000000000000
0000000001FFFFE0000000000000
0000000001FFFFE0000000000000
0000000001FFFFE0000000000000
0000000003FFFFC0000000000000
0000000003FFFFC0000000000000
0000000003FFFFC0000000000000
0000000007FFFF80000000000000
00000000000007FFFF8000000000
00000000000007FFFF8000000000
0000000000000FFFFF0000000000
0000000000000FFFFF0000000000
0000000000000FFFFF0000000000
0000000000001FFFFE0000000000
0000000000001FFFFE0000000000
0000000000001FFFFE0000000000
0000003FFFFFFFFFFC0000000000
0000003FFFFFFFFFFC0000000000
0000003FFFFFFFFFFC0000000000
0000007FFFFFFFFFF80000000000
0000007FFFFFFFFFF80000000000
0000007FFFFFFFFFF80000000000
000000FFFFFFFFFFF00000000000
000000FFFFFFFFFFF00000000000
0000000000000000FFF000000000
0000000000000001FFE000000000
0000000000000001FFE000000000
0000000000000001FFE000000000
0000000000000003FFC000000000
0000000000000003FFC000000000
0000000000000003FFC000000000
0000000000000007FF8000000000
000007FFFFFFFFFFFF8000000000
000007FFFFFFFFFFFF8000000000
00000FFFFFFFFFFFFF0000000000
00000FFFFFFFFFFFFF0000000000
00000FFFFFFFFFFFFF0000000000
00001FFFFFFFFFFFFE0000000000
00001FFFFFFFFFFFFE0000000000
00001FFFFFFFFFFFFE0000000000
003FFC0000003FFFFC0000000000
003FFC0000003FFFFC0000000000
003FFC0000003FFFFC0000000000
007FF80000007FFFF80000000000
007FF80000007FFFF80000000000
007FF80000007FFFF80000000000
00FFF0000000FFFFF00000000000
00FFF0000000FFFFF00000000000
0000FFFFFFFFF0FFF00000000000
0001FFFFFFFFE1FFE00000000000
0001FFFFFFFFE1FFE00000000000
0001FFFFFFFFE1FFE00000000000
0003FFFFFFFFC3FFC00000000000
0003FFFFFFFFC3FFC00000000000
0003FFFFFFFFC3FFC00000000000
0007FFFFFFFF87FF800000000000
0000000000000000000000000000
0000000000000000000000000000
0000000000000000000000000000
0000000000000000000000000000
0000000000000000000000000000
0000000000000000000000000000
0000000000000000000000000000
0000000000000000000000000000
0000000000000000000000000000
0000000000000000000000000000
0000000000000000000000000000
0000000000000000000000000000
0000000000000000000000000000
0000000000000000000000000000
0000000000000000000000000000
0000000000000000000000000000
ENDCHAR
STARTCHAR U+00DF
ENCODING 223
SWIDTH 1000 0
DWIDTH 80 0
BBX 106 80 -13 -16
BITMAP
0000000000000000000000000000
0000000000000000000000000000
0000000000000000000000000000
0000000000000000000000000000
0000000000000000000000000000
0000000000000000000000000000
0000000000000000000000000000
0000000000000000000000000000
0000000000FFFFFFF00000000000
0000000001FFFFFFE00000000000
0000000001FFFFFFE00000000000
0000000001FFFFFFE00000000000
0000000003FFFFFFC00000000000
0000000003FFFFFFC00000000000
0000000003FFFFFFC00000000000
0000000007FFFFFF800000000000
00000007FF800007FF8000000000
00000007FF800007FF8000000000
0000000FFF00000FFF0000000000
0000000FFF00000FFF0000000000
0000000FFF00000FFF0000000000
0000001FFE00001FFE0000000000
0000001FFE00001FFE0000000000
0000001FFE00001FFE0000000000
00003FFC0000003FFC0000000000
00003FFC0000003FFC0000000000
00003FFC0000003FFC0000000000
00007FF80000007FF80000000000
00007FF80000007FF80000000000
00007FF80000007FF80000000000
0000FFF0000000FFF00000000000
0000FFF0000000FFF00000000000
0000FFF0FFFFFFF0000000000000
0001FFE1FFFFFFE0000000000000
0001FFE1FFFFFFE0000000000000
0001FFE1FFFFFFE0000000000000
0003FFC3FFFFFFC0000000000000
0003FFC3FFFFFFC0000000000000
0003FFC3FFFFFFC0000000000000
0007FF87FFFFFF80000000000000
0007FF80000007FF800000000000
0007FF80000007FF800000000000
000FFF0000000FFF000000000000
000FFF0000000FFF000000000000
000FFF0000000FFF000000000000
001FFE0000001FFE000000000000
001FFE0000001FFE000000000000
001FFE0000001FFE000000000000
003FFC3FFC00003FFC0000000000
003FFC3FFC00003FFC0000000000
003FFC3FFC00003FFC0000000000
007FF87FF800007FF80000000000
007FF87FF800007FF80000000000
007FF87FF800007FF80000000000
00FFF0FFF00000FFF00000000000
00FFF0FFF00000FFF00000000000
00FFF000FFFFFFF0000000000000
01FFE001FFFFFFE0000000000000
01FFE001FFFFFFE0000000000000
01FFE001FFFFFFE0000000000000
03FFC003FFFFFFC0000000000000
03FFC003FFFFFFC0000000000000
03FFC003FFFFFFC0000000000000
07FF8007FFFFFF80000000000000
07FF800000000000000000000000
07FF800000000000000000000000
0FFF000000000000000000000000
0FFF000000000000000000000000
0FFF000000000000000000000000
1FFE000000000000000000000000
1FFE000000000000000000000000
1FFE000000000000000000000000
0000000000000000000000000000
0000000000000000000000000000
0000000000000000000000000000
0000000000000000000000000000
0000000000000000000000000000
0000000000000000000000000000
0000000000000000000000000000
0000000000000000000000000000
ENDCHAR
STARTCHAR U+00DE
ENCODING 222
SWIDTH 1000 0
DWIDTH 80 0
BBX 106 80 -13 -16
BITMAP
0000000000000000000000000000
0000000000000000000000000000
0000000000000000000000000000
0000000000000000000000000000
0000000000000000000000000000
0000000000000000000000000000
0000000000000000000000000000
0000000000000000000000000000
000000FFFFF00000000000000000
000001FFFFE00000000000000000
000001FFFFE00000000000000000
000001FFFFE00000000000000000
000003FFFFC00000000000000000
000003FFFFC00000000000000000
000003FFFFC00000000000000000
000007FFFF800000000000000000
00000007FFFFFFFFFF8000000000
00000007FFFFFFFFFF8000000000
0000000FFFFFFFFFFF0000000000
0000000FFFFFFFFFFF0000000000
0000000FFFFFFFFFFF0000000000
0000001FFFFFFFFFFE0000000000
0000001FFFFFFFFFFE0000000000
0000001FFFFFFFFFFE0000000000
0000003FFC0000003FFC00000000
0000003FFC0000003FFC00000000
0000003FFC0000003FFC00000000
0000007FF80000007FF800000000
0000007FF80000007FF800000000
0000007FF80000007FF800000000
000000FFF0000000FFF000000000
000000FFF0000000FFF000000000
000000FFF0000000FFF000000000
000001FFE0000001FFE000000000
000001FFE0000001FFE000000000
000001FFE0000001FFE000000000
000003FFC0000003FFC000000000
000003FFC0000003FFC000000000
000003FFC0000003FFC000000000
000007FF80000007FF8000000000
000007FF80000007FF8000000000
000007FF80000007FF8000000000
00000FFF0000000FFF0000000000
00000FFF0000000FFF0000000000
00000FFF0000000FFF0000000000
00001FFE0000001FFE0000000000
00001FFE0000001FFE0000000000
00001FFE0000001FFE0000000000
00003FFFFFFFFFFC000000000000
00003FFFFFFFFFFC000000000000
00003FFFFFFFFFFC000000000000
00007FFFFFFFFFF8000000000000
00007FFFFFFFFFF8000000000000
00007FFFFFFFFFF8000000000000
0000FFFFFFFFFFF0000000000000
0000FFFFFFFFFFF0000000000000
00FFFFF000000000000000000000
01FFFFE000000000000000000000
01FFFFE000000000000000000000
01FFFFE000000000000000000000
03FFFFC000000000000000000000
03FFFFC000000000000000000000
03FFFFC000000000000000000000
07FFFF8000000000000000000000
0000000000000000000000000000
0000000000000000000000000000
0000000000000000000000000000
0000000000000000000000000000
0000000000000000000000000000
0000000000000000000000000000
0000000000000000000000000000
0000000000000000000000000000
0000000000000000000000000000
0000000000000000000000000000
0000000000000000000000000000
0000000000000000000000000000
0000000000000000000000000000
0000000000000000000000000000
0000000000000000000000000000
0000000000000000000000000000
ENDCHAR
STARTCHAR U+0178
ENCODING 376
SWIDTH 1000 0
DWIDTH 80 0
BBX 106 80 -13 -16
BITMAP
000000003FFC00003FFC00000000
000000003FFC00003FFC00000000
000000003FFC00003FFC00000000
000000007FF800007FF800000000
000000007FF800007FF800000000
000000007FF800007FF800000000
00000000FFF00000FFF000000000
00000000FFF00000FFF000000000
0000000000000000000000000000
0000000000000000000000000000
0000000000000000000000000000
0000000000000000000000000000
0000000000000000000000000000
0000000000000000000000000000
0000000000000000000000000000
0000000000000000000000000000
000007FF8000000007FF80000000
000007FF8000000007FF80000000
00000FFF000000000FFF00000000
00000FFF000000000FFF00000000
00000FFF000000000FFF00000000
00001FFE000000001FFE00000000
00001FFE000000001FFE00000000
00001FFE000000001FFE00000000
0000003FFC00003FFC0000000000
0000003FFC00003FFC0000000000
0000003FFC00003FFC0000000000
0000007FF800007FF80000000000
0000007FF800007FF80000000000
0000007FF800007FF80000000000
000000FFF00000FFF00000000000
000000FFF00000FFF00000000000
00000000FFF0FFF0000000000000
00000001FFE1FFE0000000000000
00000001FFE1FFE0000000000000
00000001FFE1FFE0000000000000
00000003FFC3FFC0000000000000
00000003FFC3FFC0000000000000
00000003FFC3FFC0000000000000
00000007FF87FF80000000000000
0000000007FF8000000000000000
0000000007FF8000000000000000
000000000FFF0000000000000000
000000000FFF0000000000000000
000000000FFF0000000000000000
000000001FFE0000000000000000
000000001FFE0000000000000000
000000001FFE0000000000000000
000000003FFC0000000000000000
000000003FFC0000000000000000
000000003FFC0000000000000000
000000007FF80000000000000000
000000007FF80000000000000000
000000007FF80000000000000000
00000000FFF00000000000000000
00000000FFF00000000000000000
00000000FFF00000000000000000
00000001FFE00000000000000000
00000001FFE00000000000000000
00000001FFE00000000000000000
00000003FFC00000000000000000
00000003FFC00000000000000000
00000003FFC00000000000000000
00000007FF800000000000000000
0000000000000000000000000000
0000000000000000000000000000
0000000000000000000000000000
0000000000000000000000000000
0000000000000000000000000000
0000000000000000000000000000
0000000000000000000000000000
0000000000000000000000000000
0000000000000000000000000000
0000000000000000000000000000
0000000000000000000000000000
0000000000000000000000000000
0000000000000000000000000000
0000000000000000000000000000
0000000000000000000000000000
0000000000000000000000000000
ENDCHAR
STARTCHAR U+00DC
ENCODING 220
SWIDTH 1000 0
DWIDTH 80 0
BBX 106 80 -13 -16
BITMAP
000000003FFC00003FFC00000000
000000003FFC00003FFC00000000
000000003FFC00003FFC00000000
000000007FF800007FF800000000
000000007FF800007FF800000000
000000007FF800007FF800000000
00000000FFF00000FFF000000000
00000000FFF00000FFF000000000
0000000000000000000000000000
0000000000000000000000000000
0000000000000000000000000000
0000000000000000000000000000
0000000000000000000000000000
0000000000000000000000000000
0000000000000000000000000000
0000000000000000000000000000
000007FF8000000007FF80000000
000007FF8000000007FF80000000
00000FFF000000000FFF00000000
00000FFF000000000FFF00000000
00000FFF000000000FFF00000000
00001FFE000000001FFE00000000
00001FFE000000001FFE00000000
00001FFE000000001FFE00000000
00003FFC000000003FFC00000000
00003FFC000000003FFC00000000
00003FFC000000003FFC00000000
00007FF8000000007FF800000000
00007FF8000000007FF800000000
00007FF8000000007FF800000000
0000FFF000000000FFF000000000
0000FFF000000000FFF000000000
0000FFF000000000FFF000000000
0001FFE000000001FFE000000000
0001FFE000000001FFE000000000
0001FFE000000001FFE000000000
0003FFC000000003FFC000000000
0003FFC000000003FFC000000000
0003FFC000000003FFC000000000
0007FF8000000007FF8000000000
0007FF8000000007FF8000000000
0007FF8000000007FF8000000000
000FFF000000000FFF0000000000
000FFF000000000FFF0000000000
000FFF000000000FFF0000000000
001FFE000000001FFE0000000000
001FFE000000001FFE0000000000
001FFE000000001FFE0000000000
003FFC000000003FFC0000000000
003FFC000000003FFC0000000000
003FFC000000003FFC0000000000
007FF8000000007FF80000000000
007FF8000000007FF80000000000
007FF8000000007FF80000000000
00FFF000000000FFF00000000000
00FFF000000000FFF00000000000
0000FFFFFFFFFFF0000000000000
0001FFFFFFFFFFE0000000000000
0001FFFFFFFFFFE0000000000000
0001FFFFFFFFFFE0000000000000
0003FFFFFFFFFFC0000000000000
0003FFFFFFFFFFC0000000000000
0003FFFFFFFFFFC0000000000000
0007FFFFFFFFFF80000000000000
0000000000000000000000000000
0000000000000000000000000000
0000000000000000000000000000
0000000000000000000000000000
0000000000000000000000000000
0000000000000000000000000000
0000000000000000000000000000
0000000000000000000000000000
0000000000000000000000000000
0000000000000000000000000000
0000000000000000000000000000
0000000000000000000000000000
0000000000000000000000000000
0000000000000000000000000000
0000000000000000000000000000
0000000000000000000000000000
ENDCHAR
STARTCHAR U+00DB
ENCODING 219
SWIDTH 1000 0
DWIDTH 80 0
BBX 106 80 -13 -16
BITMAP
0000000000003FFC000000000000
0000000000003FFC000000000000
0000000000003FFC000000000000
0000000000007FF8000000000000
0000000000007FF8000000000000
0000000000007FF8000000000000
000000000000FFF0000000000000
000000000000FFF0000000000000
0000000000FFF0FFF00000000000
0000000001FFE1FFE00000000000
0000000001FFE1FFE00000000000
0000000001FFE1FFE00000000000
0000000003FFC3FFC00000000000
0000000003FFC3FFC00000000000
0000000003FFC3FFC00000000000
0000000007FF87FF800000000000
000007FF8000000007FF80000000
000007FF8000000007FF80000000
00000FFF000000000FFF00000000
00000FFF000000000FFF00000000
00000FFF000000000FFF00000000
00001FFE000000001FFE00000000
00001FFE000000001FFE00000000
00001FFE000000001FFE00000000
00003FFC000000003FFC00000000
00003FFC000000003FFC00000000
00003FFC000000003FFC00000000
00007FF8000000007FF800000000
00007FF8000000007FF800000000
00007FF8000000007FF800000000
0000FFF000000000FFF000000000
0000FFF000000000FFF000000000
0000FFF000000000FFF000000000
0001FFE000000001FFE000000000
0001FFE000000001FFE000000000
0001FFE000000001FFE000000000
0003FFC000000003FFC000000000
0003FFC000000003FFC000000000
0003FFC000000003FFC000000000
0007FF8000000007FF8000000000
0007FF8000000007FF8000000000
0007FF8000000007FF8000000000
000FFF000000000FFF0000000000
000FFF000000000FFF0000000000
000FFF000000000FFF0000000000
001FFE000000001FFE0000000000
001FFE000000001FFE0000000000
001FFE000000001FFE0000000000
003FFC000000003FFC0000000000
003FFC000000003FFC0000000000
003FFC000000003FFC0000000000
007FF8000000007FF80000000000
007FF8000000007FF80000000000
007FF8000000007FF80000000000
00FFF000000000FFF00000000000
00FFF000000000FFF00000000000
0000FFFFFFFFFFF0000000000000
0001FFFFFFFFFFE0000000000000
0001FFFFFFFFFFE0000000000000
0001FFFFFFFFFFE0000000000000
0003FFFFFFFFFFC0000000000000
0003FFFFFFFFFFC0000000000000
0003FFFFFFFFFFC0000000000000
0007FFFFFFFFFF80000000000000
0000000000000000000000000000
0000000000000000000000000000
0000000000000000000000000000
0000000000000000000000000000
0000000000000000000000000000
0000000000000000000000000000
0000000000000000000000000000
0000000000000000000000000000
0000000000000000000000000000
0000000000000000000000000000
0000000000000000000000000000
0000000000000000000000000000
0000000000000000000000000000
0000000000000000000000000000
0000000000000000000000000000
0000000000000000000000000000
ENDCHAR
STARTCHAR U+00DA
ENCODING 218
SWIDTH 1000 0
DWIDTH 80 0
BBX 106 80 -13 -16
BITMAP
000000000000003FFFFC00000000
000000000000003FFFFC00000000
000000000000003FFFFC00000000
000000000000007FFFF800000000
000000000000007FFFF800000000
000000000000007FFFF800000000
00000000000000FFFFF000000000
00000000000000FFFFF000000000
0000000000FFFFF0000000000000
0000000001FFFFE0000000000000
0000000001FFFFE0000000000000
0000000001FFFFE0000000000000
0000000003FFFFC0000000000000
0000000003FFFFC0000000000000
0000000003FFFFC0000000000000
0000000007FFFF80000000000000
000007FF8000000007FF80000000
000007FF8000000007FF80000000
00000FFF000000000FFF00000000
00000FFF000000000FFF00000000
00000FFF000000000FFF00000000
00001FFE000000001FFE00000000
00001FFE000000001FFE00000000
00001FFE000000001FFE00000000
00003FFC000000003FFC00000000
00003FFC000000003FFC00000000
00003FFC000000003FFC00000000
00007FF8000000007FF800000000
00007FF8000000007FF800000000
00007FF8000000007FF800000000
0000FFF000000000FFF000000000
0000FFF000000000FFF000000000
0000FFF000000000FFF000000000
0001FFE000000001FFE000000000
0001FFE000000001FFE000000000
0001FFE000000001FFE000000000
0003FFC000000003FFC000000000
0003FFC000000003FFC000000000
0003FFC000000003FFC000000000
0007FF8000000007FF8000000000
0007FF8000000007FF8000000000
0007FF8000000007FF8000000000
000FFF000000000FFF0000000000
000FFF000000000FFF0000000000
000FFF000000000FFF0000000000
001FFE000000001FFE0000000000
001FFE000000001FFE0000000000
001FFE000000001FFE0000000000
003FFC000000003FFC0000000000
003FFC000000003FFC0000000000
003FFC000000003FFC0000000000
007FF8000000007FF80000000000
007FF8000000007FF80000000000
007FF8000000007FF80000000000
00FFF000000000FFF00000000000
00FFF000000000FFF00000000000
0000FFFFFFFFFFF0000000000000
0001FFFFFFFFFFE0000000000000
0001FFFFFFFFFFE0000000000000
0001FFFFFFFFFFE0000000000000
0003FFFFFFFFFFC0000000000000
0003FFFFFFFFFFC0000000000000
0003FFFFFFFFFFC0000000000000
0007FFFFFFFFFF80000000000000
0000000000000000000000000000
0000000000000000000000000000
0000000000000000000000000000
0000000000000000000000000000
0000000000000000000000000000
0000000000000000000000000000
0000000000000000000000000000
0000000000000000000000000000
0000000000000000000000000000
0000000000000000000000000000
0000000000000000000000000000
0000000000000000000000000000
0000000000000000000000000000
0000000000000000000000000000
0000000000000000000000000000
0000000000000000000000000000
ENDCHAR
STARTCHAR U+00D9
ENCODING 217
SWIDTH 1000 0
DWIDTH 80 0
BBX 106 80 -13 -16
BITMAP
000000003FFFFC00000000000000
000000003FFFFC00000000000000
000000003FFFFC00000000000000
000000007FFFF800000000000000
000000007FFFF800000000000000
000000007FFFF800000000000000
00000000FFFFF000000000000000
00000000FFFFF000000000000000
000000000000FFFFF00000000000
000000000001FFFFE00000000000
000000000001FFFFE00000000000
000000000001FFFFE00000000000
000000000003FFFFC00000000000
000000000003FFFFC00000000000
000000000003FFFFC00000000000
000000000007FFFF800000000000
000007FF8000000007FF80000000
000007FF8000000007FF80000000
00000FFF000000000FFF00000000
00000FFF000000000FFF00000000
00000FFF000000000FFF00000000
00001FFE000000001FFE00000000
00001FFE000000001FFE00000000
00001FFE000000001FFE00000000
00003FFC000000003FFC00000000
00003FFC000000003FFC00000000
00003FFC000000003FFC00000000
00007FF8000000007FF800000000
00007FF8000000007FF800000000
00007FF8000000007FF800000000
0000FFF000000000FFF000000000
0000FFF000000000FFF000000000
0000FFF000000000FFF000000000
0001FFE000000001FFE000000000
0001FFE000000001FFE000000000
0001FFE000000001FFE000000000
0003FFC000000003FFC000000000
0003FFC000000003FFC000000000
0003FFC000000003FFC000000000
0007FF8000000007FF8000000000
0007FF8000000007FF8000000000
0007FF8000000007FF8000000000
000FFF000000000FFF0000000000
000FFF000000000FFF0000000000
000FFF000000000FFF0000000000
001FFE000000001FFE0000000000
001FFE000000001FFE0000000000
001FFE000000001FFE0000000000
003FFC000000003FFC0000000000
003FFC000000003FFC0000000000
003FFC000000003FFC0000000000
007FF8000000007FF80000000000
007FF8000000007FF80000000000
007FF8000000007FF80000000000
00FFF000000000FFF00000000000
00FFF000000000FFF00000000000
0000FFFFFFFFFFF0000000000000
0001FFFFFFFFFFE0000000000000
0001FFFFFFFFFFE0000000000000
0001FFFFFFFFFFE0000000000000
0003FFFFFFFFFFC0000000000000
0003FFFFFFFFFFC0000000000000
0003FFFFFFFFFFC0000000000000
0007FFFFFFFFFF80000000000000
0000000000000000000000000000
0000000000000000000000000000
0000000000000000000000000000
0000000000000000000000000000
0000000000000000000000000000
0000000000000000000000000000
0000000000000000000000000000
0000000000000000000000000000
0000000000000000000000000000
0000000000000000000000000000
0000000000000000000000000000
0000000000000000000000000000
0000000000000000000000000000
0000000000000000000000000000
0000000000000000000000000000
0000000000000000000000000000
ENDCHAR
STARTCHAR U+00D8
ENCODING 216
SWIDTH 1000 0
DWIDTH 80 0
BBX 106 80 -13 -16
BITMAP
0000000000000000003FFC000000
0000000000000000003FFC000000
0000000000000000003FFC000000
0000000000000000007FF8000000
0000000000000000007FF8000000
0000000000000000007FF8000000
000000000000000000FFF0000000
000000000000000000FFF0000000
00000000FFFFFFFFFFF000000000
00000001FFFFFFFFFFE000000000
00000001FFFFFFFFFFE000000000
00000001FFFFFFFFFFE000000000
00000003FFFFFFFFFFC000000000
00000003FFFFFFFFFFC000000000
00000003FFFFFFFFFFC000000000
00000007FFFFFFFFFF8000000000
000007FF80000007FFFF80000000
000007FF80000007FFFF80000000
00000FFF0000000FFFFF00000000
00000FFF0000000FFFFF00000000
00000FFF0000000FFFFF00000000
00001FFE0000001FFFFE00000000
00001FFE0000001FFFFE00000000
00001FFE0000001FFFFE00000000
00003FFC00003FFC3FFC00000000
00003FFC00003FFC3FFC00000000
00003FFC00003FFC3FFC00000000
00007FF800007FF87FF800000000
00007FF800007FF87FF800000000
00007FF800007FF87FF800000000
0000FFF00000FFF0FFF000000000
0000FFF00000FFF0FFF000000000
0000FFF000FFF000FFF000000000
0001FFE001FFE001FFE000000000
0001FFE001FFE001FFE000000000
0001FFE001FFE001FFE000000000
0003FFC003FFC003FFC000000000
0003FFC003FFC003FFC000000000
0003FFC003FFC003FFC000000000
0007FF8007FF8007FF8000000000
0007FF87FF800007FF8000000000
0007FF87FF800007FF8000000000
000FFF0FFF00000FFF0000000000
000FFF0FFF00000FFF0000000000
000FFF0FFF00000FFF0000000000
001FFE1FFE00001FFE0000000000
001FFE1FFE00001FFE0000000000
001FFE1FFE00001FFE0000000000
003FFFFC0000003FFC0000000000
003FFFFC0000003FFC0000000000
003FFFFC0000003FFC0000000000
007FFFF80000007FF80000000000
007FFFF80000007FF80000000000
007FFFF80000007FF80000000000
00FFFFF0000000FFF00000000000
00FFFFF0000000FFF00000000000
0000FFFFFFFFFFF0000000000000
0001FFFFFFFFFFE0000000000000
0001FFFFFFFFFFE0000000000000
0001FFFFFFFFFFE0000000000000
0003FFFFFFFFFFC0000000000000
0003FFFFFFFFFFC0000000000000
0003FFFFFFFFFFC0000000000000
0007FFFFFFFFFF80000000000000
07FF800000000000000000000000
07FF800000000000000000000000
0FFF000000000000000000000000
0FFF000000000000000000000000
0FFF000000000000000000000000
1FFE000000000000000000000000
1FFE000000000000000000000000
1FFE000000000000000000000000
0000000000000000000000000000
0000000000000000000000000000
0000000000000000000000000000
0000000000000000000000000000
0000000000000000000000000000
0000000000000000000000000000
0000000000000000000000000000
0000000000000000000000000000
ENDCHAR
STARTCHAR U+0152
ENCODING 338
SWIDTH 1000 0
DWIDTH 80 0
BBX 106 80 -13 -16
BITMAP
0000000000000000000000000000
0000000000000000000000000000
0000000000000000000000000000
0000000000000000000000000000
0000000000000000000000000000
0000000000000000000000000000
0000000000000000000000000000
0000000000000000000000000000
00000000FFFFF0FFFFFFF0000000
00000001FFFFE1FFFFFFE0000000
00000001FFFFE1FFFFFFE0000000
00000001FFFFE1FFFFFFE0000000
00000003FFFFC3FFFFFFC0000000
00000003FFFFC3FFFFFFC0000000
00000003FFFFC3FFFFFFC0000000
00000007FFFF87FFFFFF80000000
000007FF8007FF80000000000000
000007FF8007FF80000000000000
00000FFF000FFF00000000000000
00000FFF000FFF00000000000000
00000FFF000FFF00000000000000
00001FFE001FFE00000000000000
00001FFE001FFE00000000000000
00001FFE001FFE00000000000000
00003FFC003FFC00000000000000
00003FFC003FFC00000000000000
00003FFC003FFC00000000000000
00007FF8007FF800000000000000
00007FF8007FF800000000000000
00007FF8007FF800000000000000
0000FFF000FFF000000000000000
0000FFF000FFF000000000000000
0000FFF000FFFFFFF00000000000
0001FFE001FFFFFFE00000000000
0001FFE001FFFFFFE00000000000
0001FFE001FFFFFFE00000000000
0003FFC003FFFFFFC00000000000
0003FFC003FFFFFFC00000000000
0003FFC003FFFFFFC00000000000
0007FF8007FFFFFF800000000000
0007FF8007FF8000000000000000
0007FF8007FF8000000000000000
000FFF000FFF0000000000000000
000FFF000FFF0000000000000000
000FFF000FFF0000000000000000
001FFE001FFE0000000000000000
001FFE001FFE0000000000000000
001FFE001FFE0000000000000000
003FFC003FFC0000000000000000
003FFC003FFC0000000000000000
003FFC003FFC0000000000000000
007FF8007FF80000000000000000
007FF8007FF80000000000000000
007FF8007FF80000000000000000
00FFF000FFF00000000000000000
00FFF000FFF00000000000000000
0000FFFFF0FFFFFFF00000000000
0001FFFFE1FFFFFFE00000000000
0001FFFFE1FFFFFFE00000000000
0001FFFFE1FFFFFFE00000000000
0003FFFFC3FFFFFFC00000000000
0003FFFFC3FFFFFFC00000000000
0003FFFFC3FFFFFFC00000000000
0007FFFF87FFFFFF800000000000
0000000000000000000000000000
0000000000000000000000000000
0000000000000000000000000000
0000000000000000000000000000
0000000000000000000000000000
0000000000000000000000000000
0000000000000000000000000000
0000000000000000000000000000
0000000000000000000000000000
0000000000000000000000000000
0000000000000000000000000000
0000000000000000000000000000
0000000000000000000000000000
0000000000000000000000000000
0000000000000000000000000000
0000000000000000000000000000
ENDCHAR
STARTCHAR U+00D6
ENCODING 214
SWIDTH 1000 0
DWIDTH 80 0
BBX 106 80 -13 -16
BITMAP
000000003FFC00003FFC00000000
000000003FFC00003FFC00000000
000000003FFC00003FFC00000000
000000007FF800007FF800000000
000000007FF800007FF800000000
000000007FF800007FF800000000
00000000FFF00000FFF000000000
00000000FFF00000FFF000000000
0000000000000000000000000000
0000000000000000000000000000
0000000000000000000000000000
0000000000000000000000000000
0000000000000000000000000000
0000000000000000000000000000
0000000000000000000000000000
0000000000000000000000000000
00000007FFFFFFFFFF8000000000
00000007FFFFFFFFFF8000000000
0000000FFFFFFFFFFF0000000000
0000000FFFFFFFFFFF0000000000
0000000FFFFFFFFFFF0000000000
0000001FFFFFFFFFFE0000000000
0000001FFFFFFFFFFE0000000000
0000001FFFFFFFFFFE0000000000
00003FFC000000003FFC00000000
00003FFC000000003FFC00000000
00003FFC000000003FFC00000000
00007FF8000000007FF800000000
00007FF8000000007FF800000000
00007FF8000000007FF800000000
0000FFF000000000FFF000000000
0000FFF000000000FFF000000000
0000FFF000000000FFF000000000
0001FFE000000001FFE000000000
0001FFE000000001FFE000000000
0001FFE000000001FFE000000000
0003FFC000000003FFC000000000
0003FFC000000003FFC000000000
0003FFC000000003FFC000000000
0007FF8000000007FF8000000000
0007FF8000000007FF8000000000
0007FF8000000007FF8000000000
000FFF000000000FFF0000000000
000FFF000000000FFF0000000000
000FFF000000000FFF0000000000
001FFE000000001FFE0000000000
001FFE000000001FFE0000000000
001FFE000000001FFE0000000000
003FFC000000003FFC0000000000
003FFC000000003FFC0000000000
003FFC000000003FFC0000000000
007FF8000000007FF80000000000
007FF8000000007FF80000000000
007FF8000000007FF80000000000
00FFF000000000FFF00000000000
00FFF000000000FFF00000000000
0000FFFFFFFFFFF0000000000000
0001FFFFFFFFFFE0000000000000
0001FFFFFFFFFFE0000000000000
0001FFFFFFFFFFE0000000000000
0003FFFFFFFFFFC0000000000000
0003FFFFFFFFFFC0000000000000
0003FFFFFFFFFFC0000000000000
0007FFFFFFFFFF80000000000000
0000000000000000000000000000
0000000000000000000000000000
0000000000000000000000000000
0000000000000000000000000000
0000000000000000000000000000
0000000000000000000000000000
0000000000000000000000000000
0000000000000000000000000000
0000000000000000000000000000
0000000000000000000000000000
0000000000000000000000000000
0000000000000000000000000000
0000000000000000000000000000
0000000000000000000000000000
0000000000000000000000000000
0000000000000000000000000000
ENDCHAR
STARTCHAR U+00D5
ENCODING 213
SWIDTH 1000 0
DWIDTH 80 0
BBX 106 80 -13 -16
BITMAP
000000003FFFFC003FFC00000000
000000003FFFFC003FFC00000000
000000003FFFFC003FFC00000000
000000007FFFF8007FF800000000
000000007FFFF8007FF800000000
000000007FFFF8007FF800000000
00000000FFFFF000FFF000000000
00000000FFFFF000FFF000000000
000000FFF000FFFFF00000000000
000001FFE001FFFFE00000000000
000001FFE001FFFFE00000000000
000001FFE001FFFFE00000000000
000003FFC003FFFFC00000000000
000003FFC003FFFFC00000000000
000003FFC003FFFFC00000000000
000007FF8007FFFF800000000000
00000007FFFFFFFFFF8000000000
00000007FFFFFFFFFF8000000000
0000000FFFFFFFFFFF0000000000
0000000FFFFFFFFFFF0000000000
0000000FFFFFFFFFFF0000000000
0000001FFFFFFFFFFE0000000000
0000001FFFFFFFFFFE0000000000
0000001FFFFFFFFFFE0000000000
00003FFC000000003FFC00000000
00003FFC000000003FFC00000000
00003FFC000000003FFC00000000
00007FF8000000007FF800000000
00007FF8000000007FF800000000
00007FF8000000007FF800000000
0000FFF000000000FFF000000000
0000FFF000000000FFF000000000
0000FFF000000000FFF000000000
0001FFE000000001FFE000000000
0001FFE000000001FFE000000000
0001FFE000000001FFE000000000
0003FFC000000003FFC000000000
0003FFC000000003FFC000000000
0003FFC000000003FFC000000000
0007FF8000000007FF8000000000
0007FF8000000007FF8000000000
0007FF8000000007FF8000000000
000FFF000000000FFF0000000000
000FFF000000000FFF0000000000
000FFF000000000FFF0000000000
001FFE000000001FFE0000000000
001FFE000000001FFE0000000000
001FFE000000001FFE0000000000
003FFC000000003FFC0000000000
003FFC000000003FFC0000000000
003FFC000000003FFC0000000000
007FF8000000007FF80000000000
007FF8000000007FF80000000000
007FF8000000007FF80000000000
00FFF000000000FFF00000000000
00FFF000000000FFF00000000000
0000FFFFFFFFFFF0000000000000
0001FFFFFFFFFFE0000000000000
0001FFFFFFFFFFE0000000000000
0001FFFFFFFFFFE0000000000000
0003FFFFFFFFFFC0000000000000
0003FFFFFFFFFFC0000000000000
0003FFFFFFFFFFC0000000000000
0007FFFFFFFFFF80000000000000
0000000000000000000000000000
0000000000000000000000000000
0000000000000000000000000000
0000000000000000000000000000
0000000000000000000000000000
0000000000000000000000000000
0000000000000000000000000000
0000000000000000000000000000
0000000000000000000000000000
0000000000000000000000000000
0000000000000000000000000000
0000000000000000000000000000
0000000000000000000000000000
0000000000000000000000000000
0000000000000000000000000000
0000000000000000000000000000
ENDCHAR
STARTCHAR U+00D4
ENCODING 212
SWIDTH 1000 0
DWIDTH 80 0
BBX 106 80 -13 -16
BITMAP
00000000003FFFFFFC0000000000
00000000003FFFFFFC0000000000
00000000003FFFFFFC0000000000
00000000007FFFFFF80000000000
00000000007FFFFFF80000000000
00000000007FFFFFF80000000000
0000000000FFFFFFF00000000000
0000000000FFFFFFF00000000000
00000000FFF00000FFF000000000
00000001FFE00001FFE000000000
00000001FFE00001FFE000000000
00000001FFE00001FFE000000000
00000003FFC00003FFC000000000
00000003FFC00003FFC000000000
00000003FFC00003FFC000000000
00000007FF800007FF8000000000
00000007FFFFFFFFFF8000000000
00000007FFFFFFFFFF8000000000
0000000FFFFFFFFFFF0000000000
0000000FFFFFFFFFFF0000000000
0000000FFFFFFFFFFF0000000000
0000001FFFFFFFFFFE0000000000
0000001FFFFFFFFFFE0000000000
0000001FFFFFFFFFFE0000000000
00003FFC000000003FFC00000000
00003FFC000000003FFC00000000
00003FFC000000003FFC00000000
00007FF8000000007FF800000000
00007FF8000000007FF800000000
00007FF8000000007FF800000000
0000FFF000000000FFF000000000
0000FFF000000000FFF000000000
0000FFF000000000FFF000000000
0001FFE000000001FFE000000000
0001FFE000000001FFE000000000
0001FFE000000001FFE000000000
0003FFC000000003FFC000000000
0003FFC000000003FFC000000000
0003FFC000000003FFC000000000
0007FF8000000007FF8000000000
0007FF8000000007FF8000000000
0007FF8000000007FF8000000000
000FFF000000000FFF0000000000
000FFF000000000FFF0000000000
000FFF000000000FFF0000000000
001FFE000000001FFE0000000000
001FFE000000001FFE0000000000
001FFE000000001FFE0000000000
003FFC000000003FFC0000000000
003FFC000000003FFC0000000000
003FFC000000003FFC0000000000
007FF8000000007FF80000000000
007FF8000000007FF80000000000
007FF8000000007FF80000000000
00FFF000000000FFF00000000000
00FFF000000000FFF00000000000
0000FFFFFFFFFFF0000000000000
0001FFFFFFFFFFE0000000000000
0001FFFFFFFFFFE0000000000000
0001FFFFFFFFFFE0000000000000
0003FFFFFFFFFFC0000000000000
0003FFFFFFFFFFC0000000000000
0003FFFFFFFFFFC0000000000000
0007FFFFFFFFFF80000000000000
0000000000000000000000000000
0000000000000000000000000000
0000000000000000000000000000
0000000000000000000000000000
0000000000000000000000000000
0000000000000000000000000000
0000000000000000000000000000
0000000000000000000000000000
0000000000000000000000000000
0000000000000000000000000000
0000000000000000000000000000
0000000000000000000000000000
0000000000000000000000000000
0000000000000000000000000000
0000000000000000000000000000
0000000000000000000000000000
ENDCHAR
STARTCHAR U+00D3
ENCODING 211
SWIDTH 1000 0
DWIDTH 80 0
BBX 106 80 -13 -16
BITMAP
0000000000003FFFFC0000000000
0000000000003FFFFC0000000000
0000000000003FFFFC0000000000
0000000000007FFFF80000000000
0000000000007FFFF80000000000
0000000000007FFFF80000000000
000000000000FFFFF00000000000
000000000000FFFFF00000000000
00000000FFFFF000000000000000
00000001FFFFE000000000000000
00000001FFFFE000000000000000
00000001FFFFE000000000000000
00000003FFFFC000000000000000
00000003FFFFC000000000000000
00000003FFFFC000000000000000
00000007FFFF8000000000000000
00000007FFFFFFFFFF8000000000
00000007FFFFFFFFFF8000000000
0000000FFFFFFFFFFF0000000000
0000000FFFFFFFFFFF0000000000
0000000FFFFFFFFFFF0000000000
0000001FFFFFFFFFFE0000000000
0000001FFFFFFFFFFE0000000000
0000001FFFFFFFFFFE0000000000
00003FFC000000003FFC00000000
00003FFC000000003FFC00000000
00003FFC000000003FFC00000000
00007FF8000000007FF800000000
00007FF8000000007FF800000000
00007FF8000000007FF800000000
0000FFF000000000FFF000000000
0000FFF000000000FFF000000000
0000FFF000000000FFF000000000
0001FFE000000001FFE000000000
0001FFE000000001FFE000000000
0001FFE000000001FFE000000000
0003FFC000000003FFC000000000
0003FFC000000003FFC000000000
0003FFC000000003FFC000000000
0007FF8000000007FF8000000000
0007FF8000000007FF8000000000
0007FF8000000007FF8000000000
000FFF000000000FFF0000000000
000FFF000000000FFF0000000000
000FFF000000000FFF0000000000
001FFE000000001FFE0000000000
001FFE000000001FFE0000000000
001FFE000000001FFE0000000000
003FFC000000003FFC0000000000
003FFC000000003FFC0000000000
003FFC000000003FFC0000000000
007FF8000000007FF80000000000
007FF8000000007FF80000000000
007FF8000000007FF80000000000
00FFF000000000FFF00000000000
00FFF000000000FFF00000000000
0000FFFFFFFFFFF0000000000000
0001FFFFFFFFFFE0000000000000
0001FFFFFFFFFFE0000000000000
0001FFFFFFFFFFE0000000000000
0003FFFFFFFFFFC0000000000000
0003FFFFFFFFFFC0000000000000
0003FFFFFFFFFFC0000000000000
0007FFFFFFFFFF80000000000000
0000000000000000000000000000
0000000000000000000000000000
0000000000000000000000000000
0000000000000000000000000000
0000000000000000000000000000
0000000000000000000000000000
0000000000000000000000000000
0000000000000000000000000000
0000000000000000000000000000
0000000000000000000000000000
0000000000000000000000000000
0000000000000000000000000000
0000000000000000000000000000
0000000000000000000000000000
0000000000000000000000000000
0000000000000000000000000000
ENDCHAR
STARTCHAR U+00D2
ENCODING 210
SWIDTH 1000 0
DWIDTH 80 0
BBX 106 80 -13 -16
BITMAP
00000000003FFFFC000000000000
00000000003FFFFC000000000000
00000000003FFFFC000000000000
00000000007FFFF8000000000000
00000000007FFFF8000000000000
00000000007FFFF8000000000000
0000000000FFFFF0000000000000
0000000000FFFFF0000000000000
00000000000000FFFFF000000000
00000000000001FFFFE000000000
00000000000001FFFFE000000000
00000000000001FFFFE000000000
00000000000003FFFFC000000000
00000000000003FFFFC000000000
00000000000003FFFFC000000000
00000000000007FFFF8000000000
00000007FFFFFFFFFF8000000000
00000007FFFFFFFFFF8000000000
0000000FFFFFFFFFFF0000000000
0000000FFFFFFFFFFF0000000000
0000000FFFFFFFFFFF0000000000
0000001FFFFFFFFFFE0000000000
0000001FFFFFFFFFFE0000000000
0000001FFFFFFFFFFE0000000000
00003FFC000000003FFC00000000
00003FFC000000003FFC00000000
00003FFC000000003FFC00000000
00007FF8000000007FF800000000
00007FF8000000007FF800000000
00007FF8000000007FF800000000
0000FFF000000000FFF000000000
0000FFF000000000FFF000000000
0000FFF000000000FFF000000000
0001FFE000000001FFE000000000
0001FFE000000001FFE000000000
0001FFE000000001FFE000000000
0003FFC000000003FFC000000000
0003FFC000000003FFC000000000
0003FFC000000003FFC000000000
0007FF8000000007FF8000000000
0007FF8000000007FF8000000000
0007FF8000000007FF8000000000
000FFF000000000FFF0000000000
000FFF000000000FFF0000000000
000FFF000000000FFF0000000000
001FFE000000001FFE0000000000
001FFE000000001FFE0000000000
001FFE000000001FFE0000000000
003FFC000000003FFC0000000000
003FFC000000003FFC0000000000
003FFC000000003FFC0000000000
007FF8000000007FF80000000000
007FF8000000007FF80000000000
007FF8000000007FF80000000000
00FFF000000000FFF00000000000
00FFF000000000FFF00000000000
0000FFFFFFFFFFF0000000000000
0001FFFFFFFFFFE0000000000000
0001FFFFFFFFFFE0000000000000
0001FFFFFFFFFFE0000000000000
0003FFFFFFFFFFC0000000000000
0003FFFFFFFFFFC0000000000000
0003FFFFFFFFFFC0000000000000
0007FFFFFFFFFF80000000000000
0000000000000000000000000000
0000000000000000000000000000
0000000000000000000000000000
0000000000000000000000000000
0000000000000000000000000000
0000000000000000000000000000
0000000000000000000000000000
0000000000000000000000000000
0000000000000000000000000000
0000000000000000000000000000
0000000000000000000000000000
0000000000000000000000000000
0000000000000000000000000000
0000000000000000000000000000
0000000000000000000000000000
0000000000000000000000000000
ENDCHAR
STARTCHAR U+00D1
ENCODING 209
SWIDTH 1000 0
DWIDTH 80 0
BBX 106 80 -13 -16
BITMAP
00000000003FFFFC003FFC000000
00000000003FFFFC003FFC000000
00000000003FFFFC003FFC000000
00000000007FFFF8007FF8000000
00000000007FFFF8007FF8000000
00000000007FFFF8007FF8000000
0000000000FFFFF000FFF0000000
0000000000FFFFF000FFF0000000
00000000FFF000FFFFF000000000
00000001FFE001FFFFE000000000
00000001FFE001FFFFE000000000
00000001FFE001FFFFE000000000
00000003FFC003FFFFC000000000
00000003FFC003FFFFC000000000
00000003FFC003FFFFC000000000
00000007FF8007FFFF8000000000
000007FFFF80000007FF80000000
000007FFFF80000007FF80000000
00000FFFFF0000000FFF00000000
00000FFFFF0000000FFF00000000
00000FFFFF0000000FFF00000000
00001FFFFE0000001FFE00000000
00001FFFFE0000001FFE00000000
00001FFFFE0000001FFE00000000
00003FFC3FFC00003FFC00000000
00003FFC3FFC00003FFC00000000
00003FFC3FFC00003FFC00000000
00007FF87FF800007FF800000000
00007FF87FF800007FF800000000
00007FF87FF800007FF800000000
0000FFF0FFF00000FFF000000000
0000FFF0FFF00000FFF000000000
0000FFF000FFF000FFF000000000
0001FFE001FFE001FFE000000000
0001FFE001FFE001FFE000000000
0001FFE001FFE001FFE000000000
0003FFC003FFC003FFC000000000
0003FFC003FFC003FFC000000000
0003FFC003FFC003FFC000000000
0007FF8007FF8007FF8000000000
0007FF800007FF87FF8000000000
0007FF800007FF87FF8000000000
000FFF00000FFF0FFF0000000000
000FFF00000FFF0FFF0000000000
000FFF00000FFF0FFF0000000000
001FFE00001FFE1FFE0000000000
001FFE00001FFE1FFE0000000000
001FFE00001FFE1FFE0000000000
003FFC0000003FFFFC0000000000
003FFC0000003FFFFC0000000000
003FFC0000003FFFFC0000000000
007FF80000007FFFF80000000000
007FF80000007FFFF80000000000
007FF80000007FFFF80000000000
00FFF0000000FFFFF00000000000
00FFF0000000FFFFF00000000000
00FFF000000000FFF00000000000
01FFE000000001FFE00000000000
01FFE000000001FFE00000000000
01FFE000000001FFE00000000000
03FFC000000003FFC00000000000
03FFC000000003FFC00000000000
03FFC000000003FFC00000000000
07FF8000000007FF800000000000
0000000000000000000000000000
0000000000000000000000000000
0000000000000000000000000000
0000000000000000000000000000
0000000000000000000000000000
0000000000000000000000000000
0000000000000000000000000000
0000000000000000000000000000
0000000000000000000000000000
0000000000000000000000000000
0000000000000000000000000000
0000000000000000000000000000
0000000000000000000000000000
0000000000000000000000000000
0000000000000000000000000000
0000000000000000000000000000
ENDCHAR
STARTCHAR U+00D0
ENCODING 208
SWIDTH 1000 0
DWIDTH 80 0
BBX 106 80 -13 -16
BITMAP
0000000000000000000000000000
0000000000000000000000000000
0000000000000000000000000000
0000000000000000000000000000
0000000000000000000000000000
0000000000000000000000000000
0000000000000000000000000000
0000000000000000000000000000
000000FFFFFFFFFFF00000000000
000001FFFFFFFFFFE00000000000
000001FFFFFFFFFFE00000000000
000001FFFFFFFFFFE00000000000
000003FFFFFFFFFFC00000000000
000003FFFFFFFFFFC00000000000
000003FFFFFFFFFFC00000000000
000007FFFFFFFFFF800000000000
00000007FF800007FF8000000000
00000007FF800007FF8000000000
0000000FFF00000FFF0000000000
0000000FFF00000FFF0000000000
0000000FFF00000FFF0000000000
0000001FFE00001FFE0000000000
0000001FFE00001FFE0000000000
0000001FFE00001FFE0000000000
0000003FFC0000003FFC00000000
0000003FFC0000003FFC00000000
0000003FFC0000003FFC00000000
0000007FF80000007FF800000000
0000007FF80000007FF800000000
0000007FF80000007FF800000000
000000FFF0000000FFF000000000
000000FFF0000000FFF000000000
0000FFFFFFFFF000FFF000000000
0001FFFFFFFFE001FFE000000000
0001FFFFFFFFE001FFE000000000
0001FFFFFFFFE001FFE000000000
0003FFFFFFFFC003FFC000000000
0003FFFFFFFFC003FFC000000000
0003FFFFFFFFC003FFC000000000
0007FFFFFFFF8007FF8000000000
000007FF80000007FF8000000000
000007FF80000007FF8000000000
00000FFF0000000FFF0000000000
00000FFF0000000FFF0000000000
00000FFF0000000FFF0000000000
00001FFE0000001FFE0000000000
00001FFE0000001FFE0000000000
00001FFE0000001FFE0000000000
00003FFC00003FFC000000000000
00003FFC00003FFC000000000000
00003FFC00003FFC000000000000
00007FF800007FF8000000000000
00007FF800007FF8000000000000
00007FF800007FF8000000000000
0000FFF00000FFF0000000000000
0000FFF00000FFF0000000000000
00FFFFFFFFFFF000000000000000
01FFFFFFFFFFE000000000000000
01FFFFFFFFFFE000000000000000
01FFFFFFFFFFE000000000000000
03FFFFFFFFFFC000000000000000
03FFFFFFFFFFC000000000000000
03FFFFFFFFFFC000000000000000
07FFFFFFFFFF8000000000000000
0000000000000000000000000000
0000000000000000000000000000
0000000000000000000000000000
0000000000000000000000000000
0000000000000000000000000000
0000000000000000000000000000
0000000000000000000000000000
0000000000000000000000000000
0000000000000000000000000000
0000000000000000000000000000
0000000000000000000000000000
0000000000000000000000000000
0000000000000000000000000000
0000000000000000000000000000
0000000000000000000000000000
0000000000000000000000000000
ENDCHAR
STARTCHAR U+00CF
ENCODING 207
SWIDTH 1000 0
DWIDTH 80 0
BBX 106 80 -13 -16
BITMAP
000000003FFC00003FFC00000000
000000003FFC00003FFC00000000
000000003FFC00003FFC00000000
000000007FF800007FF800000000
000000007FF800007FF800000000
000000007FF800007FF800000000
00000000FFF00000FFF000000000
00000000FFF00000FFF000000000
0000000000000000000000000000
0000000000000000000000000000
0000000000000000000000000000
0000000000000000000000000000
0000000000000000000000000000
0000000000000000000000000000
0000000000000000000000000000
0000000000000000000000000000
00000007FFFFFFFFFF8000000000
00000007FFFFFFFFFF8000000000
0000000FFFFFFFFFFF0000000000
0000000FFFFFFFFFFF0000000000
0000000FFFFFFFFFFF0000000000
0000001FFFFFFFFFFE0000000000
0000001FFFFFFFFFFE0000000000
0000001FFFFFFFFFFE0000000000
00000000003FFC00000000000000
00000000003FFC00000000000000
00000000003FFC00000000000000
00000000007FF800000000000000
00000000007FF800000000000000
00000000007FF800000000000000
0000000000FFF000000000000000
0000000000FFF000000000000000
0000000000FFF000000000000000
0000000001FFE000000000000000
0000000001FFE000000000000000
0000000001FFE000000000000000
0000000003FFC000000000000000
0000000003FFC000000000000000
0000000003FFC000000000000000
0000000007FF8000000000000000
0000000007FF8000000000000000
0000000007FF8000000000000000
000000000FFF0000000000000000
000000000FFF0000000000000000
000000000FFF0000000000000000
000000001FFE0000000000000000
000000001FFE0000000000000000
000000001FFE0000000000000000
000000003FFC0000000000000000
000000003FFC0000000000000000
000000003FFC0000000000000000
000000007FF80000000000000000
000000007FF80000000000000000
000000007FF80000000000000000
00000000FFF00000000000000000
00000000FFF00000000000000000
0000FFFFFFFFFFF0000000000000
0001FFFFFFFFFFE0000000000000
0001FFFFFFFFFFE0000000000000
0001FFFFFFFFFFE0000000000000
0003FFFFFFFFFFC0000000000000
0003FFFFFFFFFFC0000000000000
0003FFFFFFFFFFC0000000000000
0007FFFFFFFFFF80000000000000
0000000000000000000000000000
0000000000000000000000000000
0000000000000000000000000000
0000000000000000000000000000
0000000000000000000000000000
0000000000000000000000000000
0000000000000000000000000000
0000000000000000000000000000
0000000000000000000000000000
0000000000000000000000000000
0000000000000000000000000000
0000000000000000000000000000
0000000000000000000000000000
0000000000000000000000000000
0000000000000000000000000000
0000000000000000000000000000
ENDCHAR
STARTCHAR U+00CE
ENCODING 206
SWIDTH 1000 0
DWIDTH 80 0
BBX 106 80 -13 -16
BITMAP
00000000003FFFFFFC0000000000
00000000003FFFFFFC0000000000
00000000003FFFFFFC0000000000
00000000007FFFFFF80000000000
00000000007FFFFFF80000000000
00000000007FFFFFF80000000000
0000000000FFFFFFF00000000000
0000000000FFFFFFF00000000000
00000000FFF00000FFF000000000
00000001FFE00001FFE000000000
00000001FFE00001FFE000000000
00000001FFE00001FFE000000000
00000003FFC00003FFC000000000
00000003FFC00003FFC000000000
00000003FFC00003FFC000000000
00000007FF800007FF8000000000
00000007FFFFFFFFFF8000000000
00000007FFFFFFFFFF8000000000
0000000FFFFFFFFFFF0000000000
0000000FFFFFFFFFFF0000000000
0000000FFFFFFFFFFF0000000000
0000001FFFFFFFFFFE0000000000
0000001FFFFFFFFFFE0000000000
0000001FFFFFFFFFFE0000000000
00000000003FFC00000000000000
00000000003FFC00000000000000
00000000003FFC00000000000000
00000000007FF800000000000000
00000000007FF800000000000000
00000000007FF800000000000000
0000000000FFF000000000000000
0000000000FFF000000000000000
0000000000FFF000000000000000
0000000001FFE000000000000000
0000000001FFE000000000000000
0000000001FFE000000000000000
0000000003FFC000000000000000
0000000003FFC000000000000000
0000000003FFC000000000000000
0000000007FF8000000000000000
0000000007FF8000000000000000
0000000007FF8000000000000000
000000000FFF0000000000000000
000000000FFF0000000000000000
000000000FFF0000000000000000
000000001FFE0000000000000000
000000001FFE0000000000000000
000000001FFE0000000000000000
000000003FFC0000000000000000
000000003FFC0000000000000000
000000003FFC0000000000000000
000000007FF80000000000000000
000000007FF80000000000000000
000000007FF80000000000000000
00000000FFF00000000000000000
00000000FFF00000000000000000
0000FFFFFFFFFFF0000000000000
0001FFFFFFFFFFE0000000000000
0001FFFFFFFFFFE0000000000000
0001FFFFFFFFFFE0000000000000
0003FFFFFFFFFFC0000000000000
0003FFFFFFFFFFC0000000000000
0003FFFFFFFFFFC0000000000000
0007FFFFFFFFFF80000000000000
0000000000000000000000000000
0000000000000000000000000000
0000000000000000000000000000
0000000000000000000000000000
0000000000000000000000000000
0000000000000000000000000000
0000000000000000000000000000
0000000000000000000000000000
0000000000000000000000000000
0000000000000000000000000000
0000000000000000000000000000
0000000000000000000000000000
0000000000000000000000000000
0000000000000000000000000000
0000000000000000000000000000
0000000000000000000000000000
ENDCHAR
STARTCHAR U+00CD
ENCODING 205
SWIDTH 1000 0
DWIDTH 80 0
BBX 106 80 -13 -16
BITMAP
0000000000003FFFFC0000000000
0000000000003FFFFC0000000000
0000000000003FFFFC0000000000
0000000000007FFFF80000000000
0000000000007FFFF80000000000
0000000000007FFFF80000000000
000000000000FFFFF00000000000
000000000000FFFFF00000000000
00000000FFFFF000000000000000
00000001FFFFE000000000000000
00000001FFFFE000000000000000
00000001FFFFE000000000000000
00000003FFFFC000000000000000
00000003FFFFC000000000000000
00000003FFFFC000000000000000
00000007FFFF8000000000000000
00000007FFFFFFFFFF8000000000
00000007FFFFFFFFFF8000000000
0000000FFFFFFFFFFF0000000000
0000000FFFFFFFFFFF0000000000
0000000FFFFFFFFFFF0000000000
0000001FFFFFFFFFFE0000000000
0000001FFFFFFFFFFE0000000000
0000001FFFFFFFFFFE0000000000
00000000003FFC00000000000000
00000000003FFC00000000000000
00000000003FFC00000000000000
00000000007FF800000000000000
00000000007FF800000000000000
00000000007FF800000000000000
0000000000FFF000000000000000
0000000000FFF000000000000000
0000000000FFF000000000000000
0000000001FFE000000000000000
0000000001FFE000000000000000
0000000001FFE000000000000000
0000000003FFC000000000000000
0000000003FFC000000000000000
0000000003FFC000000000000000
0000000007FF8000000000000000
0000000007FF8000000000000000
0000000007FF8000000000000000
000000000FFF0000000000000000
000000000FFF0000000000000000
000000000FFF0000000000000000
000000001FFE0000000000000000
000000001FFE0000000000000000
000000001FFE0000000000000000
000000003FFC0000000000000000
000000003FFC0000000000000000
000000003FFC0000000000000000
000000007FF80000000000000000
000000007FF80000000000000000
000000007FF80000000000000000
00000000FFF00000000000000000
00000000FFF00000000000000000
0000FFFFFFFFFFF0000000000000
0001FFFFFFFFFFE0000000000000
0001FFFFFFFFFFE0000000000000
0001FFFFFFFFFFE0000000000000
0003FFFFFFFFFFC0000000000000
0003FFFFFFFFFFC0000000000000
0003FFFFFFFFFFC0000000000000
0007FFFFFFFFFF80000000000000
0000000000000000000000000000
0000000000000000000000000000
0000000000000000000000000000
0000000000000000000000000000
0000000000000000000000000000
0000000000000000000000000000
0000000000000000000000000000
0000000000000000000000000000
0000000000000000000000000000
0000000000000000000000000000
0000000000000000000000000000
0000000000000000000000000000
0000000000000000000000000000
0000000000000000000000000000
0000000000000000000000000000
0000000000000000000000000000
ENDCHAR
STARTCHAR U+00CC
ENCODING 204
SWIDTH 1000 0
DWIDTH 80 0
BBX 106 80 -13 -16
BITMAP
00000000003FFFFC000000000000
00000000003FFFFC000000000000
00000000003FFFFC000000000000
00000000007FFFF8000000000000
00000000007FFFF8000000000000
00000000007FFFF8000000000000
0000000000FFFFF0000000000000
0000000000FFFFF0000000000000
00000000000000FFFFF000000000
00000000000001FFFFE000000000
00000000000001FFFFE000000000
00000000000001FFFFE000000000
00000000000003FFFFC000000000
00000000000003FFFFC000000000
00000000000003FFFFC000000000
00000000000007FFFF8000000000
00000007FFFFFFFFFF8000000000
00000007FFFFFFFFFF8000000000
0000000FFFFFFFFFFF0000000000
0000000FFFFFFFFFFF0000000000
0000000FFFFFFFFFFF0000000000
0000001FFFFFFFFFFE0000000000
0000001FFFFFFFFFFE0000000000
0000001FFFFFFFFFFE0000000000
00000000003FFC00000000000000
00000000003FFC00000000000000
00000000003FFC00000000000000
00000000007FF800000000000000
00000000007FF800000000000000
00000000007FF800000000000000
0000000000FFF000000000000000
0000000000FFF000000000000000
0000000000FFF000000000000000
0000000001FFE000000000000000
0000000001FFE000000000000000
0000000001FFE000000000000000
0000000003FFC000000000000000
0000000003FFC000000000000000
0000000003FFC000000000000000
0000000007FF8000000000000000
0000000007FF8000000000000000
0000000007FF8000000000000000
000000000FFF0000000000000000
000000000FFF0000000000000000
000000000FFF0000000000000000
000000001FFE0000000000000000
000000001FFE0000000000000000
000000001FFE0000000000000000
000000003FFC0000000000000000
000000003FFC0000000000000000
000000003FFC0000000000000000
000000007FF80000000000000000
000000007FF80000000000000000
000000007FF80000000000000000
00000000FFF00000000000000000
00000000FFF00000000000000000
0000FFFFFFFFFFF0000000000000
0001FFFFFFFFFFE0000000000000
0001FFFFFFFFFFE0000000000000
0001FFFFFFFFFFE0000000000000
0003FFFFFFFFFFC0000000000000
0003FFFFFFFFFFC0000000000000
0003FFFFFFFFFFC0000000000000
0007FFFFFFFFFF80000000000000
0000000000000000000000000000
0000000000000000000000000000
0000000000000000000000000000
0000000000000000000000000000
0000000000000000000000000000
0000000000000000000000000000
0000000000000000000000000000
0000000000000000000000000000
0000000000000000000000000000
0000000000000000000000000000
0000000000000000000000000000
0000000000000000000000000000
0000000000000000000000000000
0000000000000000000000000000
0000000000000000000000000000
0000000000000000000000000000
ENDCHAR
STARTCHAR U+00CB
ENCODING 203
SWIDTH 1000 0
DWIDTH 80 0
BBX 106 80 -13 -16
BITMAP
000000003FFC00003FFC00000000
000000003FFC00003FFC00000000
000000003FFC00003FFC00000000
000000007FF800007FF800000000
000000007FF800007FF800000000
000000007FF800007FF800000000
00000000FFF00000FFF000000000
00000000FFF00000FFF000000000
0000000000000000000000000000
0000000000000000000000000000
0000000000000000000000000000
0000000000000000000000000000
0000000000000000000000000000
0000000000000000000000000000
0000000000000000000000000000
0000000000000000000000000000
000007FFFFFFFFFFFFFF80000000
000007FFFFFFFFFFFFFF80000000
00000FFFFFFFFFFFFFFF00000000
00000FFFFFFFFFFFFFFF00000000
00000FFFFFFFFFFFFFFF00000000
00001FFFFFFFFFFFFFFE00000000
00001FFFFFFFFFFFFFFE00000000
00001FFFFFFFFFFFFFFE00000000
00003FFC00000000000000000000
00003FFC00000000000000000000
00003FFC00000000000000000000
00007FF800000000000000000000
00007FF800000000000000000000
00007FF800000000000000000000
0000FFF000000000000000000000
0000FFF000000000000000000000
0000FFFFFFFFFFF0000000000000
0001FFFFFFFFFFE0000000000000
0001FFFFFFFFFFE0000000000000
0001FFFFFFFFFFE0000000000000
0003FFFFFFFFFFC0000000000000
0003FFFFFFFFFFC0000000000000
0003FFFFFFFFFFC0000000000000
0007FFFFFFFFFF80000000000000
0007FF8000000000000000000000
0007FF8000000000000000000000
000FFF0000000000000000000000
000FFF0000000000000000000000
000FFF0000000000000000000000
001FFE0000000000000000000000
001FFE0000000000000000000000
001FFE0000000000000000000000
003FFC0000000000000000000000
003FFC0000000000000000000000
003FFC0000000000000000000000
007FF80000000000000000000000
007FF80000000000000000000000
007FF80000000000000000000000
00FFF00000000000000000000000
00FFF00000000000000000000000
00FFFFFFFFFFFFFFF00000000000
01FFFFFFFFFFFFFFE00000000000
01FFFFFFFFFFFFFFE00000000000
01FFFFFFFFFFFFFFE00000000000
03FFFFFFFFFFFFFFC00000000000
03FFFFFFFFFFFFFFC00000000000
03FFFFFFFFFFFFFFC00000000000
07FFFFFFFFFFFFFF800000000000
0000000000000000000000000000
0000000000000000000000000000
0000000000000000000000000000
0000000000000000000000000000
0000000000000000000000000000
0000000000000000000000000000
0000000000000000000000000000
0000000000000000000000000000
0000000000000000000000000000
0000000000000000000000000000
0000000000000000000000000000
0000000000000000000000000000
0000000000000000000000000000
0000000000000000000000000000
0000000000000000000000000000
0000000000000000000000000000
ENDCHAR
STARTCHAR U+00CA
ENCODING 202
SWIDTH 1000 0
DWIDTH 80 0
BBX 106 80 -13 -16
BITMAP
00000000003FFFFFFC0000000000
00000000003FFFFFFC0000000000
00000000003FFFFFFC0000000000
00000000007FFFFFF80000000000
00000000007FFFFFF80000000000
00000000007FFFFFF80000000000
0000000000FFFFFFF00000000000
0000000000FFFFFFF00000000000
00000000FFF00000FFF000000000
00000001FFE00001FFE000000000
00000001FFE00001FFE000000000
00000001FFE00001FFE000000000
00000003FFC00003FFC000000000
00000003FFC00003FFC000000000
00000003FFC00003FFC000000000
00000007FF800007FF8000000000
000007FFFFFFFFFFFFFF80000000
000007FFFFFFFFFFFFFF80000000
00000FFFFFFFFFFFFFFF00000000
00000FFFFFFFFFFFFFFF00000000
00000FFFFFFFFFFFFFFF00000000
00001FFFFFFFFFFFFFFE00000000
00001FFFFFFFFFFFFFFE00000000
00001FFFFFFFFFFFFFFE00000000
00003FFC00000000000000000000
00003FFC00000000000000000000
00003FFC00000000000000000000
00007FF800000000000000000000
00007FF800000000000000000000
00007FF800000000000000000000
0000FFF000000000000000000000
0000FFF000000000000000000000
0000FFFFFFFFF000000000000000
0001FFFFFFFFE000000000000000
0001FFFFFFFFE000000000000000
0001FFFFFFFFE000000000000000
0003FFFFFFFFC000000000000000
0003FFFFFFFFC000000000000000
0003FFFFFFFFC000000000000000
0007FFFFFFFF8000000000000000
0007FF8000000000000000000000
0007FF8000000000000000000000
000FFF0000000000000000000000
000FFF0000000000000000000000
000FFF0000000000000000000000
001FFE0000000000000000000000
001FFE0000000000000000000000
001FFE0000000000000000000000
003FFC0000000000000000000000
003FFC0000000000000000000000
003FFC0000000000000000000000
007FF80000000000000000000000
007FF80000000000000000000000
007FF80000000000000000000000
00FFF00000000000000000000000
00FFF00000000000000000000000
00FFFFFFFFFFFFFFF00000000000
01FFFFFFFFFFFFFFE00000000000
01FFFFFFFFFFFFFFE00000000000
01FFFFFFFFFFFFFFE00000000000
03FFFFFFFFFFFFFFC00000000000
03FFFFFFFFFFFFFFC00000000000
03FFFFFFFFFFFFFFC00000000000
07FFFFFFFFFFFFFF800000000000
0000000000000000000000000000
0000000000000000000000000000
0000000000000000000000000000
0000000000000000000000000000
0000000000000000000000000000
0000000000000000000000000000
0000000000000000000000000000
0000000000000000000000000000
0000000000000000000000000000
0000000000000000000000000000
0000000000000000000000000000
0000000000000000000000000000
0000000000000000000000000000
0000000000000000000000000000
0000000000000000000000000000
0000000000000000000000000000
ENDCHAR
STARTCHAR U+00C9
ENCODING 201
SWIDTH 1000 0
DWIDTH 80 0
BBX 106 80 -13 -16
BITMAP
000000000000003FFFFC00000000
000000000000003FFFFC00000000
000000000000003FFFFC00000000
000000000000007FFFF800000000
000000000000007FFFF800000000
000000000000007FFFF800000000
00000000000000FFFFF000000000
00000000000000FFFFF000000000
0000000000FFFFF0000000000000
0000000001FFFFE0000000000000
0000000001FFFFE0000000000000
0000000001FFFFE0000000000000
0000000003FFFFC0000000000000
0000000003FFFFC0000000000000
0000000003FFFFC0000000000000
0000000007FFFF80000000000000
000007FFFFFFFFFFFFFF80000000
000007FFFFFFFFFFFFFF80000000
00000FFFFFFFFFFFFFFF00000000
00000FFFFFFFFFFFFFFF00000000
00000FFFFFFFFFFFFFFF00000000
00001FFFFFFFFFFFFFFE00000000
00001FFFFFFFFFFFFFFE00000000
00001FFFFFFFFFFFFFFE00000000
00003FFC00000000000000000000
00003FFC00000000000000000000
00003FFC00000000000000000000
00007FF800000000000000000000
00007FF800000000000000000000
00007FF800000000000000000000
0000FFF000000000000000000000
0000FFF000000000000000000000
0000FFFFFFFFFFF0000000000000
0001FFFFFFFFFFE0000000000000
0001FFFFFFFFFFE0000000000000
0001FFFFFFFFFFE0000000000000
0003FFFFFFFFFFC0000000000000
0003FFFFFFFFFFC0000000000000
0003FFFFFFFFFFC0000000000000
0007FFFFFFFFFF80000000000000
0007FF8000000000000000000000
0007FF8000000000000000000000
000FFF0000000000000000000000
000FFF0000000000000000000000
000FFF0000000000000000000000
001FFE0000000000000000000000
001FFE0000000000000000000000
001FFE0000000000000000000000
003FFC0000000000000000000000
003FFC0000000000000000000000
003FFC0000000000000000000000
007FF80000000000000000000000
007FF80000000000000000000000
007FF80000000000000000000000
00FFF00000000000000000000000
00FFF00000000000000000000000
00FFFFFFFFFFFFFFF00000000000
01FFFFFFFFFFFFFFE00000000000
01FFFFFFFFFFFFFFE00000000000
01FFFFFFFFFFFFFFE00000000000
03FFFFFFFFFFFFFFC00000000000
03FFFFFFFFFFFFFFC00000000000
03FFFFFFFFFFFFFFC00000000000
07FFFFFFFFFFFFFF800000000000
0000000000000000000000000000
0000000000000000000000000000
0000000000000000000000000000
0000000000000000000000000000
0000000000000000000000000000
0000000000000000000000000000
0000000000000000000000000000
0000000000000000000000000000
0000000000000000000000000000
0000000000000000000000000000
0000000000000000000000000000
0000000000000000000000000000
0000000000000000000000000000
0000000000000000000000000000
0000000000000000000000000000
0000000000000000000000000000
ENDCHAR
STARTCHAR U+00C8
ENCODING 200
SWIDTH 1000 0
DWIDTH 80 0
BBX 106 80 -13 -16
BITMAP
000000003FFFFC00000000000000
000000003FFFFC00000000000000
000000003FFFFC00000000000000
000000007FFFF800000000000000
000000007FFFF800000000000000
000000007FFFF800000000000000
00000000FFFFF000000000000000
00000000FFFFF000000000000000
000000000000FFFFF00000000000
000000000001FFFFE00000000000
000000000001FFFFE00000000000
000000000001FFFFE00000000000
000000000003FFFFC00000000000
000000000003FFFFC00000000000
000000000003FFFFC00000000000
000000000007FFFF800000000000
000007FFFFFFFFFFFFFF80000000
000007FFFFFFFFFFFFFF80000000
00000FFFFFFFFFFFFFFF00000000
00000FFFFFFFFFFFFFFF00000000
00000FFFFFFFFFFFFFFF00000000
00001FFFFFFFFFFFFFFE00000000
00001FFFFFFFFFFFFFFE00000000
00001FFFFFFFFFFFFFFE00000000
00003FFC00000000000000000000
00003FFC00000000000000000000
00003FFC00000000000000000000
00007FF800000000000000000000
00007FF800000000000000000000
00007FF800000000000000000000
0000FFF000000000000000000000
0000FFF000000000000000000000
0000FFFFFFFFFFF0000000000000
0001FFFFFFFFFFE0000000000000
0001FFFFFFFFFFE0000000000000
0001FFFFFFFFFFE0000000000000
0003FFFFFFFFFFC0000000000000
0003FFFFFFFFFFC0000000000000
0003FFFFFFFFFFC0000000000000
0007FFFFFFFFFF80000000000000
0007FF8000000000000000000000
0007FF8000000000000000000000
000FFF0000000000000000000000
000FFF0000000000000000000000
000FFF0000000000000000000000
001FFE0000000000000000000000
001FFE0000000000000000000000
001FFE0000000000000000000000
003FFC0000000000000000000000
003FFC0000000000000000000000
003FFC0000000000000000000000
007FF80000000000000000000000
007FF80000000000000000000000
007FF80000000000000000000000
00FFF00000000000000000000000
00FFF00000000000000000000000
00FFFFFFFFFFFFFFF00000000000
01FFFFFFFFFFFFFFE00000000000
01FFFFFFFFFFFFFFE00000000000
01FFFFFFFFFFFFFFE00000000000
03FFFFFFFFFFFFFFC00000000000
03FFFFFFFFFFFFFFC00000000000
03FFFFFFFFFFFFFFC00000000000
07FFFFFFFFFFFFFF800000000000
0000000000000000000000000000
0000000000000000000000000000
0000000000000000000000000000
0000000000000000000000000000
0000000000000000000000000000
0000000000000000000000000000
0000000000000000000000000000
0000000000000000000000000000
0000000000000000000000000000
0000000000000000000000000000
0000000000000000000000000000
0000000000000000000000000000
0000000000000000000000000000
0000000000000000000000000000
0000000000000000000000000000
0000000000000000000000000000
ENDCHAR
STARTCHAR U+00C7
ENCODING 199
SWIDTH 1000 0
DWIDTH 80 0
BBX 106 80 -13 -16
BITMAP
0000000000000000000000000000
0000000000000000000000000000
0000000000000000000000000000
0000000000000000000000000000
0000000000000000000000000000
0000000000000000000000000000
0000000000000000000000000000
0000000000000000000000000000
0000000000FFFFFFFFF000000000
0000000001FFFFFFFFE000000000
0000000001FFFFFFFFE000000000
0000000001FFFFFFFFE000000000
0000000003FFFFFFFFC000000000
0000000003FFFFFFFFC000000000
0000000003FFFFFFFFC000000000
0000000007FFFFFFFF8000000000
00000007FF80000007FF80000000
00000007FF80000007FF80000000
0000000FFF0000000FFF00000000
0000000FFF0000000FFF00000000
0000000FFF0000000FFF00000000
0000001FFE0000001FFE00000000
0000001FFE0000001FFE00000000
0000001FFE0000001FFE00000000
00003FFC00000000000000000000
00003FFC00000000000000000000
00003FFC00000000000000000000
00007FF800000000000000000000
00007FF800000000000000000000
00007FF800000000000000000000
0000FFF000000000000000000000
0000FFF000000000000000000000
0000FFF000000000000000000000
0001FFE000000000000000000000
0001FFE000000000000000000000
0001FFE000000000000000000000
0003FFC000000000000000000000
0003FFC000000000000000000000
0003FFC000000000000000000000
0007FF8000000000000000000000
0007FF8000000000000000000000
0007FF8000000000000000000000
000FFF0000000000000000000000
000FFF0000000000000000000000
000FFF0000000000000000000000
001FFE0000000000000000000000
001FFE0000000000000000000000
001FFE0000000000000000000000
00003FFC0000003FFC0000000000
00003FFC0000003FFC0000000000
00003FFC0000003FFC0000000000
00007FF80000007FF80000000000
00007FF80000007FF80000000000
00007FF80000007FF80000000000
0000FFF0000000FFF00000000000
0000FFF0000000FFF00000000000
000000FFFFFFFFF0000000000000
000001FFFFFFFFE0000000000000
000001FFFFFFFFE0000000000000
000001FFFFFFFFE0000000000000
000003FFFFFFFFC0000000000000
000003FFFFFFFFC0000000000000
000003FFFFFFFFC0000000000000
000007FFFFFFFF80000000000000
0000000007FF8000000000000000
0000000007FF8000000000000000
000000000FFF0000000000000000
000000000FFF0000000000000000
000000000FFF0000000000000000
000000001FFE0000000000000000
000000001FFE0000000000000000
000000001FFE0000000000000000
00003FFFFFFC0000000000000000
00003FFFFFFC0000000000000000
00003FFFFFFC0000000000000000
00007FFFFFF80000000000000000
00007FFFFFF80000000000000000
00007FFFFFF80000000000000000
0000FFFFFFF00000000000000000
0000FFFFFFF00000000000000000
ENDCHAR
STARTCHAR U+00C6
ENCODING 198
SWIDTH 1000 0
DWIDTH 80 0
BBX 106 80 -13 -16
BITMAP
0000000000000000000000000000
0000000000000000000000000000
0000000000000000000000000000
0000000000000000000000000000
0000000000000000000000000000
0000000000000000000000000000
0000000000000000000000000000
0000000000000000000000000000
0000000000FFFFFFFFFFF0000000
0000000001FFFFFFFFFFE0000000
0000000001FFFFFFFFFFE0000000
0000000001FFFFFFFFFFE0000000
0000000003FFFFFFFFFFC0000000
0000000003FFFFFFFFFFC0000000
0000000003FFFFFFFFFFC0000000
0000000007FFFFFFFFFF80000000
00000007FF87FF80000000000000
00000007FF87FF80000000000000
0000000FFF0FFF00000000000000
0000000FFF0FFF00000000000000
0000000FFF0FFF00000000000000
0000001FFE1FFE00000000000000
0000001FFE1FFE00000000000000
0000001FFE1FFE00000000000000
00003FFC003FFC00000000000000
00003FFC003FFC00000000000000
00003FFC003FFC00000000000000
00007FF8007FF800000000000000
00007FF8007FF800000000000000
00007FF8007FF800000000000000
0000FFF000FFF000000000000000
0000FFF000FFF000000000000000
0000FFF000FFFFFFF00000000000
0001FFE001FFFFFFE00000000000
0001FFE001FFFFFFE00000000000
0001FFE001FFFFFFE00000000000
0003FFC003FFFFFFC00000000000
0003FFC003FFFFFFC00000000000
0003FFC003FFFFFFC00000000000
0007FF8007FFFFFF800000000000
0007FFFFFFFF8000000000000000
0007FFFFFFFF8000000000000000
000FFFFFFFFF0000000000000000
000FFFFFFFFF0000000000000000
000FFFFFFFFF0000000000000000
001FFFFFFFFE0000000000000000
001FFFFFFFFE0000000000000000
001FFFFFFFFE0000000000000000
003FFC003FFC0000000000000000
003FFC003FFC0000000000000000
003FFC003FFC0000000000000000
007FF8007FF80000000000000000
007FF8007FF80000000000000000
007FF8007FF80000000000000000
00FFF000FFF00000000000000000
00FFF000FFF00000000000000000
00FFF000FFFFFFFFF00000000000
01FFE001FFFFFFFFE00000000000
01FFE001FFFFFFFFE00000000000
01FFE001FFFFFFFFE00000000000
03FFC003FFFFFFFFC00000000000
03FFC003FFFFFFFFC00000000000
03FFC003FFFFFFFFC00000000000
07FF8007FFFFFFFF800000000000
0000000000000000000000000000
0000000000000000000000000000
0000000000000000000000000000
0000000000000000000000000000
0000000000000000000000000000
0000000000000000000000000000
0000000000000000000000000000
0000000000000000000000000000
0000000000000000000000000000
0000000000000000000000000000
0000000000000000000000000000
0000000000000000000000000000
0000000000000000000000000000
0000000000000000000000000000
0000000000000000000000000000
0000000000000000000000000000
ENDCHAR
STARTCHAR U+00C5
ENCODING 197
SWIDTH 1000 0
DWIDTH 80 0
BBX 106 80 -13 -16
BITMAP
00000000003FFFFFFC0000000000
00000000003FFFFFFC0000000000
00000000003FFFFFFC0000000000
00000000007FFFFFF80000000000
00000000007FFFFFF80000000000
00000000007FFFFFF80000000000
0000000000FFFFFFF00000000000
0000000000FFFFFFF00000000000
00000000FFF00000FFF000000000
00000001FFE00001FFE000000000
00000001FFE00001FFE000000000
00000001FFE00001FFE000000000
00000003FFC00003FFC000000000
00000003FFC00003FFC000000000
00000003FFC00003FFC000000000
00000007FF800007FF8000000000
0000000007FFFFFF800000000000
0000000007FFFFFF800000000000
000000000FFFFFFF000000000000
000000000FFFFFFF000000000000
000000000FFFFFFF000000000000
000000001FFFFFFE000000000000
000000001FFFFFFE000000000000
000000001FFFFFFE000000000000
000000003FFFFFFC000000000000
000000003FFFFFFC000000000000
000000003FFFFFFC000000000000
000000007FFFFFF8000000000000
000000007FFFFFF8000000000000
000000007FFFFFF8000000000000
00000000FFFFFFF0000000000000
00000000FFFFFFF0000000000000
000000FFF00000FFF00000000000
000001FFE00001FFE00000000000
000001FFE00001FFE00000000000
000001FFE00001FFE00000000000
000003FFC00003FFC00000000000
000003FFC00003FFC00000000000
000003FFC00003FFC00000000000
000007FF800007FF800000000000
0007FFFFFFFFFFFFFF8000000000
0007FFFFFFFFFFFFFF8000000000
000FFFFFFFFFFFFFFF0000000000
000FFFFFFFFFFFFFFF0000000000
000FFFFFFFFFFFFFFF0000000000
001FFFFFFFFFFFFFFE0000000000
001FFFFFFFFFFFFFFE0000000000
001FFFFFFFFFFFFFFE0000000000
003FFC000000003FFC0000000000
003FFC000000003FFC0000000000
003FFC000000003FFC0000000000
007FF8000000007FF80000000000
007FF8000000007FF80000000000
007FF8000000007FF80000000000
00FFF000000000FFF00000000000
00FFF000000000FFF00000000000
00FFF000000000FFF00000000000
01FFE000000001FFE00000000000
01FFE000000001FFE00000000000
01FFE000000001FFE00000000000
03FFC000000003FFC00000000000
03FFC000000003FFC00000000000
03FFC000000003FFC00000000000
07FF8000000007FF800000000000
0000000000000000000000000000
0000000000000000000000000000
0000000000000000000000000000
0000000000000000000000000000
0000000000000000000000000000
0000000000000000000000000000
0000000000000000000000000000
0000000000000000000000000000
0000000000000000000000000000
0000000000000000000000000000
0000000000000000000000000000
0000000000000000000000000000
0000000000000000000000000000
0000000000000000000000000000
0000000000000000000000000000
0000000000000000000000000000
ENDCHAR
STARTCHAR U+00C4
ENCODING 196
SWIDTH 1000 0
DWIDTH 80 0
BBX 106 80 -13 -16
BITMAP
000000003FFC00003FFC00000000
000000003FFC00003FFC00000000
000000003FFC00003FFC00000000
000000007FF800007FF800000000
000000007FF800007FF800000000
000000007FF800007FF800000000
00000000FFF00000FFF000000000
00000000FFF00000FFF000000000
0000000000000000000000000000
0000000000000000000000000000
0000000000000000000000000000
0000000000000000000000000000
0000000000000000000000000000
0000000000000000000000000000
0000000000000000000000000000
0000000000000000000000000000
000000000007FF80000000000000
000000000007FF80000000000000
00000000000FFF00000000000000
00000000000FFF00000000000000
00000000000FFF00000000000000
00000000001FFE00000000000000
00000000001FFE00000000000000
00000000001FFE00000000000000
000000003FFC3FFC000000000000
000000003FFC3FFC000000000000
000000003FFC3FFC000000000000
000000007FF87FF8000000000000
000000007FF87FF8000000000000
000000007FF87FF8000000000000
00000000FFF0FFF0000000000000
00000000FFF0FFF0000000000000
000000FFF00000FFF00000000000
000001FFE00001FFE00000000000
000001FFE00001FFE00000000000
000001FFE00001FFE00000000000
000003FFC00003FFC00000000000
000003FFC00003FFC00000000000
000003FFC00003FFC00000000000
000007FF800007FF800000000000
0007FFFFFFFFFFFFFF8000000000
0007FFFFFFFFFFFFFF8000000000
000FFFFFFFFFFFFFFF0000000000
000FFFFFFFFFFFFFFF0000000000
000FFFFFFFFFFFFFFF0000000000
001FFFFFFFFFFFFFFE0000000000
001FFFFFFFFFFFFFFE0000000000
001FFFFFFFFFFFFFFE0000000000
003FFC000000003FFC0000000000
003FFC000000003FFC0000000000
003FFC000000003FFC0000000000
007FF8000000007FF80000000000
007FF8000000007FF80000000000
007FF8000000007FF80000000000
00FFF000000000FFF00000000000
00FFF000000000FFF00000000000
00FFF000000000FFF00000000000
01FFE000000001FFE00000000000
01FFE000000001FFE00000000000
01FFE000000001FFE00000000000
03FFC000000003FFC00000000000
03FFC000000003FFC00000000000
03FFC000000003FFC00000000000
07FF8000000007FF800000000000
0000000000000000000000000000
0000000000000000000000000000
0000000000000000000000000000
0000000000000000000000000000
0000000000000000000000000000
0000000000000000000000000000
0000000000000000000000000000
0000000000000000000000000000
0000000000000000000000000000
0000000000000000000000000000
0000000000000000000000000000
0000000000000000000000000000
0000000000000000000000000000
0000000000000000000000000000
0000000000000000000000000000
0000000000000000000000000000
ENDCHAR
STARTCHAR U+00C3
ENCODING 195
SWIDTH 1000 0
DWIDTH 80 0
BBX 106 80 -13 -16
BITMAP
00000000003FFFFC003FFC000000
00000000003FFFFC003FFC000000
00000000003FFFFC003FFC000000
00000000007FFFF8007FF8000000
00000000007FFFF8007FF8000000
00000000007FFFF8007FF8000000
0000000000FFFFF000FFF0000000
0000000000FFFFF000FFF0000000
00000000FFF000FFFFF000000000
00000001FFE001FFFFE000000000
00000001FFE001FFFFE000000000
00000001FFE001FFFFE000000000
00000003FFC003FFFFC000000000
00000003FFC003FFFFC000000000
00000003FFC003FFFFC000000000
00000007FF8007FFFF8000000000
000000000007FF80000000000000
000000000007FF80000000000000
00000000000FFF00000000000000
00000000000FFF00000000000000
00000000000FFF00000000000000
00000000001FFE00000000000000
00000000001FFE00000000000000
00000000001FFE00000000000000
000000003FFC3FFC000000000000
000000003FFC3FFC000000000000
000000003FFC3FFC000000000000
000000007FF87FF8000000000000
000000007FF87FF8000000000000
000000007FF87FF8000000000000
00000000FFF0FFF0000000000000
00000000FFF0FFF0000000000000
000000FFF00000FFF00000000000
000001FFE00001FFE00000000000
000001FFE00001FFE00000000000
000001FFE00001FFE00000000000
000003FFC00003FFC00000000000
000003FFC00003FFC00000000000
000003FFC00003FFC00000000000
000007FF800007FF800000000000
0007FFFFFFFFFFFFFF8000000000
0007FFFFFFFFFFFFFF8000000000
000FFFFFFFFFFFFFFF0000000000
000FFFFFFFFFFFFFFF0000000000
000FFFFFFFFFFFFFFF0000000000
001FFFFFFFFFFFFFFE0000000000
001FFFFFFFFFFFFFFE0000000000
001FFFFFFFFFFFFFFE0000000000
003FFC000000003FFC0000000000
003FFC000000003FFC0000000000
003FFC000000003FFC0000000000
007FF8000000007FF80000000000
007FF8000000007FF80000000000
007FF8000000007FF80000000000
00FFF000000000FFF00000000000
00FFF000000000FFF00000000000
00FFF000000000FFF00000000000
01FFE000000001FFE00000000000
01FFE000000001FFE00000000000
01FFE000000001FFE00000000000
03FFC000000003FFC00000000000
03FFC000000003FFC00000000000
03FFC000000003FFC00000000000
07FF8000000007FF800000000000
0000000000000000000000000000
0000000000000000000000000000
0000000000000000000000000000
0000000000000000000000000000
0000000000000000000000000000
0000000000000000000000000000
0000000000000000000000000000
0000000000000000000000000000
0000000000000000000000000000
0000000000000000000000000000
0000000000000000000000000000
0000000000000000000000000000
0000000000000000000000000000
0000000000000000000000000000
0000000000000000000000000000
0000000000000000000000000000
ENDCHAR
STARTCHAR U+00C2
ENCODING 194
SWIDTH 1000 0
DWIDTH 80 0
BBX 106 80 -13 -16
BITMAP
00000000003FFFFFFC0000000000
00000000003FFFFFFC0000000000
00000000003FFFFFFC0000000000
00000000007FFFFFF80000000000
00000000007FFFFFF80000000000
00000000007FFFFFF80000000000
0000000000FFFFFFF00000000000
0000000000FFFFFFF00000000000
00000000FFF00000FFF000000000
00000001FFE00001FFE000000000
00000001FFE00001FFE000000000
00000001FFE00001FFE000000000
00000003FFC00003FFC000000000
00000003FFC00003FFC000000000
00000003FFC00003FFC000000000
00000007FF800007FF8000000000
000000000007FF80000000000000
000000000007FF80000000000000
00000000000FFF00000000000000
00000000000FFF00000000000000
00000000000FFF00000000000000
00000000001FFE00000000000000
00000000001FFE00000000000000
00000000001FFE00000000000000
000000003FFC3FFC000000000000
000000003FFC3FFC000000000000
000000003FFC3FFC000000000000
000000007FF87FF8000000000000
000000007FF87FF8000000000000
000000007FF87FF8000000000000
00000000FFF0FFF0000000000000
00000000FFF0FFF0000000000000
000000FFF00000FFF00000000000
000001FFE00001FFE00000000000
000001FFE00001FFE00000000000
000001FFE00001FFE00000000000
000003FFC00003FFC00000000000
000003FFC00003FFC00000000000
000003FFC00003FFC00000000000
000007FF800007FF800000000000
0007FFFFFFFFFFFFFF8000000000
0007FFFFFFFFFFFFFF8000000000
000FFFFFFFFFFFFFFF0000000000
000FFFFFFFFFFFFFFF0000000000
000FFFFFFFFFFFFFFF0000000000
001FFFFFFFFFFFFFFE0000000000
001FFFFFFFFFFFFFFE0000000000
001FFFFFFFFFFFFFFE0000000000
003FFC000000003FFC0000000000
003FFC000000003FFC0000000000
003FFC000000003FFC0000000000
007FF8000000007FF80000000000
007FF8000000007FF80000000000
007FF8000000007FF80000000000
00FFF000000000FFF00000000000
00FFF000000000FFF00000000000
00FFF000000000FFF00000000000
01FFE000000001FFE00000000000
01FFE000000001FFE00000000000
01FFE000000001FFE00000000000
03FFC000000003FFC00000000000
03FFC000000003FFC00000000000
03FFC000000003FFC00000000000
07FF8000000007FF800000000000
0000000000000000000000000000
0000000000000000000000000000
0000000000000000000000000000
0000000000000000000000000000
0000000000000000000000000000
0000000000000000000000000000
0000000000000000000000000000
0000000000000000000000000000
0000000000000000000000000000
0000000000000000000000000000
0000000000000000000000000000
0000000000000000000000000000
0000000000000000000000000000
0000000000000000000000000000
0000000000000000000000000000
0000000000000000000000000000
ENDCHAR
STARTCHAR U+00C1
ENCODING 193
SWIDTH 1000 0
DWIDTH 80 0
BBX 106 80 -13 -16
BITMAP
0000000000003FFFFC0000000000
0000000000003FFFFC0000000000
0000000000003FFFFC0000000000
0000000000007FFFF80000000000
0000000000007FFFF80000000000
0000000000007FFFF80000000000
000000000000FFFFF00000000000
000000000000FFFFF00000000000
00000000FFFFF000000000000000
00000001FFFFE000000000000000
00000001FFFFE000000000000000
00000001FFFFE000000000000000
00000003FFFFC000000000000000
00000003FFFFC000000000000000
00000003FFFFC000000000000000
00000007FFFF8000000000000000
000000000007FF80000000000000
000000000007FF80000000000000
00000000000FFF00000000000000
00000000000FFF00000000000000
00000000000FFF00000000000000
00000000001FFE00000000000000
00000000001FFE00000000000000
00000000001FFE00000000000000
000000003FFC3FFC000000000000
000000003FFC3FFC000000000000
000000003FFC3FFC000000000000
000000007FF87FF8000000000000
000000007FF87FF8000000000000
000000007FF87FF8000000000000
00000000FFF0FFF0000000000000
00000000FFF0FFF0000000000000
000000FFF00000FFF00000000000
000001FFE00001FFE00000000000
000001FFE00001FFE00000000000
000001FFE00001FFE00000000000
000003FFC00003FFC00000000000
000003FFC00003FFC00000000000
000003FFC00003FFC00000000000
000007FF800007FF800000000000
0007FFFFFFFFFFFFFF8000000000
0007FFFFFFFFFFFFFF8000000000
000FFFFFFFFFFFFFFF0000000000
000FFFFFFFFFFFFFFF0000000000
000FFFFFFFFFFFFFFF0000000000
001FFFFFFFFFFFFFFE0000000000
001FFFFFFFFFFFFFFE0000000000
001FFFFFFFFFFFFFFE0000000000
003FFC000000003FFC0000000000
003FFC000000003FFC0000000000
003FFC000000003FFC0000000000
007FF8000000007FF80000000000
007FF8000000007FF80000000000
007FF8000000007FF80000000000
00FFF000000000FFF00000000000
00FFF000000000FFF00000000000
00FFF000000000FFF00000000000
01FFE000000001FFE00000000000
01FFE000000001FFE00000000000
01FFE000000001FFE00000000000
03FFC000000003FFC00000000000
03FFC000000003FFC00000000000
03FFC000000003FFC00000000000
07FF8000000007FF800000000000
0000000000000000000000000000
0000000000000000000000000000
0000000000000000000000000000
0000000000000000000000000000
0000000000000000000000000000
0000000000000000000000000000
0000000000000000000000000000
0000000000000000000000000000
0000000000000000000000000000
0000000000000000000000000000
0000000000000000000000000000
0000000000000000000000000000
0000000000000000000000000000
0000000000000000000000000000
0000000000000000000000000000
0000000000000000000000000000
ENDCHAR
STARTCHAR U+00C0
ENCODING 192
SWIDTH 1000 0
DWIDTH 80 0
BBX 106 80 -13 -16
BITMAP
00000000003FFFFC000000000000
00000000003FFFFC000000000000
00000000003FFFFC000000000000
00000000007FFFF8000000000000
00000000007FFFF8000000000000
00000000007FFFF8000000000000
0000000000FFFFF0000000000000
0000000000FFFFF0000000000000
00000000000000FFFFF000000000
00000000000001FFFFE000000000
00000000000001FFFFE000000000
00000000000001FFFFE000000000
00000000000003FFFFC000000000
00000000000003FFFFC000000000
00000000000003FFFFC000000000
00000000000007FFFF8000000000
000000000007FF80000000000000
000000000007FF80000000000000
00000000000FFF00000000000000
00000000000FFF00000000000000
00000000000FFF00000000000000
00000000001FFE00000000000000
00000000001FFE00000000000000
00000000001FFE00000000000000
000000003FFC3FFC000000000000
000000003FFC3FFC000000000000
000000003FFC3FFC000000000000
000000007FF87FF8000000000000
000000007FF87FF8000000000000
000000007FF87FF8000000000000
00000000FFF0FFF0000000000000
00000000FFF0FFF0000000000000
000000FFF00000FFF00000000000
000001FFE00001FFE00000000000
000001FFE00001FFE00000000000
000001FFE00001FFE00000000000
000003FFC00003FFC00000000000
000003FFC00003FFC00000000000
000003FFC00003FFC00000000000
000007FF800007FF800000000000
0007FFFFFFFFFFFFFF8000000000
0007FFFFFFFFFFFFFF8000000000
000FFFFFFFFFFFFFFF0000000000
000FFFFFFFFFFFFFFF0000000000
000FFFFFFFFFFFFFFF0000000000
001FFFFFFFFFFFFFFE0000000000
001FFFFFFFFFFFFFFE0000000000
001FFFFFFFFFFFFFFE0000000000
003FFC000000003FFC0000000000
003FFC000000003FFC0000000000
003FFC000000003FFC0000000000
007FF8000000007FF80000000000
007FF8000000007FF80000000000
007FF8000000007FF80000000000
00FFF000000000FFF00000000000
00FFF000000000FFF00000000000
00FFF000000000FFF00000000000
01FFE000000001FFE00000000000
01FFE000000001FFE00000000000
01FFE000000001FFE00000000000
03FFC000000003FFC00000000000
03FFC000000003FFC00000000000
03FFC000000003FFC00000000000
07FF8000000007FF800000000000
0000000000000000000000000000
0000000000000000000000000000
0000000000000000000000000000
0000000000000000000000000000
0000000000000000000000000000
0000000000000000000000000000
0000000000000000000000000000
0000000000000000000000000000
0000000000000000000000000000
0000000000000000000000000000
0000000000000000000000000000
0000000000000000000000000000
0000000000000000000000000000
0000000000000000000000000000
0000000000000000000000000000
0000000000000000000000000000
ENDCHAR
STARTCHAR U+00BF
ENCODING 191
SWIDTH 1000 0
DWIDTH 80 0
BBX 106 80 -13 -16
BITMAP
0000000000000000000000000000
0000000000000000000000000000
0000000000000000000000000000
0000000000000000000000000000
0000000000000000000000000000
0000000000000000000000000000
0000000000000000000000000000
0000000000000000000000000000
000000000000FFF0000000000000
000000000001FFE0000000000000
000000000001FFE0000000000000
000000000001FFE0000000000000
000000000003FFC0000000000000
000000000003FFC0000000000000
000000000003FFC0000000000000
000000000007FF80000000000000
0000000000000000000000000000
0000000000000000000000000000
0000000000000000000000000000
0000000000000000000000000000
0000000000000000000000000000
0000000000000000000000000000
0000000000000000000000000000
0000000000000000000000000000
00000000003FFC00000000000000
00000000003FFC00000000000000
00000000003FFC00000000000000
00000000007FF800000000000000
00000000007FF800000000000000
00000000007FF800000000000000
0000000000FFF000000000000000
0000000000FFF000000000000000
0000000000FFF000000000000000
0000000001FFE000000000000000
0000000001FFE000000000000000
0000000001FFE000000000000000
0000000003FFC000000000000000
0000000003FFC000000000000000
0000000003FFC000000000000000
0000000007FF8000000000000000
000007FFFF800000000000000000
000007FFFF800000000000000000
00000FFFFF000000000000000000
00000FFFFF000000000000000000
00000FFFFF000000000000000000
00001FFFFE000000000000000000
00001FFFFE000000000000000000
00001FFFFE000000000000000000
003FFC000000003FFC0000000000
003FFC000000003FFC0000000000
003FFC000000003FFC0000000000
007FF8000000007FF80000000000
007FF8000000007FF80000000000
007FF8000000007FF80000000000
00FFF000000000FFF00000000000
00FFF000000000FFF00000000000
0000FFFFFFFFFFF0000000000000
0001FFFFFFFFFFE0000000000000
0001FFFFFFFFFFE0000000000000
0001FFFFFFFFFFE0000000000000
0003FFFFFFFFFFC0000000000000
0003FFFFFFFFFFC0000000000000
0003FFFFFFFFFFC0000000000000
0007FFFFFFFFFF80000000000000
0000000000000000000000000000
0000000000000000000000000000
0000000000000000000000000000
0000000000000000000000000000
0000000000000000000000000000
0000000000000000000000000000
0000000000000000000000000000
0000000000000000000000000000
0000000000000000000000000000
0000000000000000000000000000
0000000000000000000000000000
0000000000000000000000000000
0000000000000000000000000000
0000000000000000000000000000
0000000000000000000000000000
0000000000000000000000000000
ENDCHAR
STARTCHAR U+00BE
ENCODING 190
SWIDTH 1000 0
DWIDTH 80 0
BBX 106 80 -13 -16
BITMAP
0000003FFFFFFFFC000000000000
0000003FFFFFFFFC000000000000
0000003FFFFFFFFC000000000000
0000007FFFFFFFF8000000000000
0000007FFFFFFFF8000000000000
0000007FFFFFFFF8000000000000
000000FFFFFFFFF0000000000000
000000FFFFFFFFF0000000000000
000000000000FFF0000000000000
000000000001FFE0000000000000
000000000001FFE0000000000000
000000000001FFE0000000000000
000000000003FFC0000000000000
000000000003FFC0000000000000
000000000003FFC0000000000000
000000000007FF80000000000000
00000007FFFF8007FF8000000000
00000007FFFF8007FF8000000000
0000000FFFFF000FFF0000000000
0000000FFFFF000FFF0000000000
0000000FFFFF000FFF0000000000
0000001FFFFE001FFE0000000000
0000001FFFFE001FFE0000000000
0000001FFFFE001FFE0000000000
00000000003FFFFC000000000000
00000000003FFFFC000000000000
00000000003FFFFC000000000000
00000000007FFFF8000000000000
00000000007FFFF8000000000000
00000000007FFFF8000000000000
0000000000FFFFF0000000000000
0000000000FFFFF0000000000000
0000FFFFFFFFF000000000000000
0001FFFFFFFFE000000000000000
0001FFFFFFFFE000000000000000
0001FFFFFFFFE000000000000000
0003FFFFFFFFC000000000000000
0003FFFFFFFFC000000000000000
0003FFFFFFFFC000000000000000
0007FFFFFFFF8000000000000000
00000007FF8007FF800000000000
00000007FF8007FF800000000000
0000000FFF000FFF000000000000
0000000FFF000FFF000000000000
0000000FFF000FFF000000000000
0000001FFE001FFE000000000000
0000001FFE001FFE000000000000
0000001FFE001FFE000000000000
00003FFC003FFFFC000000000000
00003FFC003FFFFC000000000000
00003FFC003FFFFC000000000000
00007FF8007FFFF8000000000000
00007FF8007FFFF8000000000000
00007FF8007FFFF8000000000000
0000FFF000FFFFF0000000000000
0000FFF000FFFFF0000000000000
00FFF000FFF0FFF0000000000000
01FFE001FFE1FFE0000000000000
01FFE001FFE1FFE0000000000000
01FFE001FFE1FFE0000000000000
03FFC003FFC3FFC0000000000000
03FFC003FFC3FFC0000000000000
03FFC003FFC3FFC0000000000000
07FF8007FF87FF80000000000000
000007FFFFFFFFFF800000000000
000007FFFFFFFFFF800000000000
00000FFFFFFFFFFF000000000000
00000FFFFFFFFFFF000000000000
00000FFFFFFFFFFF000000000000
00001FFFFFFFFFFE000000000000
00001FFFFFFFFFFE000000000000
00001FFFFFFFFFFE000000000000
00000000003FFC00000000000000
00000000003FFC00000000000000
00000000003FFC00000000000000
00000000007FF800000000000000
00000000007FF800000000000000
00000000007FF800000000000000
0000000000FFF000000000000000
0000000000FFF000000000000000
ENDCHAR
STARTCHAR U+00BD
ENCODING 189
SWIDTH 1000 0
DWIDTH 80 0
BBX 106 80 -13 -16
BITMAP
0000000000000000000000000000
0000000000000000000000000000
0000000000000000000000000000
0000000000000000000000000000
0000000000000000000000000000
0000000000000000000000000000
0000000000000000000000000000
0000000000000000000000000000
00000000FFF00000000000000000
00000001FFE00000000000000000
00000001FFE00000000000000000
00000001FFE00000000000000000
00000003FFC00000000000000000
00000003FFC00000000000000000
00000003FFC00000000000000000
00000007FF800000000000000000
000007FFFF800007FF8000000000
000007FFFF800007FF8000000000
00000FFFFF00000FFF0000000000
00000FFFFF00000FFF0000000000
00000FFFFF00000FFF0000000000
00001FFFFE00001FFE0000000000
00001FFFFE00001FFE0000000000
00001FFFFE00001FFE0000000000
0000003FFC003FFC000000000000
0000003FFC003FFC000000000000
0000003FFC003FFC000000000000
0000007FF8007FF8000000000000
0000007FF8007FF8000000000000
0000007FF8007FF8000000000000
000000FFF000FFF0000000000000
000000FFF000FFF0000000000000
000000FFF0FFF000000000000000
000001FFE1FFE000000000000000
000001FFE1FFE000000000000000
000001FFE1FFE000000000000000
000003FFC3FFC000000000000000
000003FFC3FFC000000000000000
000003FFC3FFC000000000000000
000007FF87FF8000000000000000
00000007FF87FFFF800000000000
00000007FF87FFFF800000000000
0000000FFF0FFFFF000000000000
0000000FFF0FFFFF000000000000
0000000FFF0FFFFF000000000000
0000001FFE1FFFFE000000000000
0000001FFE1FFFFE000000000000
0000001FFE1FFFFE000000000000
00003FFC3FFC003FFC0000000000
00003FFC3FFC003FFC0000000000
00003FFC3FFC003FFC0000000000
00007FF87FF8007FF80000000000
00007FF87FF8007FF80000000000
00007FF87FF8007FF80000000000
0000FFF0FFF000FFF00000000000
0000FFF0FFF000FFF00000000000
00FFF0000000FFF0000000000000
01FFE0000001FFE0000000000000
01FFE0000001FFE0000000000000
01FFE0000001FFE0000000000000
03FFC0000003FFC0000000000000
03FFC0000003FFC0000000000000
03FFC0000003FFC0000000000000
07FF80000007FF80000000000000
0000000007FF8000000000000000
0000000007FF8000000000000000
000000000FFF0000000000000000
000000000FFF0000000000000000
000000000FFF0000000000000000
000000001FFE0000000000000000
000000001FFE0000000000000000
000000001FFE0000000000000000
0000003FFFFFFFFC000000000000
0000003FFFFFFFFC000000000000
0000003FFFFFFFFC000000000000
0000007FFFFFFFF8000000000000
0000007FFFFFFFF8000000000000
0000007FFFFFFFF8000000000000
000000FFFFFFFFF0000000000000
000000FFFFFFFFF0000000000000
ENDCHAR
STARTCHAR U+00BC
ENCODING 188
SWIDTH 1000 0
DWIDTH 80 0
BBX 106 80 -13 -16
BITMAP
0000000000000000000000000000
0000000000000000000000000000
0000000000000000000000000000
0000000000000000000000000000
0000000000000000000000000000
0000000000000000000000000000
0000000000000000000000000000
0000000000000000000000000000
00000000FFF00000000000000000
00000001FFE00000000000000000
00000001FFE00000000000000000
00000001FFE00000000000000000
00000003FFC00000000000000000
00000003FFC00000000000000000
00000003FFC00000000000000000
00000007FF800000000000000000
000007FFFF800007FF8000000000
000007FFFF800007FF8000000000
00000FFFFF00000FFF0000000000
00000FFFFF00000FFF0000000000
00000FFFFF00000FFF0000000000
00001FFFFE00001FFE0000000000
00001FFFFE00001FFE0000000000
00001FFFFE00001FFE0000000000
0000003FFC003FFC000000000000
0000003FFC003FFC000000000000
0000003FFC003FFC000000000000
0000007FF8007FF8000000000000
0000007FF8007FF8000000000000
0000007FF8007FF8000000000000
000000FFF000FFF0000000000000
000000FFF000FFF0000000000000
000000FFF0FFF000000000000000
000001FFE1FFE000000000000000
000001FFE1FFE000000000000000
000001FFE1FFE000000000000000
000003FFC3FFC000000000000000
000003FFC3FFC000000000000000
000003FFC3FFC000000000000000
000007FF87FF8000000000000000
00000007FF8007FF800000000000
00000007FF8007FF800000000000
0000000FFF000FFF000000000000
0000000FFF000FFF000000000000
0000000FFF000FFF000000000000
0000001FFE001FFE000000000000
0000001FFE001FFE000000000000
0000001FFE001FFE000000000000
00003FFC003FFFFC000000000000
00003FFC003FFFFC000000000000
00003FFC003FFFFC000000000000
00007FF8007FFFF8000000000000
00007FF8007FFFF8000000000000
00007FF8007FFFF8000000000000
0000FFF000FFFFF0000000000000
0000FFF000FFFFF0000000000000
00FFF000FFF0FFF0000000000000
01FFE001FFE1FFE0000000000000
01FFE001FFE1FFE0000000000000
01FFE001FFE1FFE0000000000000
03FFC003FFC3FFC0000000000000
03FFC003FFC3FFC0000000000000
03FFC003FFC3FFC0000000000000
07FF8007FF87FF80000000000000
000007FFFFFFFFFF800000000000
000007FFFFFFFFFF800000000000
00000FFFFFFFFFFF000000000000
00000FFFFFFFFFFF000000000000
00000FFFFFFFFFFF000000000000
00001FFFFFFFFFFE000000000000
00001FFFFFFFFFFE000000000000
00001FFFFFFFFFFE000000000000
00000000003FFC00000000000000
00000000003FFC00000000000000
00000000003FFC00000000000000
00000000007FF800000000000000
00000000007FF800000000000000
00000000007FF800000000000000
0000000000FFF000000000000000
0000000000FFF000000000000000
ENDCHAR
STARTCHAR U+00BB
ENCODING 187
SWIDTH 1000 0
DWIDTH 80 0
BBX 106 80 -13 -16
BITMAP
0000000000000000000000000000
0000000000000000000000000000
0000000000000000000000000000
0000000000000000000000000000
0000000000000000000000000000
0000000000000000000000000000
0000000000000000000000000000
0000000000000000000000000000
000000FFF000FFF0000000000000
000001FFE001FFE0000000000000
000001FFE001FFE0000000000000
000001FFE001FFE0000000000000
000003FFC003FFC0000000000000
000003FFC003FFC0000000000000
000003FFC003FFC0000000000000
000007FF8007FF80000000000000
00000007FF8007FF800000000000
00000007FF8007FF800000000000
0000000FFF000FFF000000000000
0000000FFF000FFF000000000000
0000000FFF000FFF000000000000
0000001FFE001FFE000000000000
0000001FFE001FFE000000000000
0000001FFE001FFE000000000000
000000003FFC003FFC0000000000
000000003FFC003FFC0000000000
000000003FFC003FFC0000000000
000000007FF8007FF80000000000
000000007FF8007FF80000000000
000000007FF8007FF80000000000
00000000FFF000FFF00000000000
00000000FFF000FFF00000000000
0000000000FFF000FFF000000000
0000000001FFE001FFE000000000
0000000001FFE001FFE000000000
0000000001FFE001FFE000000000
0000000003FFC003FFC000000000
0000000003FFC003FFC000000000
0000000003FFC003FFC000000000
0000000007FF8007FF8000000000
00000007FF8007FF800000000000
00000007FF8007FF800000000000
0000000FFF000FFF000000000000
0000000FFF000FFF000000000000
0000000FFF000FFF000000000000
0000001FFE001FFE000000000000
0000001FFE001FFE000000000000
0000001FFE001FFE000000000000
00003FFC003FFC00000000000000
00003FFC003FFC00000000000000
00003FFC003FFC00000000000000
00007FF8007FF800000000000000
00007FF8007FF800000000000000
00007FF8007FF800000000000000
0000FFF000FFF000000000000000
0000FFF000FFF000000000000000
00FFF000FFF00000000000000000
01FFE001FFE00000000000000000
01FFE001FFE00000000000000000
01FFE001FFE00000000000000000
03FFC003FFC00000000000000000
03FFC003FFC00000000000000000
03FFC003FFC00000000000000000
07FF8007FF800000000000000000
0000000000000000000000000000
0000000000000000000000000000
0000000000000000000000000000
0000000000000000000000000000
0000000000000000000000000000
0000000000000000000000000000
0000000000000000000000000000
0000000000000000000000000000
0000000000000000000000000000
0000000000000000000000000000
0000000000000000000000000000
0000000000000000000000000000
0000000000000000000000000000
0000000000000000000000000000
0000000000000000000000000000
0000000000000000000000000000
ENDCHAR
STARTCHAR U+00BA
ENCODING 186
SWIDTH 1000 0
DWIDTH 80 0
BBX 106 80 -13 -16
BITMAP
0000000000000000000000000000
0000000000000000000000000000
0000000000000000000000000000
0000000000000000000000000000
0000000000000000000000000000
0000000000000000000000000000
0000000000000000000000000000
0000000000000000000000000000
00000000FFFFFFFFFFF000000000
00000001FFFFFFFFFFE000000000
00000001FFFFFFFFFFE000000000
00000001FFFFFFFFFFE000000000
00000003FFFFFFFFFFC000000000
00000003FFFFFFFFFFC000000000
00000003FFFFFFFFFFC000000000
00000007FFFFFFFFFF8000000000
000007FF8000000007FF80000000
000007FF8000000007FF80000000
00000FFF000000000FFF00000000
00000FFF000000000FFF00000000
00000FFF000000000FFF00000000
00001FFE000000001FFE00000000
00001FFE000000001FFE00000000
00001FFE000000001FFE00000000
00003FFC000000003FFC00000000
00003FFC000000003FFC00000000
00003FFC000000003FFC00000000
00007FF8000000007FF800000000
00007FF8000000007FF800000000
00007FF8000000007FF800000000
0000FFF000000000FFF000000000
0000FFF000000000FFF000000000
0000FFF000000000FFF000000000
0001FFE000000001FFE000000000
0001FFE000000001FFE000000000
0001FFE000000001FFE000000000
0003FFC000000003FFC000000000
0003FFC000000003FFC000000000
0003FFC000000003FFC000000000
0007FF8000000007FF8000000000
000007FFFFFFFFFF800000000000
000007FFFFFFFFFF800000000000
00000FFFFFFFFFFF000000000000
00000FFFFFFFFFFF000000000000
00000FFFFFFFFFFF000000000000
00001FFFFFFFFFFE000000000000
00001FFFFFFFFFFE000000000000
00001FFFFFFFFFFE000000000000
0000000000000000000000000000
0000000000000000000000000000
0000000000000000000000000000
0000000000000000000000000000
0000000000000000000000000000
0000000000000000000000000000
0000000000000000000000000000
0000000000000000000000000000
00FFFFFFFFFFFFFFF00000000000
01FFFFFFFFFFFFFFE00000000000
01FFFFFFFFFFFFFFE00000000000
01FFFFFFFFFFFFFFE00000000000
03FFFFFFFFFFFFFFC00000000000
03FFFFFFFFFFFFFFC00000000000
03FFFFFFFFFFFFFFC00000000000
07FFFFFFFFFFFFFF800000000000
0000000000000000000000000000
0000000000000000000000000000
0000000000000000000000000000
0000000000000000000000000000
0000000000000000000000000000
0000000000000000000000000000
0000000000000000000000000000
0000000000000000000000000000
0000000000000000000000000000
0000000000000000000000000000
0000000000000000000000000000
0000000000000000000000000000
0000000000000000000000000000
0000000000000000000000000000
0000000000000000000000000000
0000000000000000000000000000
ENDCHAR
STARTCHAR U+00B9
ENCODING 185
SWIDTH 1000 0
DWIDTH 80 0
BBX 106 80 -13 -16
BITMAP
0000000000003FFC000000000000
0000000000003FFC000000000000
0000000000003FFC000000000000
0000000000007FF8000000000000
0000000000007FF8000000000000
0000000000007FF8000000000000
000000000000FFF0000000000000
000000000000FFF0000000000000
0000000000FFFFF0000000000000
0000000001FFFFE0000000000000
0000000001FFFFE0000000000000
0000000001FFFFE0000000000000
0000000003FFFFC0000000000000
0000000003FFFFC0000000000000
0000000003FFFFC0000000000000
0000000007FFFF80000000000000
000000000007FF80000000000000
000000000007FF80000000000000
00000000000FFF00000000000000
00000000000FFF00000000000000
00000000000FFF00000000000000
00000000001FFE00000000000000
00000000001FFE00000000000000
00000000001FFE00000000000000
00000000003FFC00000000000000
00000000003FFC00000000000000
00000000003FFC00000000000000
00000000007FF800000000000000
00000000007FF800000000000000
00000000007FF800000000000000
0000000000FFF000000000000000
0000000000FFF000000000000000
00000000FFFFFFF0000000000000
00000001FFFFFFE0000000000000
00000001FFFFFFE0000000000000
00000001FFFFFFE0000000000000
00000003FFFFFFC0000000000000
00000003FFFFFFC0000000000000
00000003FFFFFFC0000000000000
00000007FFFFFF80000000000000
0000000000000000000000000000
0000000000000000000000000000
0000000000000000000000000000
0000000000000000000000000000
0000000000000000000000000000
0000000000000000000000000000
0000000000000000000000000000
0000000000000000000000000000
0000000000000000000000000000
0000000000000000000000000000
0000000000000000000000000000
0000000000000000000000000000
0000000000000000000000000000
0000000000000000000000000000
0000000000000000000000000000
0000000000000000000000000000
0000000000000000000000000000
0000000000000000000000000000
0000000000000000000000000000
0000000000000000000000000000
0000000000000000000000000000
0000000000000000000000000000
0000000000000000000000000000
0000000000000000000000000000
0000000000000000000000000000
0000000000000000000000000000
0000000000000000000000000000
0000000000000000000000000000
0000000000000000000000000000
0000000000000000000000000000
0000000000000000000000000000
0000000000000000000000000000
0000000000000000000000000000
0000000000000000000000000000
0000000000000000000000000000
0000000000000000000000000000
0000000000000000000000000000
0000000000000000000000000000
0000000000000000000000000000
0000000000000000000000000000
ENDCHAR
STARTCHAR U+00B8
ENCODING 184
SWIDTH 1000 0
DWIDTH 80 0
BBX 106 80 -13 -16
BITMAP
0000000000000000000000000000
0000000000000000000000000000
0000000000000000000000000000
0000000000000000000000000000
0000000000000000000000000000
0000000000000000000000000000
0000000000000000000000000000
0000000000000000000000000000
0000000000000000000000000000
0000000000000000000000000000
0000000000000000000000000000
0000000000000000000000000000
0000000000000000000000000000
0000000000000000000000000000
0000000000000000000000000000
0000000000000000000000000000
0000000000000000000000000000
0000000000000000000000000000
0000000000000000000000000000
0000000000000000000000000000
0000000000000000000000000000
0000000000000000000000000000
0000000000000000000000000000
0000000000000000000000000000
0000000000000000000000000000
0000000000000000000000000000
0000000000000000000000000000
0000000000000000000000000000
0000000000000000000000000000
0000000000000000000000000000
0000000000000000000000000000
0000000000000000000000000000
0000000000000000000000000000
0000000000000000000000000000
0000000000000000000000000000
0000000000000000000000000000
0000000000000000000000000000
0000000000000000000000000000
0000000000000000000000000000
0000000000000000000000000000
0000000000000000000000000000
0000000000000000000000000000
0000000000000000000000000000
0000000000000000000000000000
0000000000000000000000000000
0000000000000000000000000000
0000000000000000000000000000
0000000000000000000000000000
0000000000000000000000000000
0000000000000000000000000000
0000000000000000000000000000
0000000000000000000000000000
0000000000000000000000000000
0000000000000000000000000000
0000000000000000000000000000
0000000000000000000000000000
0000000000000000000000000000
0000000000000000000000000000
0000000000000000000000000000
0000000000000000000000000000
0000000000000000000000000000
0000000000000000000000000000
0000000000000000000000000000
0000000000000000000000000000
0000000007FF8000000000000000
0000000007FF8000000000000000
000000000FFF0000000000000000
000000000FFF0000000000000000
000000000FFF0000000000000000
000000001FFE0000000000000000
000000001FFE0000000000000000
000000001FFE0000000000000000
00003FFFFFFC0000000000000000
00003FFFFFFC0000000000000000
00003FFFFFFC0000000000000000
00007FFFFFF80000000000000000
00007FFFFFF80000000000000000
00007FFFFFF80000000000000000
0000FFFFFFF00000000000000000
0000FFFFFFF00000000000000000
ENDCHAR
STARTCHAR U+2022
ENCODING 8226
SWIDTH 1000 0
DWIDTH 80 0
BBX 106 80 -13 -16
BITMAP
0000000000000000000000000000
0000000000000000000000000000
0000000000000000000000000000
0000000000000000000000000000
0000000000000000000000000000
0000000000000000000000000000
0000000000000000000000000000
0000000000000000000000000000
0000000000000000000000000000
0000000000000000000000000000
0000000000000000000000000000
0000000000000000000000000000
0000000000000000000000000000
0000000000000000000000000000
0000000000000000000000000000
0000000000000000000000000000
0000000000000000000000000000
0000000000000000000000000000
0000000000000000000000000000
0000000000000000000000000000
0000000000000000000000000000
0000000000000000000000000000
0000000000000000000000000000
0000000000000000000000000000
000000003FFFFC00000000000000
000000003FFFFC00000000000000
000000003FFFFC00000000000000
000000007FFFF800000000000000
000000007FFFF800000000000000
000000007FFFF800000000000000
00000000FFFFF000000000000000
00000000FFFFF000000000000000
00000000FFFFF000000000000000
00000001FFFFE000000000000000
00000001FFFFE000000000000000
00000001FFFFE000000000000000
00000003FFFFC000000000000000
00000003FFFFC000000000000000
00000003FFFFC000000000000000
00000007FFFF8000000000000000
0000000000000000000000000000
0000000000000000000000000000
0000000000000000000000000000
0000000000000000000000000000
0000000000000000000000000000
0000000000000000000000000000
0000000000000000000000000000
0000000000000000000000000000
0000000000000000000000000000
0000000000000000000000000000
0000000000000000000000000000
0000000000000000000000000000
0000000000000000000000000000
0000000000000000000000000000
0000000000000000000000000000
0000000000000000000000000000
0000000000000000000000000000
0000000000000000000000000000
0000000000000000000000000000
0000000000000000000000000000
0000000000000000000000000000
0000000000000000000000000000
0000000000000000000000000000
0000000000000000000000000000
0000000000000000000000000000
0000000000000000000000000000
0000000000000000000000000000
0000000000000000000000000000
0000000000000000000000000000
0000000000000000000000000000
0000000000000000000000000000
0000000000000000000000000000
0000000000000000000000000000
0000000000000000000000000000
0000000000000000000000000000
0000000000000000000000000000
0000000000000000000000000000
0000000000000000000000000000
0000000000000000000000000000
0000000000000000000000000000
ENDCHAR
STARTCHAR U+00B6
ENCODING 182
SWIDTH 1000 0
DWIDTH 80 0
BBX 106 80 -13 -16
BITMAP
0000000000000000000000000000
0000000000000000000000000000
0000000000000000000000000000
0000000000000000000000000000
0000000000000000000000000000
0000000000000000000000000000
0000000000000000000000000000
0000000000000000000000000000
00000000FFFFFFFFFFFFF0000000
00000001FFFFFFFFFFFFE0000000
00000001FFFFFFFFFFFFE0000000
00000001FFFFFFFFFFFFE0000000
00000003FFFFFFFFFFFFC0000000
00000003FFFFFFFFFFFFC0000000
00000003FFFFFFFFFFFFC0000000
00000007FFFFFFFFFFFF80000000
000007FFFF8007FF87FF80000000
000007FFFF8007FF87FF80000000
00000FFFFF000FFF0FFF00000000
00000FFFFF000FFF0FFF00000000
00000FFFFF000FFF0FFF00000000
00001FFFFE001FFE1FFE00000000
00001FFFFE001FFE1FFE00000000
00001FFFFE001FFE1FFE00000000
00003FFFFC003FFC3FFC00000000
00003FFFFC003FFC3FFC00000000
00003FFFFC003FFC3FFC00000000
00007FFFF8007FF87FF800000000
00007FFFF8007FF87FF800000000
00007FFFF8007FF87FF800000000
0000FFFFF000FFF0FFF000000000
0000FFFFF000FFF0FFF000000000
000000FFFFFFFFFFFFF000000000
000001FFFFFFFFFFFFE000000000
000001FFFFFFFFFFFFE000000000
000001FFFFFFFFFFFFE000000000
000003FFFFFFFFFFFFC000000000
000003FFFFFFFFFFFFC000000000
000003FFFFFFFFFFFFC000000000
000007FFFFFFFFFFFF8000000000
000000000007FF87FF8000000000
000000000007FF87FF8000000000
00000000000FFF0FFF0000000000
00000000000FFF0FFF0000000000
00000000000FFF0FFF0000000000
00000000001FFE1FFE0000000000
00000000001FFE1FFE0000000000
00000000001FFE1FFE0000000000
00000000003FFC3FFC0000000000
00000000003FFC3FFC0000000000
00000000003FFC3FFC0000000000
00000000007FF87FF80000000000
00000000007FF87FF80000000000
00000000007FF87FF80000000000
0000000000FFF0FFF00000000000
0000000000FFF0FFF00000000000
0000000000FFF0FFF00000000000
0000000001FFE1FFE00000000000
0000000001FFE1FFE00000000000
0000000001FFE1FFE00000000000
0000000003FFC3FFC00000000000
0000000003FFC3FFC00000000000
0000000003FFC3FFC00000000000
0000000007FF87FF800000000000
0000000000000000000000000000
0000000000000000000000000000
0000000000000000000000000000
0000000000000000000000000000
0000000000000000000000000000
0000000000000000000000000000
0000000000000000000000000000
0000000000000000000000000000
0000000000000000000000000000
0000000000000000000000000000
0000000000000000000000000000
0000000000000000000000000000
0000000000000000000000000000
0000000000000000000000000000
0000000000000000000000000000
0000000000000000000000000000
ENDCHAR
STARTCHAR U+00B5
ENCODING 181
SWIDTH 1000 0
DWIDTH 80 0
BBX 106 80 -13 -16
BITMAP
0000000000000000000000000000
0000000000000000000000000000
0000000000000000000000000000
0000000000000000000000000000
0000000000000000000000000000
0000000000000000000000000000
0000000000000000000000000000
0000000000000000000000000000
0000000000000000000000000000
0000000000000000000000000000
0000000000000000000000000000
0000000000000000000000000000
0000000000000000000000000000
0000000000000000000000000000
0000000000000000000000000000
0000000000000000000000000000
0000000000000000000000000000
0000000000000000000000000000
0000000000000000000000000000
0000000000000000000000000000
0000000000000000000000000000
0000000000000000000000000000
0000000000000000000000000000
0000000000000000000000000000
0000003FFC0000003FFC00000000
0000003FFC0000003FFC00000000
0000003FFC0000003FFC00000000
0000007FF80000007FF800000000
0000007FF80000007FF800000000
0000007FF80000007FF800000000
000000FFF0000000FFF000000000
000000FFF0000000FFF000000000
000000FFF0000000FFF000000000
000001FFE0000001FFE000000000
000001FFE0000001FFE000000000
000001FFE0000001FFE000000000
000003FFC0000003FFC000000000
000003FFC0000003FFC000000000
000003FFC0000003FFC000000000
000007FF80000007FF8000000000
000007FF80000007FF8000000000
000007FF80000007FF8000000000
00000FFF0000000FFF0000000000
00000FFF0000000FFF0000000000
00000FFF0000000FFF0000000000
00001FFE0000001FFE0000000000
00001FFE0000001FFE0000000000
00001FFE0000001FFE0000000000
00003FFFFC003FFFFC0000000000
00003FFFFC003FFFFC0000000000
00003FFFFC003FFFFC0000000000
00007FFFF8007FFFF80000000000
00007FFFF8007FFFF80000000000
00007FFFF8007FFFF80000000000
0000FFFFF000FFFFF00000000000
0000FFFFF000FFFFF00000000000
0000FFF0FFFFF0FFF00000000000
0001FFE1FFFFE1FFE00000000000
0001FFE1FFFFE1FFE00000000000
0001FFE1FFFFE1FFE00000000000
0003FFC3FFFFC3FFC00000000000
0003FFC3FFFFC3FFC00000000000
0003FFC3FFFFC3FFC00000000000
0007FF87FFFF87FF800000000000
0007FF8000000000000000000000
0007FF8000000000000000000000
000FFF0000000000000000000000
000FFF0000000000000000000000
000FFF0000000000000000000000
001FFE0000000000000000000000
001FFE0000000000000000000000
001FFE0000000000000000000000
3FFC000000000000000000000000
3FFC000000000000000000000000
3FFC000000000000000000000000
7FF8000000000000000000000000
7FF8000000000000000000000000
7FF8000000000000000000000000
FFF0000000000000000000000000
FFF0000000000000000000000000
ENDCHAR
STARTCHAR U+00B4
ENCODING 180
SWIDTH 1000 0
DWIDTH 80 0
BBX 106 80 -13 -16
BITMAP
0000000000000000000000000000
0000000000000000000000000000
0000000000000000000000000000
0000000000000000000000000000
0000000000000000000000000000
0000000000000000000000000000
0000000000000000000000000000
0000000000000000000000000000
00000000000000FFFFF000000000
00000000000001FFFFE000000000
00000000000001FFFFE000000000
00000000000001FFFFE000000000
00000000000003FFFFC000000000
00000000000003FFFFC000000000
00000000000003FFFFC000000000
00000000000007FFFF8000000000
00000000000007FF800000000000
00000000000007FF800000000000
0000000000000FFF000000000000
0000000000000FFF000000000000
0000000000000FFF000000000000
0000000000001FFE000000000000
0000000000001FFE000000000000
0000000000001FFE000000000000
00000000003FFC00000000000000
00000000003FFC00000000000000
00000000003FFC00000000000000
00000000007FF800000000000000
00000000007FF800000000000000
00000000007FF800000000000000
0000000000FFF000000000000000
0000000000FFF000000000000000
0000000000000000000000000000
0000000000000000000000000000
0000000000000000000000000000
0000000000000000000000000000
0000000000000000000000000000
0000000000000000000000000000
0000000000000000000000000000
0000000000000000000000000000
0000000000000000000000000000
0000000000000000000000000000
0000000000000000000000000000
0000000000000000000000000000
0000000000000000000000000000
0000000000000000000000000000
0000000000000000000000000000
0000000000000000000000000000
0000000000000000000000000000
0000000000000000000000000000
0000000000000000000000000000
0000000000000000000000000000
0000000000000000000000000000
0000000000000000000000000000
0000000000000000000000000000
0000000000000000000000000000
0000000000000000000000000000
0000000000000000000000000000
0000000000000000000000000000
0000000000000000000000000000
0000000000000000000000000000
0000000000000000000000000000
0000000000000000000000000000
0000000000000000000000000000
0000000000000000000000000000
0000000000000000000000000000
0000000000000000000000000000
0000000000000000000000000000
0000000000000000000000000000
0000000000000000000000000000
0000000000000000000000000000
0000000000000000000000000000
0000000000000000000000000000
0000000000000000000000000000
0000000000000000000000000000
0000000000000000000000000000
0000000000000000000000000000
0000000000000000000000000000
0000000000000000000000000000
0000000000000000000000000000
ENDCHAR
STARTCHAR U+00B3
ENCODING 179
SWIDTH 1000 0
DWIDTH 80 0
BBX 106 80 -13 -16
BITMAP
000000003FFFFFFFFFFC00000000
000000003FFFFFFFFFFC00000000
000000003FFFFFFFFFFC00000000
000000007FFFFFFFFFF800000000
000000007FFFFFFFFFF800000000
000000007FFFFFFFFFF800000000
00000000FFFFFFFFFFF000000000
00000000FFFFFFFFFFF000000000
0000000000000000FFF000000000
0000000000000001FFE000000000
0000000000000001FFE000000000
0000000000000001FFE000000000
0000000000000003FFC000000000
0000000000000003FFC000000000
0000000000000003FFC000000000
0000000000000007FF8000000000
000000000007FFFF800000000000
000000000007FFFF800000000000
00000000000FFFFF000000000000
00000000000FFFFF000000000000
00000000000FFFFF000000000000
00000000001FFFFE000000000000
00000000001FFFFE000000000000
00000000001FFFFE000000000000
000000000000003FFC0000000000
000000000000003FFC0000000000
000000000000003FFC0000000000
000000000000007FF80000000000
000000000000007FF80000000000
000000000000007FF80000000000
00000000000000FFF00000000000
00000000000000FFF00000000000
000000FFFFFFFFF0000000000000
000001FFFFFFFFE0000000000000
000001FFFFFFFFE0000000000000
000001FFFFFFFFE0000000000000
000003FFFFFFFFC0000000000000
000003FFFFFFFFC0000000000000
000003FFFFFFFFC0000000000000
000007FFFFFFFF80000000000000
0000000000000000000000000000
0000000000000000000000000000
0000000000000000000000000000
0000000000000000000000000000
0000000000000000000000000000
0000000000000000000000000000
0000000000000000000000000000
0000000000000000000000000000
0000000000000000000000000000
0000000000000000000000000000
0000000000000000000000000000
0000000000000000000000000000
0000000000000000000000000000
0000000000000000000000000000
0000000000000000000000000000
0000000000000000000000000000
0000000000000000000000000000
0000000000000000000000000000
0000000000000000000000000000
0000000000000000000000000000
0000000000000000000000000000
0000000000000000000000000000
0000000000000000000000000000
0000000000000000000000000000
0000000000000000000000000000
0000000000000000000000000000
0000000000000000000000000000
0000000000000000000000000000
0000000000000000000000000000
0000000000000000000000000000
0000000000000000000000000000
0000000000000000000000000000
0000000000000000000000000000
0000000000000000000000000000
0000000000000000000000000000
0000000000000000000000000000
0000000000000000000000000000
0000000000000000000000000000
0000000000000000000000000000
0000000000000000000000000000
ENDCHAR
STARTCHAR U+00B2
ENCODING 178
SWIDTH 1000 0
DWIDTH 80 0
BBX 106 80 -13 -16
BITMAP
00000000003FFFFFFC0000000000
00000000003FFFFFFC0000000000
00000000003FFFFFFC0000000000
00000000007FFFFFF80000000000
00000000007FFFFFF80000000000
00000000007FFFFFF80000000000
0000000000FFFFFFF00000000000
0000000000FFFFFFF00000000000
00000000FFF00000FFF000000000
00000001FFE00001FFE000000000
00000001FFE00001FFE000000000
00000001FFE00001FFE000000000
00000003FFC00003FFC000000000
00000003FFC00003FFC000000000
00000003FFC00003FFC000000000
00000007FF800007FF8000000000
000000000007FFFF800000000000
000000000007FFFF800000000000
00000000000FFFFF000000000000
00000000000FFFFF000000000000
00000000000FFFFF000000000000
00000000001FFFFE000000000000
00000000001FFFFE000000000000
00000000001FFFFE000000000000
000000003FFC0000000000000000
000000003FFC0000000000000000
000000003FFC0000000000000000
000000007FF80000000000000000
000000007FF80000000000000000
000000007FF80000000000000000
00000000FFF00000000000000000
00000000FFF00000000000000000
000000FFFFFFFFFFF00000000000
000001FFFFFFFFFFE00000000000
000001FFFFFFFFFFE00000000000
000001FFFFFFFFFFE00000000000
000003FFFFFFFFFFC00000000000
000003FFFFFFFFFFC00000000000
000003FFFFFFFFFFC00000000000
000007FFFFFFFFFF800000000000
0000000000000000000000000000
0000000000000000000000000000
0000000000000000000000000000
0000000000000000000000000000
0000000000000000000000000000
0000000000000000000000000000
0000000000000000000000000000
0000000000000000000000000000
0000000000000000000000000000
0000000000000000000000000000
0000000000000000000000000000
0000000000000000000000000000
0000000000000000000000000000
0000000000000000000000000000
0000000000000000000000000000
0000000000000000000000000000
0000000000000000000000000000
0000000000000000000000000000
0000000000000000000000000000
0000000000000000000000000000
0000000000000000000000000000
0000000000000000000000000000
0000000000000000000000000000
0000000000000000000000000000
0000000000000000000000000000
0000000000000000000000000000
0000000000000000000000000000
0000000000000000000000000000
0000000000000000000000000000
0000000000000000000000000000
0000000000000000000000000000
0000000000000000000000000000
0000000000000000000000000000
0000000000000000000000000000
0000000000000000000000000000
0000000000000000000000000000
0000000000000000000000000000
0000000000000000000000000000
0000000000000000000000000000
0000000000000000000000000000
ENDCHAR
STARTCHAR U+00AF
ENCODING 175
SWIDTH 1000 0
DWIDTH 80 0
BBX 106 80 -13 -16
BITMAP
000000003FFFFFFFFFFC00000000
000000003FFFFFFFFFFC00000000
000000003FFFFFFFFFFC00000000
000000007FFFFFFFFFF800000000
000000007FFFFFFFFFF800000000
000000007FFFFFFFFFF800000000
00000000FFFFFFFFFFF000000000
00000000FFFFFFFFFFF000000000
0000000000000000000000000000
0000000000000000000000000000
0000000000000000000000000000
0000000000000000000000000000
0000000000000000000000000000
0000000000000000000000000000
0000000000000000000000000000
0000000000000000000000000000
0000000000000000000000000000
0000000000000000000000000000
0000000000000000000000000000
0000000000000000000000000000
0000000000000000000000000000
0000000000000000000000000000
0000000000000000000000000000
0000000000000000000000000000
0000000000000000000000000000
0000000000000000000000000000
0000000000000000000000000000
0000000000000000000000000000
0000000000000000000000000000
0000000000000000000000000000
0000000000000000000000000000
0000000000000000000000000000
0000000000000000000000000000
0000000000000000000000000000
0000000000000000000000000000
0000000000000000000000000000
0000000000000000000000000000
0000000000000000000000000000
0000000000000000000000000000
0000000000000000000000000000
0000000000000000000000000000
0000000000000000000000000000
0000000000000000000000000000
0000000000000000000000000000
0000000000000000000000000000
0000000000000000000000000000
0000000000000000000000000000
0000000000000000000000000000
0000000000000000000000000000
0000000000000000000000000000
0000000000000000000000000000
0000000000000000000000000000
0000000000000000000000000000
0000000000000000000000000000
0000000000000000000000000000
0000000000000000000000000000
0000000000000000000000000000
0000000000000000000000000000
0000000000000000000000000000
0000000000000000000000000000
0000000000000000000000000000
0000000000000000000000000000
0000000000000000000000000000
0000000000000000000000000000
0000000000000000000000000000
0000000000000000000000000000
0000000000000000000000000000
0000000000000000000000000000
0000000000000000000000000000
0000000000000000000000000000
0000000000000000000000000000
0000000000000000000000000000
0000000000000000000000000000
0000000000000000000000000000
0000000000000000000000000000
0000000000000000000000000000
0000000000000000000000000000
0000000000000000000000000000
0000000000000000000000000000
0000000000000000000000000000
ENDCHAR
STARTCHAR U+00AE
ENCODING 174
SWIDTH 1000 0
DWIDTH 80 0
BBX 106 80 -13 -16
BITMAP
0000000000000000000000000000
0000000000000000000000000000
0000000000000000000000000000
0000000000000000000000000000
0000000000000000000000000000
0000000000000000000000000000
0000000000000000000000000000
0000000000000000000000000000
0000000000FFFFFFF00000000000
0000000001FFFFFFE00000000000
0000000001FFFFFFE00000000000
0000000001FFFFFFE00000000000
0000000003FFFFFFC00000000000
0000000003FFFFFFC00000000000
0000000003FFFFFFC00000000000
0000000007FFFFFF800000000000
00000007FF800007FF8000000000
00000007FF800007FF8000000000
0000000FFF00000FFF0000000000
0000000FFF00000FFF0000000000
0000000FFF00000FFF0000000000
0000001FFE00001FFE0000000000
0000001FFE00001FFE0000000000
0000001FFE00001FFE0000000000
00003FFC3FFFFFFC3FFC00000000
00003FFC3FFFFFFC3FFC00000000
00003FFC3FFFFFFC3FFC00000000
00007FF87FFFFFF87FF800000000
00007FF87FFFFFF87FF800000000
00007FF87FFFFFF87FF800000000
0000FFF0FFFFFFF0FFF000000000
0000FFF0FFFFFFF0FFF000000000
0000FFF0FFF000FFFFF000000000
0001FFE1FFE001FFFFE000000000
0001FFE1FFE001FFFFE000000000
0001FFE1FFE001FFFFE000000000
0003FFC3FFC003FFFFC000000000
0003FFC3FFC003FFFFC000000000
0003FFC3FFC003FFFFC000000000
0007FF87FF8007FFFF8000000000
0007FF87FFFFFF87FF8000000000
0007FF87FFFFFF87FF8000000000
000FFF0FFFFFFF0FFF0000000000
000FFF0FFFFFFF0FFF0000000000
000FFF0FFFFFFF0FFF0000000000
001FFE1FFFFFFE1FFE0000000000
001FFE1FFFFFFE1FFE0000000000
001FFE1FFFFFFE1FFE0000000000
003FFC3FFFFC003FFC0000000000
003FFC3FFFFC003FFC0000000000
003FFC3FFFFC003FFC0000000000
007FF87FFFF8007FF80000000000
007FF87FFFF8007FF80000000000
007FF87FFFF8007FF80000000000
00FFF0FFFFF000FFF00000000000
00FFF0FFFFF000FFF00000000000
0000FFFFF0FFFFF0000000000000
0001FFFFE1FFFFE0000000000000
0001FFFFE1FFFFE0000000000000
0001FFFFE1FFFFE0000000000000
0003FFFFC3FFFFC0000000000000
0003FFFFC3FFFFC0000000000000
0003FFFFC3FFFFC0000000000000
0007FFFF87FFFF80000000000000
000007FFFFFF8000000000000000
000007FFFFFF8000000000000000
00000FFFFFFF0000000000000000
00000FFFFFFF0000000000000000
00000FFFFFFF0000000000000000
00001FFFFFFE0000000000000000
00001FFFFFFE0000000000000000
00001FFFFFFE0000000000000000
0000000000000000000000000000
0000000000000000000000000000
0000000000000000000000000000
0000000000000000000000000000
0000000000000000000000000000
0000000000000000000000000000
0000000000000000000000000000
0000000000000000000000000000
ENDCHAR
STARTCHAR U+00D7
ENCODING 215
SWIDTH 1000 0
DWIDTH 80 0
BBX 106 80 -13 -16
BITMAP
0000000000000000000000000000
0000000000000000000000000000
0000000000000000000000000000
0000000000000000000000000000
0000000000000000000000000000
0000000000000000000000000000
0000000000000000000000000000
0000000000000000000000000000
0000000000000000000000000000
0000000000000000000000000000
0000000000000000000000000000
0000000000000000000000000000
0000000000000000000000000000
0000000000000000000000000000
0000000000000000000000000000
0000000000000000000000000000
00000007FF800007FF8000000000
00000007FF800007FF8000000000
0000000FFF00000FFF0000000000
0000000FFF00000FFF0000000000
0000000FFF00000FFF0000000000
0000001FFE00001FFE0000000000
0000001FFE00001FFE0000000000
0000001FFE00001FFE0000000000
000000003FFC3FFC000000000000
000000003FFC3FFC000000000000
000000003FFC3FFC000000000000
000000007FF87FF8000000000000
000000007FF87FF8000000000000
000000007FF87FF8000000000000
00000000FFF0FFF0000000000000
00000000FFF0FFF0000000000000
0000000000FFF000000000000000
0000000001FFE000000000000000
0000000001FFE000000000000000
0000000001FFE000000000000000
0000000003FFC000000000000000
0000000003FFC000000000000000
0000000003FFC000000000000000
0000000007FF8000000000000000
00000007FF87FF80000000000000
00000007FF87FF80000000000000
0000000FFF0FFF00000000000000
0000000FFF0FFF00000000000000
0000000FFF0FFF00000000000000
0000001FFE1FFE00000000000000
0000001FFE1FFE00000000000000
0000001FFE1FFE00000000000000
00003FFC00003FFC000000000000
00003FFC00003FFC000000000000
00003FFC00003FFC000000000000
00007FF800007FF8000000000000
00007FF800007FF8000000000000
00007FF800007FF8000000000000
0000FFF00000FFF0000000000000
0000FFF00000FFF0000000000000
0000000000000000000000000000
0000000000000000000000000000
0000000000000000000000000000
0000000000000000000000000000
0000000000000000000000000000
0000000000000000000000000000
0000000000000000000000000000
0000000000000000000000000000
0000000000000000000000000000
0000000000000000000000000000
0000000000000000000000000000
0000000000000000000000000000
0000000000000000000000000000
0000000000000000000000000000
0000000000000000000000000000
0000000000000000000000000000
0000000000000000000000000000
0000000000000000000000000000
0000000000000000000000000000
0000000000000000000000000000
0000000000000000000000000000
0000000000000000000000000000
0000000000000000000000000000
0000000000000000000000000000
ENDCHAR
ENDFONT
